<?xml version="1.0" standalone="no"?>
<!DOCTYPE svg PUBLIC "-//W3C//DTD SVG 1.1//EN" "http://www.w3.org/Graphics/SVG/1.1/DTD/svg11.dtd" >
<svg xmlns="http://www.w3.org/2000/svg" xmlns:xlink="http://www.w3.org/1999/xlink" version="1.1">
<metadata></metadata>
<defs>
<font id="goldie_handitalic" horiz-adv-x="813" >
<font-face units-per-em="2048" ascent="1638" descent="-410" />
<missing-glyph horiz-adv-x="512" />
<glyph unicode="&#xfb01;" horiz-adv-x="944" d="M-383 -1167q8 33 8 51l51 33l140 153l225 527l135 383l189 522l-48 -4l-114 -76l-209 -103q87 154 285 226q21 21 59 35t65 19.5t27 8.5l123 266q15 21 68 130l36 63q31 54 72.5 112.5t70.5 108.5t56 125q11 30 26.5 49t27 24.5t20 13.5t8.5 22l221 202q76 35 111 35 q14 0 20 -6l27 -35l-109 -151q-12 39 -39 39q-22 0 -67 -23l-180 -194q-5 -17 -31 -40.5t-35 -27.5q-31 -91 -53 -143q-35 -35 -68 -98.5t-141 -297.5l-68 -147l365 110l-148 -309q-13 -13 -37 -96.5t-24 -134.5q0 -68 26.5 -114t73.5 -46q41 0 74 13t64.5 35t40.5 26 l14 -21q-78 -85 -273 -139q-7 2 -22.5 5t-20.5 4t-16.5 4.5t-16.5 6.5t-13.5 9.5t-14 14t-13 18.5t-14.5 26q-12 41 -12 86q7 124 70 236l139 274l-141 -59l-144 -49q-13 -42 -23.5 -81t-16.5 -59t-15 -43q-16 -20 -96.5 -182.5t-95.5 -177.5l-115 -402l-328 -739 q-18 -8 -48.5 -45.5t-37.5 -44.5q-2 4 -46 34.5t-44 37.5zM973 1063v12l41 53l30 2l13 -32q65 -14 65 -64q0 -30 -17.5 -46.5t-41.5 -16.5z" />
<glyph unicode="&#xfb02;" horiz-adv-x="1214" d="M-383 -1167q8 33 8 51l51 33l140 153l225 527l135 383l189 522l-48 -4l-114 -76l-209 -103q87 154 285 226q21 21 59 35t65 19.5t27 8.5l123 266q15 21 68 130l36 63q31 54 72.5 112.5t70.5 108.5t56 125q11 30 26.5 49t27 24.5t20 13.5t8.5 22l221 202q76 35 111 35 q14 0 20 -6l27 -35l-109 -151q-12 39 -39 39q-22 0 -67 -23l-180 -194q-5 -17 -31 -40.5t-35 -27.5q-31 -91 -53 -143q-35 -35 -68 -98.5t-141 -297.5l-68 -147l340 102q3 6 17 36.5t20 42t17 33t19.5 34t16.5 20.5l131 273l386 440q16 13 53.5 46.5t62.5 54t58.5 45 t63 36.5t54.5 12h11q0 -25 -5.5 -51.5t-17.5 -59t-20.5 -52.5t-27 -59.5t-24.5 -51.5q-11 -64 -143 -223q-299 -362 -364 -429q-15 -16 -25 -24l-205 -172q-1 -6 -27 -77.5t-26 -75.5v-13q0 -34 -27 -49q-5 -6 -8 -43t-4 -41q0 -63 9 -117.5t31 -105.5t56 -87t88 -57.5 t123 -21.5l53 2l66 -4q-25 -25 -67.5 -40.5t-74.5 -19.5t-82 -7.5t-61 -4.5q-150 62 -200 125l-9 55q-51 88 -51 189q0 108 94 373l-200 -84l-144 -49q-13 -42 -23.5 -81t-16.5 -59t-15 -43q-16 -20 -96.5 -182.5t-95.5 -177.5l-115 -402l-328 -739q-18 -8 -48.5 -45.5 t-37.5 -44.5q-2 4 -46 34.5t-44 37.5zM975 776q53 36 127.5 100t128.5 128l149 184q41 56 66 112l164 236l63 152l-176 -152q-6 -37 -70.5 -118.5t-135 -163.5t-83.5 -111l-129 -148z" />
<glyph horiz-adv-x="0" />
<glyph horiz-adv-x="682" />
<glyph unicode=" "  horiz-adv-x="512" />
<glyph unicode="&#x09;" horiz-adv-x="512" />
<glyph unicode="&#xa0;" horiz-adv-x="512" />
<glyph unicode="!" horiz-adv-x="501" d="M78 -39q0 37 10 57q16 7 36 29.5t37 45t43.5 42.5t53.5 25q39 0 39 -43q0 -29 -18 -78l-89 -64q-63 -46 -98 -53q-14 17 -14 39zM291 569q0 18 9.5 46.5t17.5 45.5t32 66q70 246 324 1094q57 28 92 28h8q-211 -779 -317 -1194l-82 -55q-54 -38 -80 -45q0 1 -2 5t-2 9z " />
<glyph unicode="&#x22;" horiz-adv-x="774" d="M264 797q0 12 21.5 48.5t43 84t21.5 86.5q0 20 -6 67.5t-6 51.5q0 14 18.5 25.5t40 16.5t48.5 10t32 7l45 -51q4 -2 4 -39q0 -100 -98 -225q-30 -14 -65.5 -36.5t-57.5 -37t-26 -14.5q-12 0 -15 6zM588 889q0 21 24 61l39 58q31 48 31 88q0 14 -5 51t-5 43q0 32 28 52 t56.5 25t56.5 5q18 -24 23.5 -33t10.5 -25t5 -38q0 -29 -2 -33q-53 -133 -105.5 -189.5t-142.5 -81.5q-14 0 -14 17z" />
<glyph unicode="#" horiz-adv-x="1292" d="M18 -137q13 80 80 221q149 302 160 365q-11 6 -41 32q0 18 74 51q43 34 72 91t38 122q-25 0 -95.5 -26.5t-80.5 -26.5h-8l8 27l236 151q84 151 270 638l27 69q78 33 102 33q2 0 5.5 -1t10 -2.5t13.5 -2.5q-53 -145 -129 -312q-13 -30 -35 -76.5t-35.5 -76t-28 -63.5 t-21.5 -58.5t-7 -40.5q0 -9 5 -14.5t9.5 -6.5t18.5 -4q43 22 190 37l361 502q107 90 122 100q25 15 56 15q28 0 49 -21q-24 -29 -98 -89.5t-107 -78.5l-109 -151q-102 -145 -114 -230q3 0 18 -3t21 -3q5 0 36 4t50 4q20 0 22 -2q-145 -113 -227 -118l-113 -213 q5 -17 7 -22.5t7.5 -14t13 -11t19.5 -2.5q38 6 146 22t161.5 24t139.5 19.5t155.5 19.5t133.5 14l-21 -41q-27 -13 -153 -31q-382 -80 -678 -139q-44 -59 -92.5 -182.5t-81.5 -235.5q-13 -6 -35 -16.5t-34 -16.5t-27 -14.5t-27 -16.5q8 42 80.5 235t80.5 232 q-62 -9 -92.5 -14t-64.5 -19t-47 -23.5t-35.5 -40.5t-35 -57t-40.5 -85q-5 -11 -8 -17l-98 -200q0 -37 2 -43q-91 -181 -152 -181q-14 0 -29 15zM496 600l182 45l59 103q40 78 54 124q-84 0 -123 -20l-82 -51l-45 -80q-45 -75 -45 -121z" />
<glyph unicode="$" horiz-adv-x="1335" d="M66 -514q4 15 26 69.5t85.5 205.5t113.5 272q83 195 104 315q18 29 48 55.5t51.5 47.5t48 85.5t45.5 168.5q-175 104 -193 124q-53 50 -53 123q0 54 35 119q125 162 250.5 248t238.5 86l295 403l29 19q15 12 33 12q12 0 18 -6q-11 -36 -172 -260q-74 -99 -86 -172 q113 -74 113 -193q-4 -4 -16 -25t-25 -28q-23 0 -32 20t-14.5 44t-19.5 30q-36 0 -102 -146.5t-117 -348.5l88 -54q61 -22 92 -22q8 0 16 4.5t17 15t17 21t18 29t18 33t19 38t18 38.5t19 41t18 40l117 244q6 17 19 49.5t24 63t18 59.5l90 315q13 4 33 12t27 9l41 -7 q-2 -11 -7.5 -53.5t-7 -52.5t-9.5 -50t-16.5 -61.5t-24.5 -71t-36.5 -92.5t-51 -112.5t-68.5 -146t-88.5 -176.5t-112.5 -220q8 -17 28 -35.5t38 -32t32 -34.5t14 -45q0 -25 -65 -103.5t-121 -93.5l-131 -24q-230 -322 -272 -707q0 -10 -63 -54t-83 -44q-10 0 -10 16l2 2 q2 3 2 8q32 136 94 287l230 479q-52 16 -100.5 20.5t-135.5 4.5q-108 -176 -154 -291l-122 -297q6 -45 24 -51q0 -37 -20 -63t-44.5 -35.5l-49 -19t-29.5 -17.5l-21 -31q-20 -29 -32 -29q0 27 -2 29zM451 1010q8 -28 14.5 -47t13 -35.5t9 -24t10.5 -20.5t9.5 -16t13 -18 t14.5 -20q14 0 55 -19t45 -19q10 0 31 6l194 485q-29 23 -67 23q-60 0 -148 -43l-76 -35q-39 -49 -78.5 -114.5t-39.5 -96.5v-6zM582 424l137 -27q20 -2 82 -2q35 26 84 88l47 64q0 33 -50.5 54t-187.5 50q-70 -102 -87.5 -136.5t-24.5 -90.5zM963 416q0 -13 2 -15 q30 0 71 21q38 20 45 53q0 41 -51 53q-25 -9 -46 -44t-21 -68z" />
<glyph unicode="%" horiz-adv-x="1576" d="M217 -289q0 19 8 43q173 333 486 750q89 121 328.5 405.5t491.5 577.5t296 346q16 19 39 22q-28 -86 -82 -182t-115 -168q-107 -73 -250 -229l-139 -148q-400 -425 -567.5 -657t-196.5 -403q90 47 208 147t206 191.5t165 174.5t87 91q12 -54 20 -54q1 0 10.5 16t23.5 32 t26 16q18 0 45 -27l145 -55q68 -27 68 -104q-35 -120 -111 -238t-175.5 -198t-189.5 -80q-60 0 -92 61t-59 199q-322 -241 -670 -543q-6 0 -6 14zM256 924l272 415q88 60 150 60q32 0 68 -18t69 -51t54.5 -86t21.5 -116q0 -86 -39.5 -154.5t-107.5 -111.5t-153.5 -65.5 t-180.5 -22.5q-97 28 -122.5 54t-31.5 96zM377 1008q0 -13 9 -27.5t26 -35t24 -30.5h12q39 0 60 0.5t60.5 2t63.5 6.5t56.5 12.5t52.5 21t39 31t28 43.5t9 58q0 83 -47 104q-133 -80 -149 -80q-10 -14 -24 -34t-20.5 -29.5t-15 -20t-14.5 -14.5t-12 -4q-14 0 -24.5 15.5 t-10.5 33.5q4 40 4 43q0 26 -37 26q-29 0 -59.5 -39.5t-30.5 -82.5zM1102 383q0 -76 20 -113.5t74 -52.5q73 24 86 33q26 12 35 22.5t15 30t16 35.5q-9 27 -34 50t-46 26q-56 -31 -166 -31z" />
<glyph unicode="&#x26;" horiz-adv-x="1609" d="M145 25q0 56 87 175.5t202 207.5q41 34 486 266q7 227 174 442q153 199 178 232q255 221 495 309l17 -15q0 -131 -71 -282t-226 -359q-13 -31 -83.5 -94.5t-72.5 -68.5l-282 -199q39 -149 196 -291q26 0 121 35t107 35q32 -13 32 -35q0 -33 -59 -86q-74 -65 -74 -68 q28 -47 63.5 -83.5t100.5 -79.5q-9 -38 -40 -69t-69 -42q-8 4 -28 22t-62.5 57t-87.5 77l-112 94q-52 0 -74 -25q-112 -34 -381.5 -118t-419.5 -128l-65 27q-52 22 -52 64zM289 131q0 -59 94 -59q192 0 424 98l270 109q-48 53 -78.5 121.5t-62.5 179.5q-235 -65 -313 -97 q-78 -30 -144.5 -82t-106 -104t-61.5 -96.5t-22 -69.5zM1028 793l8 -74q58 16 119.5 49t100 61t90 68.5t67.5 52.5q92 128 159 276.5t91 286.5q-3 5 -27 5q-95 0 -350 -220q-119 -147 -173 -230.5t-69.5 -138t-15.5 -136.5z" />
<glyph unicode="'" horiz-adv-x="448" d="M381 1071q4 15 45 43.5t49 38.5q35 83 35 166q0 71 -17 127.5t-57 132.5q40 35 69.5 49t69.5 14q53 -33 80 -93t27 -136q0 -85 -11 -121q-31 -103 -186 -181q-44 -23 -100 -44z" />
<glyph unicode="(" horiz-adv-x="522" d="M121 240l10 96q51 247 179 471t401 526l135 80q18 -3 18 -8q0 -22 -16.5 -44.5t-33.5 -35.5t-44 -31q-237 -261 -364 -515t-127 -476q30 -183 86.5 -296t162.5 -193q2 0 22 7t32 7t12 -8l33 4l-86 -60q-100 -65 -152 -81q-3 2 -13 9.5t-13.5 10t-12.5 9t-12.5 9.5 t-11 9.5t-11 10l-9 9t-9 10t-7.5 10.5t-7 11l-70 113l-61 159q-5 11 -8.5 23t-6 22t-5 24.5t-4 22.5t-3 25t-1.5 22.5t-1.5 25t-1.5 22.5z" />
<glyph unicode=")" horiz-adv-x="548" d="M-150 -291q14 3 23 12l475 517q0 20 41 61q98 188 98 356q0 213 -151 471l-150 248q9 23 57 46t105 34q119 -159 181 -294t110 -331q0 -168 -63 -338.5t-192 -329.5t-306 -267l-96 -111q-63 -74 -132 -74z" />
<glyph unicode="*" horiz-adv-x="1103" d="M231 844q0 9 8 17.5t23 20t21 17.5l67 21q89 28 131 28q3 1 50.5 12t91 26t59.5 32q-19 29 -66 64.5t-81.5 63.5t-34.5 48l8 27h20q17 -17 51.5 -48.5t97 -79t95.5 -55.5q27 11 85.5 55t112 88t60.5 48q14 -25 14 -49q0 -20 -29 -38.5t-63 -29.5t-63 -25t-29 -26 q0 -9 29 -53l147 2q94 0 172 -41l-8 -17h-162q-35 0 -98 -10.5t-63 -23.5q0 -5 39.5 -65t39.5 -79q0 -10 -8 -10q-28 0 -59.5 21t-54.5 47t-49 50t-44 29q-6 -4 -35 -26t-40.5 -31.5t-34.5 -29t-41 -37.5t-35 -39l-154 -181q11 55 140 199q69 78 88 137q-43 0 -258 -51 q-73 -18 -119 -18q-21 0 -21 10z" />
<glyph unicode="+" horiz-adv-x="1265" d="M238 322q10 40 72.5 79t146.5 60q156 33 189 48t46 64q-4 2 -4 23q0 38 23 73t59 50q0 -23 -10 -105q0 -28 7.5 -39.5t31.5 -11.5q38 0 130 16.5t99 16.5q80 0 80 -82q0 -31 -27 -80q-14 8 -69 15q-27 2 -80 2q-30 0 -65.5 -9.5t-155.5 -50.5q-36 -88 -57 -172 t-26.5 -126t-21 -75t-47.5 -49q-12 12 -12 37q48 133 71 221t23 168q-4 0 -159.5 -39t-202.5 -39q-39 0 -41 5z" />
<glyph unicode="," horiz-adv-x="448" d="M57 -383q5 19 49 49.5t48 36.5q32 63 32 164q0 70 -15.5 125.5t-53.5 134.5q41 34 69 48.5t66 14.5q52 -33 81 -94.5t29 -134.5q0 -122 -59 -201q-34 -45 -67.5 -65.5t-174.5 -83.5z" />
<glyph unicode="-" d="M131 348q0 43 13 72.5t32.5 46t55 25t67 10.5t82.5 2q102 0 127 -2l217 -27q0 -28 -28.5 -47.5t-74.5 -29t-90 -13.5t-90 -4q-112 0 -219 10q-63 -49 -86 -49q-6 0 -6 6z" />
<glyph unicode="." horiz-adv-x="448" d="M100 -68q0 19 27 88q20 16 87.5 54.5t94.5 38.5q21 0 23 -2q-4 -110 -15 -142q-52 -42 -74.5 -54.5t-49.5 -12.5l-89 4q-4 4 -4 26z" />
<glyph unicode="/" horiz-adv-x="780" d="M-133 -184l88 133q40 62 113 135q12 15 43.5 57t42 55.5t46.5 56t75 84.5t107 114.5t161 169.5q98 76 223 241t364 529q10 4 27 4h17h59q-57 -214 -277 -471l-393 -424q-108 -118 -160 -177.5t-153 -186.5t-232 -306q-84 -43 -124 -43q-27 0 -27 20v9z" />
<glyph unicode="0" horiz-adv-x="1118" d="M115 238q0 55 32.5 160t72.5 209.5t42 109.5l125 227l176 219l125 51l8 -16q18 0 54 25l61 51q54 26 119 26q61 -1 101.5 -19t60.5 -46t31 -56.5t22.5 -57.5t25.5 -42q66 -64 66 -227q0 -118 -37 -231l-26 -60q-15 -27 -48 -37q-2 -3 -10 -27.5t-21 -49.5t-30 -37 q-42 -69 -137 -146l-166 -131q-112 -65 -162.5 -92.5t-116 -50t-121.5 -21.5l-86 2q-46 11 -103.5 85t-57.5 182zM227 297l49 -174l111 -55q304 0 457 200q90 56 172 232.5t82 300.5q0 5 -6 47v14q0 27 -17 66q4 4 4 37q0 62 -39 127l-79 106q-77 27 -117 27l-68 -74 l-92 -199l-104 -8l6 92l-82 -92l-12 -43q-46 -45 -86 -114.5t-67 -128.5t-36 -70q0 -26 -27 -64z" />
<glyph unicode="1" horiz-adv-x="468" d="M121 -59q0 50 2 77l33 41l47 148q0 18 18 39q36 66 56 107.5t38.5 103t18.5 116.5l176 590q52 87 113 103q4 0 14 -13v-18q-14 -21 -19 -55q-2 -15 -60 -150t-62 -174l-99 -274q-19 -52 -60.5 -197.5t-41.5 -200.5l-21 -96h21v-20l-29 -54q-9 -12 -20 -19t-26.5 -12.5 t-20.5 -7.5l-76 -26z" />
<glyph unicode="2" horiz-adv-x="948" d="M51 -72q13 65 36.5 121.5t65 100t91.5 43.5q17 0 35.5 -4t41 -12t37.5 -14.5t41.5 -19t36.5 -16.5l25 37l22 33l6 22l140 209l162 395q-5 3 -5 37v39q0 56 -28.5 93.5t-77.5 37.5l-100 -8q-92 -35 -131.5 -72t-59.5 -106l-31 -6q-43 12 -43 28l66 117l211 131q4 0 6.5 -2 t7.5 -2q26 0 88 15.5t76 15.5q46 0 84.5 -36t38.5 -95q0 -70 -23 -187q0 -18 -35 -112.5t-61 -118.5l-55 -148q-24 -50 -64 -97t-72 -83t-42 -67l-74 -80q6 -5 9.5 -11t5.5 -12l1 -6l17 -2q91 -45 159 -91.5t138 -115.5l69 -63l105 -9l-78 -69q-47 -37 -82 -37h-6l-404 287 q-32 -13 -85.5 -62t-101.5 -89t-77 -40q-43 0 -64.5 39.5t-21.5 91.5zM147 -31l17 -63h12q102 14 154 102q-71 49 -144 49q-26 0 -28 -4z" />
<glyph unicode="3" horiz-adv-x="915" d="M41 -72q38 68 96 80l82 -8q50 -9 53 -39l-20 -33q0 -16 25.5 -27.5t52.5 -11.5q40 0 88 25l33 -4q88 35 154.5 120t66.5 187q0 50 -27 109q-24 24 -72.5 44.5t-83 34t-34.5 23.5q18 42 114 113q162 112 162 256q0 61 -80 61q-41 -3 -108 -33l-94 -47l-33 -47v-33l-33 -26 l-59 6v20q2 19 45.5 74.5t81.5 79.5l96 59q16 10 31.5 17.5t30.5 13.5t27 10.5t26 7.5t23 4.5t21.5 3t17.5 2t16 1t12 0.5q44 0 61 -12t25 -31.5t22 -28.5q-1 -58 -9.5 -90t-37.5 -74.5t-98 -120.5l-101 -114l144 -111q22 -31 22 -80l-2 -78q-1 -1 -24.5 -55.5t-38.5 -69.5 l-27 -20l-35 -57q-171 -214 -417 -242l-115 55l-68 52z" />
<glyph unicode="4" horiz-adv-x="837" d="M143 418l121 227l21 17q5 5 9.5 17.5t14 44t15.5 50.5q11 31 33.5 71t34 76t11.5 89v14q20 24 35 117t31 112l68 41l12 -12q0 -150 -49 -225l-138 -395l-38 -89q102 45 186 45q37 0 39 -4q15 5 26 21.5t20 38t11 24.5q79 154 127.5 206t130.5 81q15 -11 15 -14l-113 -142 l-115 -202l221 -74q13 -21 13 -31l-80 -67l-219 32q0 -19 -37 -71l-80 -178q-32 -71 -46.5 -128.5t-14.5 -127.5q0 -53 8 -76l33 -66h-31l-29 -39h-12q-33 31 -44 79t-11 120q3 26 20 29l20 174q5 7 38.5 76.5t64.5 134.5t31 63q0 9 -6.5 16.5t-16.5 8.5q-161 0 -309 -92 h-17z" />
<glyph unicode="5" horiz-adv-x="753" d="M53 129l111 80q3 -11 35 -21q16 -43 47.5 -73.5t65.5 -43.5t55.5 -17.5t33.5 -4.5q27 0 48 12l26 52q84 187 84 356l-6 88q-14 19 -31.5 47.5t-27.5 42.5t-28.5 31.5t-45 27.5t-64.5 17q-29 5 -70 13q-71 15 -73 20v20q12 12 69 131.5t76 143.5l234 147q10 12 20 27 q2 -2 21 -2q23 0 82 32q8 2 83.5 38t163 69t140.5 33q6 0 12 -9q-63 -53 -228.5 -125t-289.5 -116l-100 -62h-13l-69 -90q-8 -16 -17 -16q-59 -78 -59 -115q4 -4 6 -16h18q24 0 60.5 -9.5t83 -30t94 -60.5t80.5 -93q0 -23 6 -90t6 -84q0 -55 -12 -82v-47q0 -29 -24 -70.5 t-115 -166.5l-6 -23q-105 -127 -238 -127q-6 4 -33 4l-8 10l-72 31q-20 29 -24 29z" />
<glyph unicode="6" horiz-adv-x="608" d="M158 270q0 99 12 144l55 237l144 299q3 19 14 25l80 115l182 321q27 27 43 27h6v-13q-10 -26 -28 -59t-36 -62.5t-22 -37.5q-21 -66 -53 -136q-106 -216 -128 -247q-2 -2 -4 -8q-4 -13 -9 -29q-21 -57 -41 -97t-31 -72t-27 -108q-12 -58 -25.5 -104t-18.5 -66.5t-5 -44.5 q0 -48 29 -88q47 58 109.5 91.5t130.5 33.5q32 -5 48.5 -51.5t16.5 -99.5q0 -106 -71.5 -174t-206.5 -68l-86 37q-78 78 -78 235zM348 137l94 -51l93 39l-3 131q0 1 -7.5 10t-9.5 11.5t-9.5 9t-12.5 9t-13 5t-17 2.5q-21 0 -42.5 -13t-70.5 -59z" />
<glyph unicode="7" horiz-adv-x="790" d="M242 1313l100 55l33 -16l33 -58q56 -39 131 -39q86 0 186 39q12 0 103.5 35t117.5 35q12 -24 12 -29q0 -7 -12 -10l-90 -119l-20 -12l-19 -33q-3 -6 -31 -80.5t-51 -97.5q-19 -64 -53 -153.5t-56 -150.5t-22 -87l236 37q-14 -17 -73 -39t-121.5 -47t-82.5 -47 q-73 -166 -103.5 -253.5t-38 -142.5t-7.5 -151v-66q0 -17 -6 -47l-54 -35h-12q-14 0 -20.5 36t-6.5 77q0 93 37 211q91 305 94 338q-14 0 -66 -11.5t-65 -11.5q-41 0 -49 35l49 51l177 49l71 216q88 239 108.5 286t86.5 156l-332 -78q-56 0 -78 12z" />
<glyph unicode="8" horiz-adv-x="872" d="M236 213q0 116 15.5 204t65.5 163l119 159q-23 9 -39 56t-22 111t-8 101t-2 62q0 75 18 145q11 0 22 18t20 39t11 23q79 70 146.5 101.5t144.5 31.5q59 0 94 -59t35 -123l-43 -125q-3 0 -16 -6t-19 -6q-12 0 -14 12q0 19 4 68t4 51q0 32 -12.5 55t-27.5 33.5t-36.5 17 t-30.5 7t-18 0.5q-26 0 -48.5 -18t-40 -52t-28 -61t-22.5 -66q0 -120 11.5 -195t47.5 -131q13 0 26 5.5t15 9.5q91 85 179.5 134t201.5 73l2 -13q-41 -41 -102 -61l-170 -105q-100 -62 -133 -127l106 -348q6 -24 6 -28q0 -130 -32.5 -223.5t-106.5 -186.5l-215 -80l-68 62 q-40 139 -40 272zM344 250l6 -66q0 -34 16.5 -90t16.5 -59l92 -66q34 28 69.5 103t35.5 157q0 16 -6.5 74.5t-6.5 77.5l-92 246l-74 -74q-7 -28 -17 -66t-13.5 -52t-9.5 -38.5t-7.5 -31t-4.5 -23.5t-3 -21.5t-1 -20t-1 -23v-27.5z" />
<glyph unicode="9" horiz-adv-x="798" d="M250 -225q0 95 153 454l144 338q34 28 59.5 102t55.5 224l-238 -102q-9 2 -27 5t-26.5 5t-20.5 6.5t-19.5 12t-13.5 18.5q-38 63 -38 141q0 52 25 116t67 121.5t105 96.5t130 39q40 0 92 -27l35 -49q0 -1 9.5 -40.5t9.5 -66.5q0 -4 -2 -11t-2 -11l-29 -90 q-11 -28 -45 -45l-152 -113l21 -6l151 63q15 27 31 27l98 41q3 -3 5.5 -8.5t3.5 -8.5t2 -3q-6 -14 -16 -40t-27 -69.5t-33 -83.5l-47 -123q-7 -46 -33 -102q-28 -62 -51.5 -109.5t-38 -78.5t-35.5 -83l-117 -262q-13 -39 -30 -80.5t-24 -59.5t-12 -50t-5 -76 q-51 -45 -76 -45q-17 0 -28 11.5t-11 21.5zM401 985l41 -92l31 39q76 43 113.5 85.5t46.5 98.5q0 33 -5.5 61.5t-23.5 52t-45 23.5q-42 0 -86 -86q-8 -8 -72 -182z" />
<glyph unicode=":" horiz-adv-x="651" d="M125 -2q0 39 87.5 94t176.5 55q55 0 55 -20q0 -23 -40 -66t-96 -77.5t-95 -34.5h-61q-24 10 -27 49zM262 573q0 31 14 57t35 42t49.5 28t53 17.5t51 9t38.5 4t19 0.5q68 0 101 -33q-44 -64 -122.5 -107.5t-146.5 -43.5l-90 6q-2 2 -2 20z" />
<glyph unicode=";" horiz-adv-x="567" d="M72 -354q0 18 5 25t15 9.5t37.5 15t60.5 34.5q18 -27 46 -27q36 0 53.5 26t16.5 52l-1 26v17q0 36 -19 80t-38.5 74t-60 84t-54.5 75q9 25 55 45.5t82 20.5q6 -2 36 -29t48 -35q121 -90 121 -213q0 -49 -22 -92t-56.5 -74t-86.5 -59t-100.5 -47t-109.5 -37q-28 0 -28 29z M315 618q0 33 33 62l76 45q27 16 59 16q15 0 25.5 -5.5t14 -11t3.5 -9.5l-32 -49l-125 -52q-2 -11 -7 -26t-6 -21l-32 29q-9 9 -9 22z" />
<glyph unicode="&#x3c;" horiz-adv-x="866" d="M117 240q22 54 254 292q26 26 124.5 132t163 163.5t101.5 61.5q-6 -28 -48 -78.5t-83 -93t-43 -49.5q0 -1 -71 -78t-145 -159t-79 -93q7 -25 24 -42.5t35 -26t52 -23.5t59 -29l74 -45q20 -39 20 -47q0 -15 -35 -50.5t-71 -35.5q-26 39 -111 82l-219 110z" />
<glyph unicode="=" horiz-adv-x="985" d="M147 190q7 13 13.5 22.5t17 19.5t16.5 15t23.5 19t28.5 23q49 0 252.5 30.5t234.5 30.5q77 0 144 -18v-10q0 -21 -7 -32t-41 -44l-65 4q-52 1 -277 -40.5t-264 -39.5q-65 5 -76 20zM250 455q0 18 39 65l49 53q43 0 177.5 7.5t135.5 7.5q105 0 176 -10.5t144 -36.5 q-26 -58 -56 -84q-73 0 -227 -3.5t-279 -7.5t-126 -4q-33 0 -33 13z" />
<glyph unicode="&#x3e;" horiz-adv-x="985" d="M236 -47l112 151q28 41 115 76l219 86q13 8 26 33.5t13 48.5q0 46 -79 142t-163 174.5t-121 101.5l50 41q50 43 92 43q40 0 80 -21q133 -71 141 -71q46 -24 109 -158t63 -197q-45 -76 -171.5 -179t-265.5 -181.5t-220 -89.5z" />
<glyph unicode="?" horiz-adv-x="741" d="M236 586q0 113 260 260q268 150 282 164q160 133 222.5 207t62.5 141q0 65 -78 96l-80 4q-113 0 -218.5 -21.5t-250.5 -70.5l-33 -66l19 -153l-27 -17q-7 4 -17.5 11t-14.5 9.5t-11 7.5t-9.5 7t-7 6t-6 7l-3.5 7t-4 9l-7 66q0 65 73 121t181.5 89.5t222 52.5t205.5 19h31 l86 -4q42 -10 68 -68v-32q0 -92 -49.5 -161.5t-206.5 -195.5q-66 -66 -334 -217q-103 -56 -159 -103t-56 -102q0 -19 33.5 -91.5t33.5 -100.5t-31.5 -49.5t-59.5 -29t-38 -7.5q-50 69 -64.5 108.5t-14.5 96.5zM266 -33q0 47 59 89t130 42q29 0 39 -10q-15 -17 -34 -32.5 t-46 -31.5t-43.5 -25t-52.5 -27l-46 -23q-6 12 -6 18z" />
<glyph unicode="@" horiz-adv-x="1605" d="M158 236q0 113 50.5 236t138 238t199 220.5t240.5 197.5q177 66 293.5 96.5t208.5 30.5q160 0 273.5 -99t113.5 -245q-35 -132 -127 -242t-274 -239q-26 0 -54 11t-46 23t-37.5 27t-22.5 17q-6 0 -45 -31t-86 -62.5t-72 -31.5q-17 0 -45 14q26 98 66 146q241 286 373 286 q28 0 28 -24q0 -21 -18 -51q-49 -91 -49 -101q0 -45 26 -74.5t72 -29.5q201 90 201 360q0 70 -56 135q-77 73 -124.5 104t-86.5 39.5t-112 8.5q-234 0 -459 -129q-151 -161 -238 -262.5t-151 -198.5q-68 -185 -68 -307q0 -71 15.5 -127.5t52 -105.5t94 -82t145.5 -51.5 t203 -18.5q234 59 339 111t196 151q8 49 62.5 135t86.5 86q12 0 23 -8l-17 -104l-59 -19q-51 -92 -151 -181.5t-203 -123.5q-17 -1 -37 -15.5t-30.5 -27t-12.5 -16.5q-177 -64 -248.5 -82.5t-148.5 -18.5q-88 0 -281 101q-1 3 -4 11t-4 11t-4 9.5t-5 9.5t-6 8.5t-7.5 7.5 t-9 5.5t-11 5t-13 2.5t-16.5 1q-61 131 -61 263zM989 504q0 -17 19 -17t45.5 17.5t42.5 38.5q40 80 116 162q-99 -30 -131 -50t-51 -67q-41 -59 -41 -84z" />
<glyph unicode="A" horiz-adv-x="1181" d="M84 59l207 430q-55 20 -67 36q-7 10 -7 22q0 74 55 86l70 -12q15 0 23 8l208 313l35 27l189 311q30 51 118 127q0 22 168 190q6 0 11 3l4 2q6 0 7.5 -2.5t2.5 -2.5l27 -98l6 -86q0 -43 -27 -82l-47 -301q-35 -102 -57 -213q0 -13 20 -24l137 51l273 168h26v-4 q-6 -12 -6 -23l-178 -147l-311 -191q-10 -34 -31.5 -90.5t-31 -98t-9.5 -96.5q-17 -36 -38.5 -163t-48.5 -251t-58 -165q-6 0 -15 20q0 45 25 189l27 160q15 58 46.5 159.5t52 178.5t25.5 133q-27 10 -45 10q-36 0 -142 -53.5t-114 -53.5q-115 -43 -256 -43l-94 -213 q12 -20 21 -20l-19 -27q-6 -9 -30 -34.5t-44.5 -54.5t-31.5 -62q-17 -47 -49 -47q-21 9 -27 34zM467 633q2 -4 16 -4l162 24l297 92q109 311 109 709l-101 -90q-5 -11 -64.5 -86.5t-68.5 -103.5q-21 -21 -60 -81.5t-42 -62.5q-35 -50 -37 -78l-162 -221z" />
<glyph unicode="B" horiz-adv-x="942" d="M106 -51q0 39 13 78t33 59h41l133 436l23 44q23 45 31.5 64t25 57t23.5 65.5t7 48.5q-2 29 -2 63t37 93t37 92q0 1 -1 5t-2.5 12t-2.5 17q4 6 11 17t9 14.5t7 10.5t7.5 9.5t7 6t9.5 6.5q2 -4 22 -10l130 231q4 26 19 63.5t31.5 71t18.5 41.5v-6q3 0 20.5 43.5t40 96 t62.5 96t82 43.5q22 0 25 -17l6 -110v-9q0 -42 -16 -122q-18 -89 -52 -152q-55 -89 -86 -155t-33 -85l-227 -274q80 -29 139.5 -104.5t87 -166t27.5 -182.5q0 -60 -27.5 -150.5t-77.5 -162.5l-100 -147q-69 -88 -158 -117l-215 -27q-11 3 -31 8q-81 23 -98 35q-15 13 -33 58 q0 2 -2 6q-1 4 -2 6zM193 -31l96 -28q2 -2 33 -2q19 0 97.5 15t80.5 15q29 9 58.5 29.5t44 34.5t46.5 50t39 44l53 129q30 69 37 94.5t8 79.5q0 91 -33 170.5t-100 131.5t-153 52l-250 -749q-6 -4 -27 -5t-26 -5zM612 1012l11 12q4 8 44 47.5t91 101.5t80 125l110 234 q15 58 15 86q0 56 -25 92q-23 0 -44.5 -21.5t-42 -61.5t-36.5 -79.5t-37.5 -93.5t-36.5 -86l-112 -272z" />
<glyph unicode="C" horiz-adv-x="1116" d="M160 240q0 97 30 168q33 85 53.5 133t42.5 97.5t38 86.5l67 164q16 2 49 31l62 90q24 24 139.5 157.5t187.5 190.5q6 3 91.5 56.5t115.5 64.5l119 -2l51 -33q43 -55 43 -139q0 -98 -47 -185q-28 0 -28 8l-7 213l-90 52q-40 0 -148.5 -54.5t-117.5 -56.5l-362 -426 l-211 -412l-9 -75q0 -156 95.5 -229.5t263.5 -73.5q50 0 131 12l147 53q34 12 82 41.5t82.5 51t46.5 20.5l-39 -92q-92 -96 -230.5 -152.5t-287.5 -56.5l-59 4q-127 6 -214 87.5t-87 205.5z" />
<glyph unicode="D" horiz-adv-x="950" d="M92 29q0 30 7.5 57t31.5 78l66 8l-58 -104q34 -56 185 -74q142 21 256.5 103.5t238.5 258.5q17 0 41.5 150t24.5 221q0 46 -4.5 100t-13 123t-11.5 105l-55 133q-10 27 -34.5 72.5t-25.5 48.5q-33 0 -36 -17q2 -10 2 -32q-45 -74 -101.5 -242.5t-85 -276t-39.5 -155.5 l-37 -70q-5 -9 -14 -26.5t-14 -27t-13 -24.5t-13 -23t-12 -19t-12.5 -17t-12 -12t-12 -8.5t-11.5 -2.5l127 414l80 209l24 6l66 197q65 201 65 204q0 16 -72 111.5t-85 132.5q-3 3 -26.5 25t-29 27.5t-25.5 25t-27 28t-21.5 26t-21 29.5t-14.5 27.5t-12 30.5l-43 99 q9 51 29 51l217 -297q33 -17 53 -45l45 -72q3 -13 46 -66.5t43 -78.5l131 -246l-7 -12l33 -84q31 -146 31 -234q0 -71 -12 -106q2 -4 2 -43q-1 -6 -1.5 -39t-1.5 -61.5t-3 -28.5q-10 -17 -28 -127t-36 -133q-22 -91 -82 -146l-119 -114l-32 -13q-24 -47 -72 -80.5t-99 -47 t-82 -18.5t-46 -5q-53 0 -104.5 13t-89.5 43.5t-38 70.5z" />
<glyph unicode="E" horiz-adv-x="892" d="M190 190q0 21 6.5 53.5t16.5 71.5t12 47l33 56l160 352q9 19 38 53t31 70q0 29 -39.5 130t-39.5 124q0 76 11.5 118t27.5 58.5t55 41.5q9 6 14 9q118 55 221 84t166 29q111 0 192 -12.5t81 -36.5q0 -22 -21 -31l-131 -8q-115 -8 -215 -24.5t-184 -42t-132.5 -64.5 t-48.5 -86q0 -35 10 -80t19.5 -76.5t9.5 -34.5l45 -35l127 152q4 -4 4 -12q0 -10 -12 -25v-37l-110 -162l-88 -153q14 -14 24 -14l275 32l-7 -75q-129 -76 -364 -76q-48 -81 -74.5 -145t-26.5 -126q0 -54 20.5 -95t49.5 -63.5t67.5 -36.5t67.5 -18t56 -4q82 0 254 41 q-50 -85 -103 -120.5t-141 -57.5q-60 0 -120.5 13t-114.5 39.5t-88 72t-34 104.5z" />
<glyph unicode="F" horiz-adv-x="985" d="M217 -12q0 12 24 123.5t64 236.5t72 141l364 738l52 61q54 66 127 95.5t129 29.5q67 0 117.5 -35t50.5 -102q0 -4 -1.5 -10t-1.5 -11h-53q-136 50 -190 50q-66 0 -158 -117l-108 -180q-70 -113 -82 -203l10 -84l385 33q4 -2 4 -15q0 -18 -12 -39l-478 -108l-268 -604 q-3 -5 -7 -16t-8.5 -19t-10.5 -12q-21 12 -21 47z" />
<glyph unicode="G" horiz-adv-x="976" d="M207 244q0 63 35.5 164.5t89.5 203.5l155 281q73 174 158 223l156 86l69 47q42 25 74 25q18 -3 41 -35l6 -104q0 -34 -16 -74l-31 115l-26 6q-38 -1 -100.5 -36.5t-123.5 -88.5l-71 -60q-46 -52 -121 -147l-191 -367q-26 -70 -26 -145q0 -105 46.5 -178.5t131.5 -73.5 q34 0 74 41t108 149q-17 41 -46.5 80t-90.5 101l24 86l226 26l243 66l-12 -55q-55 -65 -151 -93l-166 -53q10 -34 10 -119q0 -84 -23 -149.5t-55.5 -101t-73 -58.5t-70 -30t-52.5 -7l-132 82q-69 123 -69 193z" />
<glyph unicode="H" horiz-adv-x="970" d="M143 0v-2q2 0 24.5 68t66.5 179.5t92 194.5l22 43q5 25 15 53t18 45t25.5 51.5t23.5 47.5l53 151q22 61 48.5 163t45 147t44.5 45v-43q0 -43 -19 -56l-92 -258q-33 -94 -33 -157q15 -13 66 -25l51 -12l92 -8h15q33 0 47 0.5t33.5 6.5t28 16t23.5 33.5t26 53t30 80.5 l53 127q27 67 56.5 132t54 113t43.5 84t32.5 60t14.5 25t39 64t59 75q4 -5 7 -15.5t5 -11.5l-182 -368q-3 -6 -27 -15l-147 -425l111 18q-17 -42 -17 -45l-162 -80q-21 -30 -32 -59l-37 -86q-2 -9 -14 -54t-41.5 -143t-65.5 -205q-1 -3 -13 -13t-22 -23.5t-10 -28.5l-6 -4 l-6 94l182 504q-111 -15 -170 -15q-104 0 -172 21l-72 -140q-33 -65 -52 -105.5t-31.5 -67t-17 -47.5t-6 -30t-2 -34t-1.5 -41l122 112h23q0 -65 -68 -106l-2 -25l-75 -47q-62 -45 -82 -45q-15 0 -15 33z" />
<glyph unicode="I" horiz-adv-x="499" d="M190 45q0 136 76 317l137 318q25 25 62 119.5t45 103.5q31 52 63 184l66 140l86 98l61 21q-26 -85 -67 -134l-96 -116l-347 -830q-2 -28 -4 -81t-4.5 -75.5t-7.5 -56t-14 -56t-23 -42.5z" />
<glyph unicode="J" horiz-adv-x="665" d="M-737 -535l90 84h94l6 -12l-14 -80q79 -39 211 -39q73 0 117 4.5t92.5 20t89.5 49t89 86.5t109 137l353 1026l20 17l103 356l10 94q-17 0 -125 -11t-119 -11q-59 0 -92 16l2 15l49 65q13 10 29 10q14 0 31 -10q27 2 89 5.5t86 6t58.5 10.5t56.5 21l154 260l27 -72 l-56 -53q-8 -12 -57 -102q-2 -13 8 -33l205 23l-35 -66l-192 -53l-21 -21q-24 -20 -61 -135t-49 -135q-1 -6 -25 -69t-51.5 -148t-36.5 -141q-10 -14 -49.5 -122t-61.5 -134q-1 -4 -1 -12t-1 -13q-10 -61 -37 -117.5t-32 -81.5q-1 -8 -2.5 -37t-3 -54t-3.5 -36 q-13 -64 -67 -166l-96 -169q-25 -49 -48 -74.5t-59 -46.5q-59 -87 -156.5 -132.5t-273.5 -72.5q-110 0 -176.5 15.5t-105.5 47t-72 90.5z" />
<glyph unicode="K" horiz-adv-x="1103" d="M158 -2l67 319l31 27q11 92 43 248.5t59 200.5l37 133q3 11 15.5 56.5t24.5 85.5t29 96t33 100t33.5 84.5t34.5 63t31 22.5q10 0 16 -9l-313 -1077l23 -24l296 456q89 159 166.5 274t118 160t77.5 81t44 46q35 47 70.5 71t91.5 48q8 0 44.5 -28t37.5 -37l-19 -62 q-104 -11 -222 -128.5t-290 -385.5q-1 -39 -1 -73q0 -62 4 -104q6 -66 13 -87t21 -47t21 -49l24 -195q64 -118 121 -172.5t143 -64.5l-14 -45l-162 -17q-43 12 -73.5 36.5t-51 64.5t-31.5 73t-26 90v29q-8 85 -25 194t-30 261l-29 -17q-70 -83 -119 -192q-46 -99 -101 -194 t-94.5 -155t-41.5 -63q-17 -56 -78 -94h-49z" />
<glyph unicode="L" horiz-adv-x="866" d="M51 -8l35 86l8 6l205 424q89 207 109 264q20 60 49.5 173.5t52 163.5t57.5 60l-65 -227q0 -25 -70 -212t-74 -210l-165 -315l-41 -111q7 -7 28 -10q74 0 199.5 31.5t179.5 31.5l64 -4l200 -32v-17q0 -1 -1 -5t-2.5 -10.5t-2.5 -12.5l-104 -72l-66 -12q-9 5 -19.5 10 t-19.5 8.5t-23.5 6.5t-23 5t-25.5 4t-24.5 3t-27 2t-24.5 1.5t-26 1.5t-24 1q-13 -4 -316 -66q-34 15 -43 33z" />
<glyph unicode="M" horiz-adv-x="1439" d="M184 -6l27 153l18 29l66 475v76l-12 51l39 56v-216h20q6 11 17 58.5t16 56.5q49 129 102 258l78 129q7 2 13.5 5.5t13 10.5t11.5 12t11.5 14.5t9.5 14t8.5 14.5t6.5 11l45 25l63 49q29 -39 29 -119q0 -15 -3 -76.5t-3 -79.5l-74 -360l14 -12q65 25 138 90l127 115 l270 264q41 41 135.5 131t142.5 139q5 -5 5 -55q0 -32 -13 -139q-50 -233 -141 -599q-43 -91 -84 -239l-63 -223q-6 -22 -14 -72.5t-13 -75.5l-23 -110l-32 -39l-37 -25l-8 88q0 27 22.5 160.5t22.5 144.5l231 594q9 26 20 78t19.5 100t24 134t24.5 137q0 14 -14 14 l-254 -250q-39 -23 -123 -111t-86 -89q-1 -1 -19.5 -21t-41 -43t-54.5 -54.5t-64.5 -59t-65 -52t-62.5 -39t-52 -14.5q-28 0 -43 18q7 61 59 251.5t52 260.5q0 76 -20 117q-11 -3 -30 -20.5t-35.5 -36.5t-31.5 -37t-16 -19l-12 -38l-37 -13l-162 -416q0 -58 -19.5 -149.5 t-39 -162.5t-19.5 -79l-59 -202z" />
<glyph unicode="N" horiz-adv-x="1140" d="M-74 -377l88 266l33 39l328 758q45 0 79.5 208.5t34.5 307.5q13 6 23.5 37.5t24.5 62.5t36 37l66 -100q0 -4 6 -4q15 0 21 4q-19 -49 -19 -78q0 -3 7.5 -44.5t15.5 -98.5t8 -98l127 -650q13 -30 25.5 -48t22.5 -27t13 -15l113 217l156 523q34 99 65 266 q62 158 90.5 208.5t75.5 69.5q-8 -50 -53 -133q-45 -82 -70.5 -141.5t-33.5 -87t-20 -88t-22 -99.5l-59 -217q-30 -53 -51 -118.5t-32 -109.5t-21 -54l-62 -250l-24 -33l-62 -147l-49 -11l-86 183v26l-62 232l7 28q-12 34 -23.5 101t-20 133.5t-19.5 129.5t-27.5 102.5 t-38.5 39.5q0 -1 -15 -51t-31 -101.5t-46 -135t-62 -160.5q-10 -13 -23 -51t-38 -103t-58 -129l-125 -299l-26 -6l-60 -133l-94 -176l-18 -2z" />
<glyph unicode="O" horiz-adv-x="870" d="M217 250q0 130 92 421l23 66l117 160q15 22 32 68q-1 0 -1 1q0 6 29 58q33 60 82.5 125.5t82.5 77.5l-29 -219q-8 1 -23.5 17.5t-21.5 16.5l-158 -272q-2 -4 -16.5 -23.5t-25.5 -39t-11 -33.5l-39 -60v-26l-39 -51l-2 -371l125 -88q104 0 174 53q3 3 28.5 41.5t77 110 t105.5 139.5q39 50 70 160.5t31 195.5q0 229 -140 471l-65 156l22 59l129 -192q57 -162 75.5 -218t33 -124t14.5 -133q0 -87 -27.5 -180.5t-46.5 -127.5l-81 -139q-62 -99 -113 -125l-66 -119q-16 -11 -61 -43.5t-69.5 -48.5t-62 -31.5t-67.5 -15.5q-98 41 -138 110.5 t-40 172.5z" />
<glyph unicode="P" horiz-adv-x="796" d="M147 -12l76 243q44 149 88 252l64 342q11 11 21.5 31.5t16.5 37.5t15.5 29.5t20.5 12.5q6 0 8 -4v-39q0 -18 12 -27l92 176l250 416l100 111l156 53q34 -9 55 -61t20 -115q0 -56 -16 -164l-129 -240q-51 -98 -86 -139l-14 -10l-20 -49l-172 -164l-84 -53l-138 -47 q-1 5 -3.5 14.5t-2.5 13.5l49 64q143 65 285 172l119 145q8 19 8 33q29 19 75 124.5t54 113.5q-2 28 -4.5 81t-5 75t-13.5 49.5t-32 43.5h-11q-51 -13 -95.5 -43.5t-88 -84.5t-77.5 -106t-85 -140l-186 -365l-61 -152q-29 -63 -50 -157q-11 -15 -45 -131.5t-51 -145.5 l-24 -143q-10 -62 -58 -125l-33 12v60z" />
<glyph unicode="Q" horiz-adv-x="1294" d="M164 61q0 36 2 60t4 36t12 56t17 78l18 12l59 197l68 127l18 59l62 84q0 8 -5 59t-5 70q108 384 438 639l219 80q5 -5 16.5 -10.5t29 -12t26.5 -10.5q97 -46 143 -192l47 -160l8 -164q-5 -100 -20.5 -185t-54.5 -218l-43 -144q-13 -16 -44.5 -86.5t-35.5 -73.5l-207 -274 q-31 -22 -31 -74q0 -25 5 -66t26.5 -104t54.5 -96q18 14 27 14q14 0 18 -14q-18 -21 -33.5 -46.5t-22.5 -36.5t-23.5 -19t-45.5 -8l-14 4q-68 47 -68 139q-4 6 -18.5 93.5t-38.5 100.5q-140 -104 -330 -159h-71q-207 0 -207 245zM262 125q0 -125 160 -193q120 26 201 61 t143 93q0 60 -16.5 119t-51.5 119t-65.5 104.5t-82 112.5t-77.5 106l-16 19q-44 -7 -85.5 -98.5t-41.5 -131.5q-40 -60 -54 -134.5t-14 -176.5zM535 948q2 -4 8 -4q9 0 79 75q5 6 5 5l28 14q19 0 19 -26q0 -39 -14.5 -87.5t-30 -78.5t-21.5 -35q-12 0 -20 3t-11 6t-8.5 10 t-7.5 10l-12 -11l33 -59q22 -50 59 -96.5t70 -77t69.5 -80.5t57.5 -108q3 -17 18 -79t29 -117l14 -54h12q61 41 99 93.5t78.5 124.5t85.5 126q16 53 58 247t42 273l-8 106q0 91 -33 185v12q0 54 -70 120t-133 66q-60 0 -128.5 -32.5t-124.5 -80t-99.5 -96.5t-63.5 -88 l-59 -98z" />
<glyph unicode="R" horiz-adv-x="892" d="M100 -90q0 115 52 260q134 378 143 424l127 229l51 125q9 23 36 63t34 56l59 115l19 20q6 3 67 57.5t134.5 110t119.5 70.5q55 -46 55 -199q-18 -9 -23 -20.5t-9.5 -41.5t-12.5 -57q-51 -183 -73 -240q-61 -153 -179 -261l-100 -93l68 -145q22 -81 57 -127 q41 -147 64 -195q22 -47 49 -69l-31 -51q-11 -24 -35 -31q-25 0 -41.5 11t-38.5 38l-209 516l-34 25l-7 22l80 107h21l16 -21q157 48 261 212t104 382q0 82 -21 123q-32 -2 -81 -29.5t-82 -53.5t-33 -28l-105 -98l-27 -74l-32 -18l-94 -195l-19 -24q0 -5 -38.5 -89.5 t-77 -188.5t-38.5 -156l119 225l19 16l63 193q2 5 7.5 8.5t13.5 6t10 3.5l39 119l41 29q5 0 8 -7t4 -8l-51 -133l-14 -6l-191 -428q-37 -81 -72 -186l-61 -205l-78 -119q-33 7 -33 31z" />
<glyph unicode="S" horiz-adv-x="614" d="M-39 -68q28 85 100 109q3 -14 16 -29.5t24.5 -25t30 -22.5t20.5 -15q57 0 101.5 5.5t88.5 20.5t68 46.5t24 78.5q0 62 -24 192.5t-25 141.5l6 21q-3 15 -22 51t-19 61q0 113 27 193q35 102 121 223t141 121q49 0 49 -66v-14h19q18 -21 18 -53q0 -65 -51 -119l-39 -14 q4 20 4 39l-25 67q-18 41 -55 41q-32 0 -58.5 -32.5t-41 -78t-22 -86.5t-7.5 -67q0 -49 6 -74q-3 0 -14 -20q7 -49 53.5 -176t46.5 -211q0 -62 -20 -124t-60 -104l-139 -118l-190 -58l-25 4l-23 11q-23 11 -43.5 22.5t-40 28.5t-20.5 30z" />
<glyph unicode="T" horiz-adv-x="679" d="M205 59q0 36 23 101.5t66 164t48 109.5l246 590q23 32 30 57l103 119l59 39l6 -27q-50 -70 -180 -260l-123 -329l-39 -148q-36 0 -72.5 -85t-55.5 -168.5t-19 -108.5v-14v-12t0.5 -9t1 -10t2 -10.5t3.5 -14.5t5 -18l-69 -60l-23 21q-12 17 -12 73zM391 1288q3 20 7.5 32 t11 21t21 13t30.5 6.5t47.5 3t64 1t88 2.5t111.5 5q45 0 224.5 30t199.5 32q-1 -7 -4.5 -14t-7 -10t-4.5 -3l-27 -29q-1 0 -46.5 -17t-96.5 -33.5t-131 -31t-152 -14.5q-48 0 -132.5 -7t-127.5 -7q-69 0 -76 20z" />
<glyph unicode="U" horiz-adv-x="839" d="M158 180q0 53 24 169t62 188l125 237l80 103l94 98q19 24 28.5 35.5t29 25.5t40.5 19l6 -11l-203 -274l-96 -156v-20l-69 -213q-11 -7 -13.5 -36.5t-7.5 -39.5q12 -102 14 -112q27 -107 162 -107q90 0 174.5 83t143.5 206q9 39 63.5 177.5t54.5 186.5q23 36 38.5 83.5 t21.5 79t21 54.5t40 23q10 0 10 -4l-30 -174l-62 -213q-27 -50 -75 -140q-54 -103 -80 -149.5t-70 -113.5t-77 -94.5t-83.5 -59t-109 -41.5t-135.5 -10l-35 14l-54 59q-14 19 -23 56t-9 71z" />
<glyph unicode="V" horiz-adv-x="839" d="M348 1030q7 41 30 68.5t44 27.5q66 -233 78 -860l16 -2l53 111l93 162l63 125l98 124q18 42 54 91l65 92q0 1 65.5 63t73.5 88l41 41l78 39q8 -5 8 -12l-172 -193l-51 -32l-272 -426q-7 -19 -58 -123l-61 -129q-49 -143 -79 -206.5t-71 -98.5l-8 -5q-17 55 -20 218 l-8 307q-10 126 -22 273q-8 113 -12 142.5t-19 87.5q-4 17 -7 27z" />
<glyph unicode="W" horiz-adv-x="1208" d="M164 111q0 144 31 270.5t135 392.5l94 150q40 35 57.5 47t32.5 12v-20l-111 -203q0 3 -20.5 -41t-42.5 -101.5t-25 -85.5l-77 -346l6 -59q13 -22 47 -47l104 57q10 3 20.5 9t23.5 18t22 20.5t26.5 26.5t26.5 27l158 213q13 0 16 -21l4 -303q69 -66 115 -66q14 0 31 4.5 t30.5 9t36 15.5t32 16.5t35 20t29.5 16.5q8 26 22.5 108.5t20.5 106.5q0 197 -28 375q0 215 -51 350q32 61 84 93q13 -12 25 -54.5t16 -50.5q0 -54 36.5 -300t36.5 -294l-8 -127q-9 -12 -20.5 -65t-24.5 -66q-26 -15 -37.5 -28t-28.5 -48q-112 -120 -175.5 -155t-155.5 -35 l-62 33q-14 13 -24.5 33t-16.5 37.5t-11 47.5t-7 46t-5.5 52t-4.5 48l-68 -53q-5 -13 -25 -33l-114 -113l-117 -69q-12 -9 -39 -9q-55 0 -55 138z" />
<glyph unicode="X" horiz-adv-x="839" d="M-20 -508q4 77 26 119l33 59l20 19l289 606q23 81 23 121q0 70 -21 172q-47 216 -47 301q18 63 59 108l56 -290l55 -152l16 -8l11 -37l8 -2l8 12q46 46 116 138.5t123 172.5t104 158.5t52 79.5l111 41l6 -20q0 3 -41 -35.5t-97.5 -102t-88.5 -114.5q-247 -397 -264 -414 l6 -10q129 -180 194 -260q-1 -2 -4 -7t-4.5 -7t-4 -6.5t-4.5 -7t-5.5 -6.5t-6 -6.5t-6.5 -5.5t-8 -5.5t-8 -4.5q-80 0 -145 68l-113 125q-80 -83 -128.5 -174.5t-102.5 -249.5q-2 -4 -35.5 -73t-65 -144.5t-37.5 -116.5l39 -53q-26 -39 -69 -39q-21 0 -23 4l-24 6 q-2 2 -2 41z" />
<glyph unicode="Y" d="M154 -477q0 40 45 141q0 11 30 59.5t85.5 142.5t99.5 185l118 246l95 225l-68 -12q-25 17 -49 57l-49 121l-33 156q-21 89 -21 132q0 7 1 13q0 121 15.5 165.5t63.5 72.5q0 -1 9.5 -130t33.5 -267t64 -195l35 -29q20 4 39.5 25t36.5 57t30 69.5t30 80t28 71.5 q49 116 225 320l63 71q59 41 80 41q6 0 13 -14l-93 -115q-2 -7 -10 -17.5t-24 -30t-29 -36.5l-43 -61q-35 -57 -59 -92.5t-36.5 -51t-39.5 -46.5l-160 -367q-37 -142 -65.5 -219t-67.5 -137q-10 -13 -31 -35t-35 -38t-14 -20q-11 -17 -42 -99t-48 -112l-53 -114 q-32 -72 -46 -114q-12 -39 -12 -72q0 -20 7.5 -27t22.5 -11.5t21 -7.5q-4 -11 -18.5 -21.5t-34 -20.5t-26.5 -15q-9 9 -32 13.5t-37.5 16.5t-14.5 46z" />
<glyph unicode="Z" horiz-adv-x="1021" d="M-74 -98q0 27 35 39l123 202q90 67 233 233t256 322l82 80l66 101l104 125q36 41 93 126q3 10 35 58.5t32 71.5l-330 -58q-10 5 -10 39l10 12q38 62 158 80q76 11 129 20t69 13t31 6t35 2q12 0 27 -6q0 -103 -74 -199l-139 -180q-39 -16 -62 -51l-96 -109l-125 -178 l-67 -76l-150 -194l-248 -238l-77 -96q0 -5 7 -11t7 -7q40 24 98 24q99 45 223 45q94 0 222 -24l141 -27q24 -9 120.5 -19t123.5 -10q-102 -92 -267 -92q-65 0 -305 39q-133 17 -186 17q-186 0 -303 -109l-8 2q-13 10 -13 27z" />
<glyph unicode="[" horiz-adv-x="528" d="M39 -225q0 187 108 475q5 12 214.5 479t252.5 596q-4 4 -45.5 15.5t-77.5 32.5t-36 50q0 21 29 41.5t58 31t54 15.5q148 -48 303 -45l322 7q77 0 204 -19l58 -8q-13 -4 -30 -22.5t-41 -52.5t-34 -46h-637l-385 -963q-123 -306 -153 -468q36 0 194.5 26.5t190.5 26.5 q90 0 143 -31q-96 -66 -137 -66q-10 0 -106.5 -19t-227 -37.5t-221.5 -18.5z" />
<glyph unicode="\" horiz-adv-x="677" d="M6 1393q74 0 98 -9q40 -126 71.5 -222.5t46 -138t14.5 -38.5q106 -280 188 -362q25 -43 84.5 -144t89.5 -154.5t73 -134t70.5 -146.5t44.5 -128l31 -100q-11 -25 -39 -25q-23 0 -55.5 13t-44.5 24q-67 157 -96.5 226t-57 133.5t-45.5 98.5t-28.5 55t-41.5 72.5t-51 86.5 l-168 313q-184 337 -184 580z" />
<glyph unicode="]" horiz-adv-x="845" d="M-127 -160l33 41q45 37 93 55t114 17l157 -6h15q54 0 106 22q36 219 150 453q43 89 129.5 263.5t133.5 272.5t96.5 215.5t68.5 190.5q-110 31 -178 29l-269 -9l-88 7q-20 17 -20 34q0 31 94.5 59.5t136.5 28.5q6 -2 35 -2q15 0 80.5 3.5t124.5 6.5t57 3q137 0 195 -74 q-37 -132 -150.5 -367.5t-209 -409t-95.5 -165.5q-104 -271 -156 -592q-12 -12 -32 -26.5t-32 -21.5t-45 -24.5t-36 -19.5q-55 24 -98 24q-55 0 -158.5 -19t-106.5 -19q-80 0 -145 30z" />
<glyph unicode="^" horiz-adv-x="0" d="M190 641l3 12q19 34 57 58l115 69q144 97 214 179t103 188q82 65 137 65q26 -74 92 -157l217 -236q-6 -24 -28.5 -44.5t-51 -37t-36.5 -24.5q-5 0 -14 -3l-9 -3q-3 0 -28 35q-41 59 -82 116q-2 0 -35.5 32t-75 63.5t-63.5 31.5q-78 -49 -195 -147q-200 -167 -320 -197z " />
<glyph unicode="_" horiz-adv-x="1120" d="M-106 -410q0 32 40 72l338 27q288 6 314 6q273 0 524 -33l-35 -59q-32 -15 -110.5 -24.5t-131.5 -12t-79 -2.5q-13 0 -275.5 -26.5t-380.5 -26.5l-116 6q-8 6 -33 16.5t-40 23.5t-15 33z" />
<glyph unicode="`" horiz-adv-x="555" d="M473 1217q0 25 9 39t34 20q21 -3 21 -23q11 -38 38.5 -73t60.5 -62t66 -55t59.5 -65t35.5 -78q-42 -27 -45 -27q0 8 -11 42t-22 40q-26 16 -74 43t-71 42t-50.5 39.5t-39 52.5t-11.5 65z" />
<glyph unicode="a" horiz-adv-x="899" d="M98 88q0 114 56 260l65 125q9 15 20.5 31t18 23.5t25 27.5t22.5 25q6 19 25 47t53 60.5t74.5 60.5t94 46.5t107.5 18.5q76 0 124 -51.5t48 -122.5q0 -73 -38 -119l-33 -12q-45 -53 -105 -205l-4 -65q0 -34 6.5 -55t20.5 -30t26 -11.5t33 -2.5q19 0 47 7.5t65.5 20.5 t49.5 17q-6 -6 -25 -19.5t-43 -30t-34 -23.5q-2 0 -17 -12.5t-48 -25t-79 -12.5q-3 0 -18.5 3t-28.5 4l-18 24q-25 36 -25 78q4 33 4 61q-4 8 -6 31q-27 -25 -58 -52.5t-46 -41t-33 -33.5t-35 -43l-106 -80q-56 -41 -129 -45l-33 19q-23 58 -23 102zM176 125q0 -64 10 -84 l99 12q-1 0 7 7t22.5 20t34 30t42.5 37.5t46 42.5t46.5 45.5t43.5 46t36 44.5t25 39l35 71q9 17 39.5 52t54 63t22.5 35q0 15 -7.5 38t-23 49.5t-45.5 45t-69 18.5q-55 0 -105.5 -25t-88 -66t-65 -85t-46.5 -92q-8 -10 -27 -54t-26 -50q0 -23 -23 -74t-23 -68 q-14 -46 -14 -98z" />
<glyph unicode="b" horiz-adv-x="839" d="M72 68l239 512l17 51q18 51 42.5 107.5t43.5 74.5l319 782l19 21l67 166q9 4 20 11t18 10t13 3q9 -4 23 -6l57 -135l-12 -37q-6 -2 -17 -6.5t-18 -5.5l-24 35q-7 0 -13.5 2t-9.5 2q-2 0 -5 -2t-5 -2l-158 -320l-227 -612q13 -5 22 -14l39 53q25 20 66 32t84 19t53 10 q64 -52 76 -108q3 -16 3 -39.5t-3 -53.5l-8 -86q-18 -24 -30 -66.5t-16 -73.5t-10 -87q-21 -46 -37 -78.5t-33 -56t-28 -37t-31 -25.5t-32 -17.5t-41 -17.5t-48 -20l-6 -14l-166 -70q-95 0 -237 84zM203 131q20 -6 28 -43l64 -20q4 -2 37 -2q78 0 137 53l27 6q65 39 116 115 l18 36q18 36 32 72t26 108q10 61 10 128v22q-2 6 -8 26.5t-8.5 27t-10 21t-14.5 19.5t-18.5 10t-26.5 5q-12 -2 -33.5 -4.5t-32 -4.5t-27.5 -6.5t-27 -12t-23.5 -19t-24.5 -29.5t-22 -43q-8 -16 -12.5 -30.5t-23.5 -46t-101 -169.5q-82 -140 -82 -219z" />
<glyph unicode="c" horiz-adv-x="890" d="M113 262q0 78 44 150t113 102l25 8l182 176q66 60 135 60q64 43 127 43q33 0 76 -38.5t43 -74.5q0 -133 -88 -133q-16 0 -16 6q0 9 8 33t8 51q0 16 -29 29q13 8 13 14q0 16 -17.5 20.5t-56.5 4.5q-94 0 -133 -39q-59 0 -92 -74q-21 -42 -45.5 -68.5t-41 -34t-30 -23 t-16.5 -40.5l-46 -72q-20 -62 -20 -79q0 -34 20 -64v-16q0 -35 21 -62.5t53 -27.5h8q66 -78 156 -78q122 0 326 102q13 3 20 -12l10 -14l-112 -64q-10 -6 -26 -14q-39 -22 -69 -28q-12 -3 -48 -10h-1h-1h-1h-1l-1 -1h-2q-68 -25 -127 -25q-41 0 -104 17l-125 41 q-43 15 -61.5 28.5t-18.5 36.5q0 8 4 12q-63 57 -63 158z" />
<glyph unicode="d" horiz-adv-x="985" d="M88 74q0 56 30.5 131.5t88 161.5t154 178t214.5 168l19 -2l24 10q43 16 74 16q30 0 60 -18l53 -47l113 272l106 242q63 114 74 172l14 23q15 23 32 49t42.5 59t49 59t49.5 44t46 18q11 0 15 -4l6 -64q20 -41 20 -88q-1 -6 -3 -27t-5.5 -40t-9.5 -39l-80 -254 q-31 -95 -84 -190.5t-74 -155.5q-9 0 -18 -5.5t-11 -9.5q-142 -214 -362 -401l-6 -133q-1 -7 -1 -14q0 -53 34 -117l10 -12q10 -11 19.5 -27t9.5 -27q-26 -8 -44.5 -27t-21.5 -20q-46 0 -75.5 39t-37.5 104l-12 142l-65 -33q-19 -21 -99 -76l-180 -129l-113 -41 q-2 5 -17.5 22.5t-26.5 40.5t-11 50zM197 131l6 -20q35 0 122 46.5t162.5 100t87.5 74.5l66 117q3 8 14 32.5t18 44t7 29.5q0 24 -25 27l-100 24q-57 -36 -97.5 -66t-83.5 -75.5t-62.5 -69t-76.5 -96.5q-11 -13 -16 -20zM778 457h15q142 124 245.5 263t154.5 262.5t73 220 t22 175.5v35q0 19 -6 57v27q-1 0 -4 1t-4 1q-4 0 -7 -1t-7 -1l-99 -176l-31 -72q-27 -68 -28 -73z" />
<glyph unicode="e" horiz-adv-x="634" d="M94 211q0 47 12.5 89.5t40 109t43.5 116.5q95 125 176.5 189t180.5 92l35 -8q41 -44 41 -133l-2 -91q-5 -10 -13 -18.5t-20.5 -17.5t-14.5 -11l-26 -71q-61 -71 -158 -121l-176 -92q0 -2 -1 -4.5t-1 -3.5q0 -16 16.5 -45.5t16.5 -38.5l51 -54q60 -24 102 -24q17 0 41 2.5 t47.5 5.5t30.5 4l6 -2q7 -3 12 -5.5t10 -7t5 -10.5q0 -4 -1 -11t-1 -11l-217 -72l-80 2q-116 23 -150 129l-2 80q0 6 -2 16.5t-2 16.5zM229 358q0 -4 7 -4q4 0 8 2l260 133l43 54l-31 137q-11 8 -29 8q-29 0 -51.5 -14.5t-33.5 -32.5t-23.5 -34t-24.5 -19q-20 -19 -38 -43.5 t-32 -54t-22 -47.5t-20 -49.5t-13 -35.5z" />
<glyph unicode="f" horiz-adv-x="700" d="M-383 -1167q8 33 8 51l51 33l140 153l225 527l135 383l189 522l-48 -4l-114 -76l-209 -103q87 154 285 226q21 21 59 35t65 19.5t27 8.5l123 266q15 21 68 130l36 63q31 54 72.5 112.5t70.5 108.5t56 125q11 30 26.5 49t27 24.5t20 13.5t8.5 22l221 202q76 35 111 35 q14 0 20 -6l27 -35l-109 -151q-12 39 -39 39q-22 0 -67 -23l-180 -194q-5 -17 -31 -40.5t-35 -27.5q-31 -91 -53 -143q-35 -35 -68 -98.5t-141 -297.5l-68 -147l365 110l-19 -57l-245 -104l-144 -49q-13 -42 -23.5 -81t-16.5 -59t-15 -43q-16 -20 -96.5 -182.5t-95.5 -177.5 l-115 -402l-328 -739q-18 -8 -48.5 -45.5t-37.5 -44.5q-2 4 -46 34.5t-44 37.5z" />
<glyph unicode="g" horiz-adv-x="765" d="M-287 -1083q0 6 20.5 81t20.5 103l113 190l153 177l46 14l370 418v166l-151 -54l-29 -6q-47 0 -104.5 49t-57.5 115q0 19 24 95t27 91l121 191q133 131 207.5 186.5t173.5 89.5l119 -106v-152l-229 -354v-211q95 61 155 137q0 -6 1 -16t1 -15t-1 -8l-1 -2l-178 -176 q0 -4 1 -14.5t1 -16.5q0 -59 -36 -171t-50 -179l-20 -80q0 -5 0.5 -10.5t0.5 -8.5t-1 -9.5t-4 -13.5t-9 -18.5t-16 -27.5l-41 -102q-49 -121 -151.5 -247.5t-186.5 -160.5q-13 -45 -58 -69t-124 -33q-39 0 -73 52t-34 106zM-190 -1012q2 -18 2 -32l82 -66q48 0 104 35 q42 26 62 39.5t43 33.5t36 39l66 101l37 71q8 17 24.5 42.5t28 49.5t20.5 60l25 107q0 120 49 327l-307 -364q-58 -22 -86 -60l-76 -78q-37 -61 -56 -98t-36.5 -94.5t-17.5 -112.5zM225 205q9 -17 54 -49l26 -19l129 27q18 16 38.5 41t50 65t40.5 54l92 149q17 39 17 59 q0 55 -26.5 111.5t-72.5 56.5h-10l-82 -43q-35 -20 -73 -32q-7 -11 -21 -32q-118 -187 -139 -236q-22 -49 -23 -121v-31z" />
<glyph unicode="h" horiz-adv-x="942" d="M117 -2l63 221l146 242q-71 -16 -146 -107v2q0 3 -2 7.5t-6.5 12t-7.5 15.5l131 119q108 109 208.5 258.5t143.5 280.5l123 223l272 594l78 53q7 0 17 -16l-60 -265q-16 -65 -88 -213l-96 -190q-8 -16 -24.5 -50t-27 -54t-27.5 -48.5t-34 -52.5l-82 -112l-235 -359 l-211 -438l149 86l125 110l47 86l93 70q11 -7 14 -24l-12 -91q-13 -96 -13 -145l11 -92q14 -34 47 -51t65 -17q18 0 48.5 10.5t55 21.5t66 31t56.5 27q-4 -7 -9 -13.5t-12 -13t-12 -11t-15 -11.5t-14.5 -10.5t-16.5 -11.5t-16 -11q-28 -19 -56.5 -39.5t-38 -28t-25 -14.5 t-29.5 -8.5t-41 -1.5q-93 0 -127 17q-64 77 -64 254q-48 -23 -136 -97.5t-134 -91.5q-14 0 -67 -26.5t-70 -26.5h-4zM715 1044q58 36 135 197l158 332q7 15 11 25.5t7.5 24.5t4.5 19.5t5 28t6 33.5q-27 -27 -53 -62q-7 -22 -70 -169t-75 -185l-72 -112q-39 -65 -57 -132z " />
<glyph unicode="i" horiz-adv-x="436" d="M111 133q7 125 69 236l119 206q16 6 40.5 26t27.5 22l14 -54l-86 -133q-13 -13 -37.5 -97t-24.5 -134q0 -68 27 -114t74 -46q41 0 74 13t64 35t40 26l14 -21q-40 -43 -101.5 -75.5t-170.5 -63.5q-7 2 -22.5 5t-20.5 4t-16.5 4.5t-16.5 6.5t-13.5 9.5t-14 14t-13 18.5 t-14.5 26q-12 41 -12 86zM524 1063v12l41 53l31 2l12 -32q66 -14 66 -64q0 -30 -18 -46.5t-42 -16.5z" />
<glyph unicode="j" horiz-adv-x="350" d="M-1008 -1001q0 86 65.5 168.5t153 130t160.5 47.5q15 -10 88 -20.5t92 -10.5q-25 -42 -66.5 -57t-111.5 -15h-106q-82 0 -130 -51t-48 -106q0 -104 88 -195l84 -64q35 -25 92 -28q27 0 51 8l21 31q119 171 198 344l55 98q33 53 50 100l92 218q3 20 26 20l146 326 q121 299 133 379q0 11 17.5 29.5t17.5 23.5q0 4 -4 14t-4 14q0 5 6 11l18 2l133 252l47 51l78 22v-108l-53 -6q-31 -20 -51 -50t-33 -64t-14 -36q-3 -5 -19 -42t-47 -100t-72 -130l-24 -92l-115 -293q-48 -119 -112 -320q-45 -59 -74 -162q-25 -28 -43 -75 q-57 -146 -80 -146q-3 0 -8 5.5t-11 5.5q3 0 -16 -20t-39 -42t-20 -24q6 -12 6 -13l-39 -59q-33 -59 -57 -93.5t-60 -70t-83 -61.5t-115 -50q-62 27 -134 99q-10 5 -38.5 33.5t-59.5 79t-31 92.5zM440 1081q0 13 2 15l117 61q4 -8 11.5 -22.5t11.5 -23.5t8 -23t4 -27 l-57 -43l-11 -10l-71 47q-15 12 -15 26z" />
<glyph unicode="k" horiz-adv-x="942" d="M68 -14q141 408 188 520l68 162q144 341 342 835q1 2 15 40.5t27 72t36 82t45 83t50 63t54 34.5l8 -33q-9 -18 -12 -48.5t-2 -58.5t0 -57q-20 -6 -27.5 -9.5t-16.5 -17.5t-14 -34t-14 -66q-32 -47 -200.5 -381t-213.5 -475l-110 -344l160 172q88 95 172.5 143t242.5 85 l41 -21l-55 -63h-86q-43 -9 -82.5 -27t-54 -27t-57 -43.5t-44.5 -35.5l-47 -43q-16 -24 -16 -60q0 -64 35 -131t88 -118t118.5 -84t122.5 -33q49 0 88.5 12.5t57.5 24t53 38.5q-21 -137 -246 -178q-61 9 -89.5 13.5t-61 15t-56.5 26.5q-180 174 -180 377q-44 -55 -166 -239 q0 -27 -26 -27l-10 -68l-105 -90q-20 6 -20 13z" />
<glyph unicode="l" horiz-adv-x="706" d="M176 295q0 103 96 379q14 18 60 113t67 116l131 273l385 440q15 13 53.5 47t63 54t58.5 44.5t63.5 36.5t54.5 12h11q0 -25 -5.5 -51.5t-17.5 -59t-20.5 -52.5t-27 -59.5t-24.5 -51.5q-11 -64 -143 -223q-53 -65 -122 -158.5t-141 -182.5t-173 -194l-205 -211 q-1 -4 -3.5 -15.5t-2.5 -16.5v-13q0 -34 -27 -49q-5 -6 -8 -43t-4 -41q0 -65 5.5 -112t22.5 -91.5t46.5 -72t79.5 -44t120 -16.5q107 0 193 53l16 -26q-74 -57 -163.5 -100t-178.5 -54q-150 62 -200 125l-9 55q-51 88 -51 189zM377 672q91 64 119 162q78 48 178 170l149 184 q41 56 66 112l164 236l63 152l-176 -152q-6 -37 -70.5 -118.5t-135 -163.5t-83.5 -111l-129 -148z" />
<glyph unicode="m" horiz-adv-x="1351" d="M-6 43v43l242 121q0 11 14 31l115 133q9 13 32.5 62.5t45 78.5t44.5 29t27 -4l18 -29l-129 -318q6 -18 13 -18l67 74l209 157q30 23 101 31h14l10 -16l-92 -287l223 152l37 55q31 14 37 33l100 145q18 21 45 21q24 0 29.5 -8t5.5 -35q0 -79 -20 -140q-39 -123 -60 -207 l-14 -20q0 -9 -3.5 -26.5t-7 -32t-3.5 -15.5q0 -10 6 -19t16 -9q8 0 23 5t18 5l115 86l53 -15q-34 -54 -121 -106.5t-174 -52.5q-26 0 -51 22v158l57 152l-88 -72q-159 -89 -222 -113q-71 -28 -120 -28q-9 1 -18 0t-15 2t-6 12q0 17 6 47l82 188h-10l-137 -122 q-31 -20 -94 -69t-104 -70t-85 -21q-18 0 -28 12q0 7 14 22.5t14 20.5q0 3 8 21t12.5 30.5t-1.5 18.5q-14 -14 -126 -59t-124 -56z" />
<glyph unicode="n" horiz-adv-x="935" d="M57 106l80 134l113 268q1 18 22 40t39 25q25 -66 25 -98q0 -38 -8 -90t-15.5 -89.5t-7.5 -39.5q141 104 199 188l92 64l37 35l244 202q15 15 43 15q21 0 32 -8v-15q0 -16 -5 -34t-10.5 -30.5t-16 -34t-15.5 -32.5q-5 -5 -32 -74.5t-42 -87.5l-57 -106q-76 -146 -76 -240 q0 -39 21 -63l22 -37l103 -16v-7q0 -7 -21 -16l-90 -10q-132 0 -192 76l2 145q17 17 30 43q37 81 79.5 157t72.5 146q0 9 -10 16l-174 -143l-215 -186q-81 -75 -133 -97l45 216h-21q-15 -41 -59 -123t-80 -121z" />
<glyph unicode="o" horiz-adv-x="741" d="M72 86q0 2 5 23.5t10 53.5t5 60l84 160q94 187 238 305v51q22 47 60 77t87 30l66 -86q0 -21 23.5 -94t23.5 -103l8 -129q0 -210 -94 -323l-33 2q-75 -58 -193 -103t-182 -45q-20 0 -47.5 30t-38.5 30h-6q-16 32 -16 61zM199 111q0 -24 16.5 -37t42.5 -13l104 -2l127 60 q72 141 72 317q0 119 -41 256q-30 -30 -63.5 -72.5t-59.5 -80t-77.5 -111.5t-90.5 -129z" />
<glyph unicode="p" horiz-adv-x="929" d="M-350 -1176q0 27 30.5 154t30.5 156l105 268l12 149l80 197l217 459q96 147 146 205t120 104q6 9 51.5 47.5t53.5 59.5q2 6 47 84.5t45 97.5q-40 0 -88.5 -25t-75.5 -28q6 3 6 8q0 9 -8 20l-8 25l174 55q11 6 38.5 21.5t44 24.5t39 23.5t38.5 28.5q12 -10 12 -34 l-121 -250l127 45q83 29 139 29q36 0 60.5 -28t31.5 -56.5t7 -51.5q0 -72 -31 -150.5t-78 -146.5t-110 -136t-120.5 -118t-115.5 -92l-318 -141l-18 -47l-23 -25l-20 -55l-315 -633q-9 -19 -17 -57q3 -1 -23.5 -60t-68.5 -127t-74 -86q-22 31 -22 86zM-276 -1096l45 62 l53 129q47 107 73.5 166.5t32.5 71.5t12 25.5t21 48t51 120.5l115 254q43 109 125 312t119 296q8 11 28 49.5t23 42.5q-78 -63 -126.5 -113.5t-100.5 -134t-99.5 -186.5t-122.5 -287q-28 -97 -92 -260l-12 -82q0 -4 2 -8t2 -8l-25 -31q0 -30 -13 -71.5t-36 -101.5t-35 -97 l-32 -105v-26q0 -42 -8 -66zM285 -66l4 -8l266 109q315 233 315 545v41q-29 26 -90 26q-30 0 -102 -29l-82 -36l-76 -138q-36 -65 -128.5 -263.5t-106.5 -246.5z" />
<glyph unicode="q" horiz-adv-x="964" d="M14 29q0 11 4 23.5t12.5 27t17 27.5t23 30t24 28.5t26 28.5t23.5 24.5t22.5 22.5t17.5 17l226 219l153 103q65 40 170 59q13 -16 53 -25q59 -40 86 -94.5t52 -175.5l-39 -68h-33l-29 113q-10 34 -32 77t-54 79.5t-59 36.5q-25 0 -50.5 -11.5t-44 -26.5t-54 -44t-62.5 -49 l-57 -37l-166 -168q-98 -109 -127 -189q7 -6 13 -11.5t7.5 -7t4.5 -3.5t4.5 -2h5.5q26 0 58 12.5t66 31t41 21.5l187 107q108 70 131 151l86 62l31 -29l-80 -149l-49 -41l-56 -140q-8 -3 -8 -34q-16 -44 -29.5 -81t-19 -53.5l-10.5 -31.5t-6 -17.5t-4.5 -10t-6 -10.5 t-10.5 -16t-18 -30q-12 -34 -28.5 -102.5t-29.5 -102.5l-53 -152q-12 -45 -23 -98.5t-17 -92t-16 -103t-16 -99.5q0 -71 26.5 -123.5t82.5 -52.5l115 49q56 20 84 68l125 88q3 8 94 110l92 101l80 117l-23 -113q-18 -12 -50 -46.5t-79 -87t-86 -89.5l-112 -107l-117 -90 q-8 0 -93.5 -44t-127.5 -44q-5 0 -11 1t-10 1l-78 53l-8 115q0 80 26.5 220t53.5 250t27 118l82 237l45 107q51 125 51 184l67 133l-233 -123q-7 -22 -82.5 -53t-118.5 -31q-38 0 -65 27l-11 18q0 1 -2 5.5t-2 5.5z" />
<glyph unicode="r" horiz-adv-x="747" d="M-47 33l6 59q86 61 150.5 145.5t95.5 164.5t45 141t14 102q0 66 -8 148q14 24 106 90l21 -33q-3 -17 -12 -21q0 -86 28 -146.5t90 -119.5q-94 -360 -94 -377q0 -46 54.5 -87.5t117.5 -41.5q52 0 133 32t99 32q4 0 8 -4q0 -27 -59.5 -62t-153.5 -60.5t-180 -25.5 q-80 44 -115 83.5t-35 92.5q0 65 50.5 193.5t50.5 155.5l-60 53q-17 -92 -38 -142q-56 -140 -220 -333z" />
<glyph unicode="s" horiz-adv-x="583" d="M53 117l56 82q4 6 11.5 11.5t20.5 10.5t24.5 8.5t31.5 7.5t33.5 6.5t38.5 7t40 7.5q0 3 -20.5 143t-20.5 177q0 66 23 125.5t65 95.5l105 22q17 -8 30.5 -26.5t20.5 -36t17.5 -47t17.5 -45.5l10 -70q0 -15 -4 -23l-78 -32l-2 20q0 101 -74 160q-1 -1 -7 -3t-9 -4.5 t-7.5 -9.5t-6.5 -21t-2 -34q0 -49 3.5 -82.5t7.5 -50t14.5 -51.5t17.5 -64l22 -110q15 -6 19 -6q19 0 55.5 10.5t52.5 23.5l49 33q35 0 45 -4q-17 -17 -109.5 -68t-111.5 -77q-2 -15 -5.5 -38.5t-5.5 -33.5t-5 -25.5t-6.5 -23t-9 -16t-13.5 -13.5t-18 -8l-52 -12 q-30 -38 -56.5 -53t-67.5 -15q-55 0 -132 41zM98 121q9 -28 65 -50t79 -22l53 4q8 8 12.5 24t5.5 29.5t2 38t2 35.5l-161 -24l-50 -15z" />
<glyph unicode="t" horiz-adv-x="561" d="M78 207q14 15 24.5 38t19 63.5t13 67t13 89t12.5 88.5l12 8l35 80l-4 12h-99l-10 15q47 86 144 86q11 20 49 100t100.5 209t122.5 246l162 75l-172 -301l-119 -284q3 -13 10 -13l342 43q-9 -8 -19 -15t-24.5 -15t-26 -14t-35.5 -15.5t-39.5 -16t-50 -18.5t-56.5 -20 t-70 -25t-80 -28l-70 -173q0 -4 -6 -29t-19 -83t-26 -125q19 -103 48 -151.5t77 -71.5l174 4q-15 -7 -68 -34t-80 -38l-65 -8q-104 0 -164 76l-41 143q-14 24 -14 35z" />
<glyph unicode="u" horiz-adv-x="890" d="M0 94l106 53l166 398q20 35 24.5 49t4.5 39q59 96 137 131l23 -2q0 -22 -41 -97.5t-41 -99.5l-156 -352q-8 -55 -8 -94v-5v-5.5t0.5 -5.5t1.5 -6l2.5 -5t4 -5t6 -3.5t9 -2.5t11.5 -1q74 0 155.5 52t135.5 106l61 61q16 38 73.5 158t82.5 161l116 70q0 -5 1.5 -9.5 t1.5 -8.5q-1 -29 -38.5 -122t-77.5 -195.5t-44 -153.5l-10 -88l36 -64q12 -12 43 -12q82 16 152 76l43 6q-7 -16 -15 -28.5t-22.5 -23t-21.5 -15.5t-29.5 -16t-28.5 -14l-121 -51q-20 -10 -53 -10q-70 0 -115 66l-28 165l-199 -131q-101 -42 -136 -48q-19 -3 -40 -3 q-24 0 -66 17l-34 34l-47 -8z" />
<glyph unicode="v" horiz-adv-x="667" d="M147 6q0 1 1.5 4.5t3 10t2.5 12.5l-7 106q-1 25 2 58t8.5 82.5t8.5 85.5q3 32 8 88q11 137 23 186t47 49q13 0 32 -16l19 -45l-23 -484q193 187 263 332l59 41l88 111l82 84q8 8 23.5 24t24.5 25t23 22t23.5 21t21 16t21 11.5t17.5 3.5q12 0 12 -9l-19 -28 q-57 -43 -120 -114.5t-121.5 -150t-67.5 -88.5q-6 -2 -19 -5t-15 -3t-12.5 -8.5t-14.5 -16t-18.5 -31t-27.5 -47.5t-38 -71l-125 -158q-73 -94 -152 -145h-10q-23 20 -23 47z" />
<glyph unicode="w" horiz-adv-x="1157" d="M72 152q0 9 29.5 114t29.5 135q70 134 106.5 184.5t92.5 69.5l12 -4l-84 -221q-28 -24 -57 -103.5t-29 -123.5q0 -25 14 -43q36 3 71.5 14.5t76 36.5t59 37t62.5 47t45 35l32 53l50 33l12 18l45 23q8 0 29 -21v-14l-21 -27q-45 -98 -45 -178q0 -25 4.5 -51.5t14 -53.5 t29 -44t44.5 -17q36 0 88 23t105.5 72.5t75.5 109.5l47 160v57q-31 157 -45.5 206.5t-46.5 98.5q-4 6 -24 9.5t-24 9.5l7 75l102 60h12l47 -103l-2 -18q36 -60 49 -134t13 -196v-59q-14 -13 -30.5 -80.5t-31.5 -89.5q-49 -79 -103 -123.5t-102 -50.5q-37 -52 -105.5 -80.5 t-143.5 -28.5l-60 19l-35 73q-36 39 -36 119l6 64h-21l-200 -131q-16 0 -67 -17.5t-71 -17.5q-26 0 -26 74z" />
<glyph unicode="x" horiz-adv-x="937" d="M-328 -930q13 26 29 117q15 117 61 199l58 108l129 201l65 65l105 156q24 7 24 12l234 258q-30 33 -88 125l-90 236l-27 119l41 61l109 33l32 -240l23 -43l37 -88q12 -36 33.5 -66.5t41.5 -37.5q3 2 21.5 26t32.5 31l125 102q2 4 5 7.5t7.5 7.5t7.5 8l49 35 q26 11 53.5 34t45 41t20.5 19l74 39q54 30 98 37q9 -4 29 -6v-7q0 -11 -13 -14l-180 -108l-231 -207l-107 -107q34 -33 66 -53.5t94 -50.5l133 -8q25 -7 37 -7q20 0 79.5 17.5t65.5 17.5l-10 -20q-150 -78 -305 -78q-148 0 -252 72l-18 -2l-238 -254q-46 -43 -125 -154 q-2 -3 -28 -37.5t-36.5 -49.5t-32.5 -48.5t-39.5 -66t-33.5 -68.5l-67 -154q-2 -9 -25 -71t-43 -125t-20 -87l-52 -12z" />
<glyph unicode="y" d="M-260 -967q0 189 22.5 280.5t104.5 229.5q1 14 31 42.5t34 39.5l103 107h1q22 0 101 56q80 56 101 62l237 66l113 307l-6 13l-181 -148q-89 -71 -211 -119q-32 0 -44.5 0.5t-31.5 5t-30 13.5q0 53 15.5 100t60.5 125l24 23q8 17 36 80.5t47.5 106.5t52.5 107t60 106.5 t60 79t62 48.5q32 -16 35 -27l-103 -151q-31 -41 -33 -45q0 -1 -37 -98t-74.5 -204.5t-37.5 -134.5q0 -24 10 -47q77 44 150 118.5t113 132t97.5 149.5t75.5 118l47 39q19 19 39 19q1 0 3.5 -1t7.5 -2.5t10 -2.5q0 -157 -57 -295l-154 -367l231 49q80 0 80 -57 q0 -33 -18 -33l-53 -12l-27 16q-115 0 -163.5 -7t-82.5 -32q0 -28 -37 -43l-106 -274q-9 -9 -17 -23l-69 -135l-113 -143q0 -31 -6 -37l-104 -211l-148 -215l-156 -49q-65 32 -65 274zM-207 -791q0 -19 2 -71.5t2 -91.5v-50q2 -10 7.5 -34t7.5 -32t7 -25.5t8.5 -25.5 t9 -19.5t12 -19t14.5 -14.5l53 9l86 161l21 23l65 123q32 59 74 115q7 25 15.5 59t13.5 52.5t13.5 40.5t20.5 38l21 51l108 154l78 190l-260 -59l-121 -92h-16l-115 -148q-36 -29 -47 -75q-43 -79 -61.5 -134t-18.5 -125z" />
<glyph unicode="z" horiz-adv-x="839" d="M29 -47q0 6 7.5 17.5t25 32t24.5 30.5q121 45 381 305q37 38 95.5 142t58.5 147q0 4 -7 39h-231q98 94 246 94q46 0 69 -19.5t23 -68.5q0 -19 -1.5 -32t-3 -22.5t-10.5 -27t-15.5 -30t-26 -47.5t-35.5 -64q-21 -37 -47.5 -72t-50.5 -59t-44 -41.5t-35 -28.5t-16 -12 q-8 -9 -61 -54t-98.5 -86t-45.5 -49q0 -5 13 -12q221 -37 447 -67.5t323 -43t187 -36.5t151 -64q-11 -29 -54 -41l-38 31q-15 4 -45.5 6.5t-68.5 4.5t-52 3q-103 11 -228 40.5t-256.5 55t-273.5 31.5q-24 1 -45 1q-29 0 -54 -2q-44 -4 -61 -10l-16 -5q16 0 -1 -2 q-44 -5 -67 -5q-19 0 -41 6t-22 15z" />
<glyph unicode="{" horiz-adv-x="661" d="M45 -98q0 50 133 295q62 112 62 200q0 42 -7.5 70t-27.5 65v21q76 48 119.5 77t90 64.5t69.5 61.5t44 58.5t28 66t7 75.5q0 45 -26 138q-3 11 -19.5 40.5t-29.5 65.5t-13 72q0 132 107 239l63 35q87 61 113 72l127 27q56 12 127 12q52 0 110 -15t58 -45q0 -1 -2 -5.5 t-2 -6.5q-1 -1 -23.5 -43t-51.5 -82.5t-50 -46.5q-15 11 -15 39q0 4 7.5 44.5t7.5 55.5q0 11 -82 27t-117 16q-223 0 -223 -209q0 -43 42 -172t44 -145q0 -64 -9.5 -103.5t-47.5 -91.5t-102 -107.5t-185 -148.5l18 -38q8 -21 8 -52q0 -41 -102 -260t-102 -254 q0 -33 12 -56.5t43.5 -52.5t34.5 -32q-49 -62 -152 -92q-22 3 -43 33q-32 46 -37.5 57t-5.5 31z" />
<glyph unicode="|" horiz-adv-x="499" d="M315 -39q12 55 33 394.5t35 688.5l12 330l107 -6q-15 -35 -27 -340l-57 -1067h-103z" />
<glyph unicode="}" horiz-adv-x="575" d="M-98 -119q32 51 76.5 74t138.5 45q103 169 119 487q3 89 5.5 170.5t3 125t1.5 55.5q27 81 145 163q-14 96 -14 148q0 96 67 172l236 268q117 129 117 232q-15 2 -66 11t-78 9l-186 -6l27 27q152 67 284 67q107 0 180 -43q-21 -107 -124 -225q-283 -327 -302 -375l31 -10 q2 -14 9 -59t12.5 -73t11.5 -46q-21 -30 -86 -68q-37 -21 -62 -49.5t-37 -53t-18.5 -68t-7 -67.5t-0.5 -79v-269q-24 -160 -61 -247q-30 -68 -93 -134t-127 -107.5t-115 -67t-67 -25.5q-20 0 -20 18z" />
<glyph unicode="~" horiz-adv-x="976" d="M317 1380l21 45q41 41 80 52.5t182 31.5l197 -178q28 13 144.5 119t125.5 113l121 34q-17 -11 -55 -48t-96 -97.5t-81 -83.5l-106 -53q-121 -62 -184 -62q-25 0 -54 23t-51.5 50t-51 50t-52.5 23q-11 -12 -18 -46.5t-19 -60.5t-37 -26q-24 0 -41.5 35.5t-24.5 78.5z" />
<glyph unicode="&#xa1;" horiz-adv-x="501" d="M27 -86q58 227 167.5 635t149.5 559q61 38 137 66v-25q0 -13 -3 -29t-7.5 -30t-9 -26l-7.5 -20l-3 -8q-50 -169 -158 -531.5t-166 -561.5q-55 -29 -88 -33q-2 0 -6.5 2t-5.5 2zM424 1524q0 29 18 78l80 55q83 57 107 59q16 -13 16 -39q0 -34 -12 -55q-19 -10 -27 -29.5 t-10.5 -38.5t-9.5 -37t-29 -29t-63 -11q-24 0 -36.5 2t-23 13t-10.5 32z" />
<glyph unicode="&#xa2;" horiz-adv-x="1335" d="M289 -371q12 149 125 303l30 82l43 58q-61 27 -96 83.5t-35 133.5q0 111 62.5 224t156.5 196.5t208 136.5t214 53l258 436q72 72 152 84l-145 -245q-26 -43 -69.5 -105.5t-67.5 -103t-31 -76.5q55 -9 94.5 -25.5t57.5 -35t26 -33t8 -25.5q0 -35 -30.5 -58t-65 -30.5 t-68.5 -7.5q-11 7 -25.5 63t-41.5 80l-420 -659l45 -37q81 -47 217 -47q65 0 120 9.5t156 33.5q33 -10 33 -19q0 -13 -75.5 -35.5t-194 -41.5t-217.5 -19h-95l-55 27q-10 -25 -33 -74.5t-36 -80t-26 -74.5t-17 -83q-13 -9 -27 -15.5t-23.5 -8.5t-26 -5t-24.5 -5l-28 -48 q-10 -16 -23 -16q-7 0 -10 10zM532 330q0 -66 50 -125l47 67q22 59 67 139.5t73.5 125.5t109 164t96.5 143q-112 -50 -197 -112.5t-130 -117.5t-73 -114.5t-35.5 -97.5t-7.5 -72z" />
<glyph unicode="&#xa3;" horiz-adv-x="876" d="M51 -72q13 65 36.5 121.5t65 100t91.5 43.5q17 0 35.5 -4t41 -12t37.5 -14.5t41.5 -19t36.5 -16.5q16 48 30.5 87t19 51.5t7.5 28.5t3 42q0 66 -13 92q-144 -39 -198 -39q-23 0 -23 12q0 21 41 56l158 32l-70 138q-76 152 -76 245q0 56 11 110.5t32 102t56.5 76.5 t79.5 29q31 -6 79.5 -29.5t81 -43.5t31.5 -21l154 -193q-22 -88 -33 -107q-18 -29 -47 -30q-12 0 -28.5 51.5t-33.5 113t-30 77.5q-6 2 -33.5 15.5t-54.5 23.5t-43 10q-45 0 -77.5 -40.5t-45.5 -92.5t-13 -105q0 -61 17.5 -113t91.5 -204q77 22 123 46t112 81q0 -3 19.5 -30 t19.5 -36q0 -31 -249 -119q26 -69 26 -155q0 -53 -20 -92l-41 -84q-8 -16 -17 -25l17 -2q91 -45 159 -91.5t138 -115.5l69 -63l105 -9l-78 -69q-47 -37 -82 -37h-6l-404 287q-32 -13 -85.5 -62t-101.5 -89t-77 -40q-43 0 -64.5 39.5t-21.5 91.5zM147 -31l17 -63h12 q102 14 154 102q-71 49 -144 49q-26 0 -28 -4z" />
<glyph unicode="&#xa4;" horiz-adv-x="1335" d="M375 178v86q32 66 42.5 83.5t18.5 17.5q2 0 4.5 -1.5t3.5 -1.5q25 3 25 13l51 53l-12 33q-19 52 -19 98q0 112 111 238l-96 245q-25 48 -29 52l172 112q6 -33 13 -73.5t10.5 -62.5t8 -48t7.5 -39t6.5 -27t6.5 -21t6 -11l20 -45q79 27 104 47v51q21 47 60 76.5t88 29.5 l65 -133l132 92q2 2 22 2q21 0 21 -14q0 -20 -27 -47l-119 -111q19 -43 19 -71l6 -101q0 -154 -47 -251q96 -99 153 -123v-101q-40 -14 -59 -14q-45 0 -86.5 27.5t-100.5 99.5q-64 -60 -98 -76t-78 -16q-133 0 -207 92l-32 -27q-39 -45 -99 -106l19 20l-33 -35zM588 504 l45 -107q46 -49 137 -65l70 22q63 14 78 29l47 158q12 35 12 127l-8 110l-13 78l-20 74q-40 -35 -59 -45q-110 -65 -123 -78l-95 -119q-38 -59 -54.5 -100.5t-16.5 -83.5z" />
<glyph unicode="&#xa5;" horiz-adv-x="839" d="M59 170v8q0 28 33 92l174 29l13 135q-73 -16 -113.5 -21t-106.5 -5v8q0 28 33 92l193 24q14 43 14 107q0 80 -37 324q-18 123 -18 192q18 66 59 111l55 -291l27 -205l72 16q97 97 209 271q121 190 141 216q44 59 85 69q15 4 34 4q10 0 10 -7q0 -2 -2 -3.5t-2 -2.5 q-98 -84 -180 -225q-98 -169 -168 -280.5t-94 -143.5t-42.5 -62t-37.5 -73l245 -14q-19 -34 -26 -62q-10 -1 -71.5 -2.5t-90.5 -7.5l-113 -19q-16 -37 -16 -41q0 -2 3 -16t6 -35t3 -41q12 0 120 -7t185 -7q-19 -35 -26 -61q-54 0 -113 -6t-111 -14t-57 -9l-4 -260 q-8 1 -24.5 3.5t-24.5 2.5l-55 12l18 228q-130 -23 -199 -23z" />
<glyph unicode="&#xa6;" horiz-adv-x="499" d="M166 -39q0 1 8.5 72t12.5 124t3 95l-6 205l107 -6q-12 -65 -15 -207l-6 -283h-104zM225 883q1 7 9 73t12.5 120.5t3.5 97.5l-6 204l106 -6q-10 -44 -14 -209l-6 -280h-105z" />
<glyph unicode="&#xa7;" horiz-adv-x="614" d="M72 569q0 61 12 97.5t53 70.5l27 17q8 11 23 19t41 15t47.5 11t62.5 11.5t65 12.5q0 36 -104 181q-53 74 -53 159q0 80 27 153t77 116l125 26q21 -9 37 -31t24.5 -43t21.5 -57t22 -55l12 -84q0 -21 -6 -27l-92 -39l-11 95q0 29 -10 51t-16.5 29t-30.5 23l-25 15 q-1 0 -5 -1t-6.5 -2t-6.5 -3.5t-6.5 -6t-5.5 -9.5t-4.5 -14.5t-3 -21t-1.5 -28.5q0 -22 7 -80l6 -65q5 -21 35.5 -55.5t63 -66t58 -77t23.5 -88.5l-2 -59q-3 -17 -7.5 -45.5t-6.5 -40.5t-6.5 -31t-8.5 -27.5t-11 -19t-16 -16t-22 -9.5l-61 -16q-39 -46 -64 -59 q46 -72 93.5 -120.5t80.5 -71.5t35 -26q1 -19 7.5 -63t6.5 -55q0 -49 -26 -90l-103 -101l-198 -45q-1 1 -39.5 15t-75 31.5t-43.5 31.5q0 70 70 92q7 -12 24.5 -25.5t30.5 -20.5t37.5 -19t25.5 -13q220 0 220 66q0 50 -20.5 85t-46 51t-53.5 38t-38 45q0 10 -180 150 q-86 68 -86 120zM152 662q0 -10 18 -23.5t43 -27t27 -15.5l55 -59l80 65q9 8 16 19.5t11 29t6 27.5t4 31t2 22l-195 -31l-35 -12q-32 -13 -32 -26z" />
<glyph unicode="&#xa8;" horiz-adv-x="757" d="M410 1061q0 10 4 14l114 62q3 -8 14 -29t16 -36.5t5 -33.5l-55 -41l-12 -12l-72 49q-14 14 -14 27zM752 1067v10l41 53l30 5l11 -33q36 -9 50.5 -24.5t14.5 -41.5q0 -29 -17 -45t-42 -16z" />
<glyph unicode="&#xa9;" horiz-adv-x="1605" d="M158 236q0 113 50.5 236t138 238t199 220.5t240.5 197.5q177 66 293.5 96.5t208.5 30.5q160 0 273.5 -99t113.5 -245q-3 -10 -9 -29q-42 -145 -66 -189q-32 -58 -109 -114l-51 -36l-217 -113q-44 0 -121 -74q-21 -20 -39.5 -37t-21 -20t-12 -10t-12.5 -7.5t-23.5 -11 t-44.5 -22.5t-75.5 -40t-115.5 -65q-74 -45 -140 -45l-108 54q-91 44 -118 70.5t-27 62.5q0 123 45 241l-2 -4q0 14 45.5 96t68.5 82q187 169 205 179q67 51 148 81.5t143 30.5q64 0 108 -41l21 -41q-54 -62 -137 -120.5t-179 -100.5q0 -4 43 28t91.5 77.5t58.5 72.5 q-35 27 -88 27q-9 -1 -35 -2t-40 -3t-44 -15t-56.5 -35.5t-67 -66t-85.5 -105.5l-20 -11l-35 -59l-37 -92q-20 -44 -20 -94q0 -16 8 -52q32 -48 45.5 -67t34 -38t40 -23.5t50.5 -4.5q99 0 256 101q115 73 192.5 112.5t106 45.5t47.5 8t36 12t52 45q201 90 201 360 q0 70 -56 135q-106 101 -152 123.5t-149 22.5q-105 0 -227.5 -38.5t-235.5 -102.5l-153 -156q-105 -104 -169.5 -183.5t-98 -149.5t-44 -127t-10.5 -134q0 -71 15.5 -127.5t52 -105.5t94 -82t145.5 -51.5t203 -18.5q97 22 230 104q350 207 495 258l-18 -104 q-273 -97 -510 -270q-177 -64 -248.5 -82.5t-148.5 -18.5q-45 0 -123 43t-147 86t-91 43q-61 131 -61 263z" />
<glyph unicode="&#xaa;" horiz-adv-x="899" d="M262 629v10q0 36 33 92q154 0 252 33q37 10 101 29.5t92.5 27t64.5 14t61 5.5l82 -2l-51 -52l-295 -133q-63 -24 -153 -24h-29h-158zM369 956q0 18 13.5 66.5t26.5 90.5t13 44l47 90q23 42 38 67.5t45.5 65t60 61.5t73.5 39t94 17q38 0 68 -15t45.5 -37.5t23 -44.5 t7.5 -42q0 -22 -9 -47t-19 -40.5t-24 -35.5t-16 -23q-40 -58 -48.5 -81t-8.5 -60q0 -25 13 -42.5t13 -20.5q0 -27 -92 -45q-22 30 -22 92v8q-26 -19 -65 -55.5t-66.5 -62t-64 -46t-69.5 -20.5q-37 0 -57 21t-20 56zM475 1067l6 -92l54 20l217 232q6 14 26 35t36.5 37.5 t16.5 21.5q0 17 -19.5 51.5t-47.5 34.5q-17 0 -40 -14t-34.5 -24t-38.5 -36l-69 -92q-16 -21 -49 -57t-45.5 -59.5t-12.5 -57.5z" />
<glyph unicode="&#xab;" horiz-adv-x="1368" d="M322 240q2 10 61 51q24 17 78 83t129.5 159.5t130.5 152.5q28 22 90 27q-6 -31 -42 -69t-71.5 -66.5t-38.5 -36.5q-18 -30 -58.5 -80t-69.5 -83.5t-35 -39.5v-2q0 -20 -27 -60l-8 -20q19 -9 97 -20.5t81 -12.5l41 -37l-33 -34q-33 -33 -65 -33q-17 31 -88 57 q-168 53 -170 55zM637 256q35 34 91.5 116t123 163t139.5 133l125 26q-55 -67 -110 -122t-85.5 -81t-57 -53.5t-39 -57.5t-17.5 -75h39h6q33 0 54.5 -1.5t56 -9t53 -27t18.5 -50.5q0 -15 -13 -26t-36.5 -21t-26.5 -12q-17 29 -92.5 49.5t-149 32t-79.5 16.5z" />
<glyph unicode="&#xac;" horiz-adv-x="1576" d="M238 350q101 74 282 74l191 -2q68 -1 154.5 5t138.5 12t172.5 22.5t158.5 21.5q25 -22 25 -55q-21 -21 -21 -74v-45q0 -34 -23.5 -119.5t-39.5 -85.5q-24 0 -60 8t-42 15q1 15 16.5 94.5t15.5 83.5q0 57 -49 57q-23 -4 -55 -4q-25 -6 -152 -20.5t-153 -22.5l-86 2 l-277 -6q-88 0 -194 13z" />
<glyph unicode="&#xad;" d="M131 348q0 43 13 72.5t32.5 46t55 25t67 10.5t82.5 2q102 0 127 -2l217 -27q0 -28 -28.5 -47.5t-74.5 -29t-90 -13.5t-90 -4q-112 0 -219 10q-63 -49 -86 -49q-6 0 -6 6z" />
<glyph unicode="&#xae;" horiz-adv-x="1503" d="M250 401q0 248 73 440.5t222 348.5q188 91 268.5 117t179.5 26q153 0 308.5 -106.5t220.5 -274.5q3 -31 9 -78t9.5 -78.5t3.5 -43.5q0 -54 -20.5 -97t-75.5 -106l-98 -92q1 -2 27.5 -31t27.5 -37q0 -238 -191 -463q-3 -1 -59 -38t-127 -71t-121 -34q-94 0 -178 41 q-70 31 -135 55t-95 33l-30 8q-104 124 -161.5 250.5t-57.5 230.5zM315 618q0 -253 38.5 -377.5t131.5 -205.5q74 -97 197 -142t319 -45q80 26 157 121t125 223t48 244l-53 -51l-18 39l-7 16q23 18 53 43.5t40 32.5l18 39q94 60 94 197q0 210 -160 350l-157 119 q-71 39 -201 39q-214 0 -401 -156l-90 -168q-107 -204 -134 -318zM481 131q0 79 37 180q59 167 86.5 241t32.5 83t16 26.5t31 63.5q68 153 82.5 181.5t77.5 127.5q7 1 50 40t94.5 79.5t80.5 46.5q39 -32 39 -139l-27 -164q-38 -162 -174 -274l-78 -62l89 -190 q5 -16 15.5 -51t17 -54.5t18.5 -43t26 -36.5q-3 -12 -16.5 -33t-28.5 -22q-24 2 -55 33l-145 362l-31 33l57 74l27 -15q111 33 183.5 147.5t72.5 270.5q0 8 -17 84q-23 0 -55.5 -19.5t-55.5 -39t-24 -19.5l-112 -190l34 8l-32 -90q-101 -185 -136.5 -267t-60.5 -177 l-41 -136l-53 -84q-25 11 -25 25z" />
<glyph unicode="&#xaf;" horiz-adv-x="706" d="M391 1075q0 9 41.5 21.5t111.5 22t138 9.5q59 0 93.5 -2t52 -4.5t64 -10.5t97.5 -15q0 -52 -467 -52q-25 0 -60 2.5t-46 2.5l-21 12l-2 5q-2 4 -2 9z" />
<glyph unicode="&#xb0;" horiz-adv-x="931" d="M381 924l272 415q82 56 148 56q74 0 144.5 -73t70.5 -196q0 -110 -70.5 -192t-178 -121t-232.5 -39q-97 28 -122.5 54t-31.5 96zM502 1016q0 -38 59 -101q94 0 157.5 7t117.5 25.5t80 55t26 91.5q0 79 -49 100q-130 -80 -148 -80q-58 -98 -86 -98q-15 0 -25.5 13.5 t-10.5 31.5q6 30 6 43q0 26 -37 26q-32 0 -56 -33t-34 -81z" />
<glyph unicode="&#xb1;" horiz-adv-x="1472" d="M373 193q0 36 33 92q258 45 462 45q114 0 212 -5t153 -9.5t65 -4.5q-23 -38 -26 -61l-72 -19q-29 -7 -127 -24t-129 -27q-187 0 -336 -13t-155 -13q-6 3 -27.5 7.5t-37 11.5t-15.5 20zM381 885q10 42 72 80t147 59q161 36 190 50q30 15 41 48q3 6 5 15q-5 5 -5 24 q0 36 23 71t59 50q0 -20 -10 -102q0 -29 7.5 -40.5t31.5 -11.5q38 0 130 16.5t99 16.5q41 0 60.5 -23.5t19.5 -60.5q0 -30 -26 -80q-40 19 -92 19q-25 0 -56 -6t-55.5 -13t-66.5 -20.5t-66 -20.5q-13 -28 -23.5 -61t-20.5 -85t-14 -73t-14.5 -92t-11.5 -76 q-1 -7 -35.5 -20.5t-46.5 -13.5q-33 0 -33 34q48 132 71 221t23 168q-4 0 -159.5 -37.5t-202.5 -37.5q-39 0 -41 2z" />
<glyph unicode="&#xb2;" horiz-adv-x="858" d="M379 1206q0 13 8 21q137 85 248.5 135.5t220.5 69.5q12 -17 12 -60q0 -102 -106 -231q26 -17 26 -33q35 0 79 5t74 10l30 5q41 0 61 -20q-23 -67 -78 -78q-73 0 -162 -7t-150 -14.5t-67 -7.5q-12 7 -12 23v10q46 41 71 58t48 18q92 68 92 197q0 4 -2.5 19.5t-3.5 25.5 q-144 -32 -222 -67t-126 -83q-2 -11 -10.5 -23t-16.5 -12q-14 0 -14 39z" />
<glyph unicode="&#xb3;" horiz-adv-x="546" d="M313 780q16 20 78 51t123.5 62.5t77.5 54.5q-2 13 -9.5 24t-22 20t-26.5 14.5t-33.5 14.5t-33.5 15l-6 15q13 9 79.5 48.5t108 70t41.5 47.5l-6 51l-86 8q-101 0 -158 -29l-12 -51q-77 22 -98 33q50 34 108.5 55.5t96.5 29t109 17.5t101 15q76 0 117 -41q0 -79 -192 -191 q11 -32 29.5 -48.5t33.5 -17.5t26 -5t11 -15q0 -6 -15.5 -32t-19.5 -38q-181 -69 -246 -107t-75 -97q-42 -6 -84 -17q-10 21 -17 43z" />
<glyph unicode="&#xb4;" horiz-adv-x="612" d="M469 911v7l137 159q10 13 29.5 29.5t35.5 28.5t53 37.5t56 39.5l99 35q9 0 19.5 -5t10.5 -13q0 -16 -20 -39t-39 -33q-141 -70 -201.5 -120.5t-60.5 -98.5v-12q0 -18 -14 -30.5t-54 -29.5q-22 3 -36.5 17t-14.5 28z" />
<glyph unicode="&#xb5;" horiz-adv-x="1228" d="M-152 -582l62 242q7 34 27 74l57 110q21 9 119 207q38 72 67 72h10l3 -8l77 37l193 446q21 37 26 50.5t5 37.5q55 93 135 131l24 -2q0 -22 -42 -97.5t-42 -99.5l-184 -401q-8 -55 -8 -94q0 -9 0.5 -12.5t3 -11.5t10.5 -11.5t21 -3.5q52 0 116.5 32t103.5 62.5t73 63.5 l61 61q12 33 84.5 179.5t99.5 189.5l115 69q0 -5 2 -9.5t2 -8.5q-2 -29 -46.5 -134t-91.5 -220t-52 -166l-9 -88l35 -64q12 -12 45 -12q78 15 152 76q3 -2 13.5 -8.5t15 -10.5t4.5 -8q-33 -23 -107 -63l-123 -52q-17 -10 -53 -10q-70 0 -113 66l-30 166l-199 -132 q-102 -42 -135 -48q-19 -3 -39 -3q-10 0 -66 17l-53 32l6 -22l-117 -168q-23 -34 -43.5 -72t-32.5 -67.5t-21 -54t-13 -37.5l-4 -13q-2 -6 -26.5 -68.5t-44 -123.5t-19.5 -90l-54 -13v86z" />
<glyph unicode="&#xb6;" horiz-adv-x="1069" d="M385 969q8 312 73.5 447.5t223.5 135.5l125 -6q38 0 77 19t65.5 38t35.5 19l119 -53l16 -111v-295l-28 -297q8 8 14 20t17.5 45t26 75.5t47.5 133t73 195.5q58 158 68 255q2 13 3.5 16.5t8.5 3.5q18 0 28.5 -1.5t14.5 -6.5t5 -8t0 -11.5t-1 -11.5q0 -47 -41 -172 q-77 -227 -126 -367t-87 -235.5t-49 -122t-48 -98.5t-47 -93q-37 -161 -71 -252l-86 -243l-39 -60q-24 -14 -39 -14q-2 2 -2 25q0 40 45.5 140t46.5 105q0 25 41 142.5t41 134.5q45 111 95 364.5t50 501.5q0 78 -22.5 120.5t-83.5 61.5h-12q-41 -24 -107 -24l-76 2 q-60 3 -139 -41.5t-132.5 -101t-53.5 -89.5q0 -10 10 -20q-14 -20 -14 -266q50 -72 87 -108.5t85 -63.5q0 -34 6 -64q0 -6 -17 -6q-20 0 -114 25l-47 53zM465 125q0 50 42.5 159.5t106.5 247.5t68 148q24 25 60 119t46 104l127 324l86 98q-30 -98 -52 -149t-48 -80 l-348 -830l-3.5 -80.5t-4 -76.5t-7 -54.5t-14.5 -57.5t-24 -42l-33 92q0 2 2 5t2 5q0 7 -3 34t-3 34z" />
<glyph unicode="&#xb7;" horiz-adv-x="567" d="M252 563q3 61 59 117l82 90q77 53 164 53h125l-20 -37q0 -46 -31 -88q-85 -102 -164.5 -152t-167.5 -50q-18 0 -32.5 21.5t-14.5 45.5z" />
<glyph unicode="&#xb8;" horiz-adv-x="784" d="M25 -258q0 23 31.5 38t62.5 15q12 0 18.5 -13t8.5 -28.5t8.5 -31t17.5 -19.5q22 -29 59 -43t119 -14q47 23 47 71q0 35 -7.5 60.5t-16 36t-16 21t-7.5 20.5q0 19 12 59l121 119l58 -31l-101 -92l9 -37q2 -4 56 -56t54 -67q0 -49 -43 -88.5t-102 -58.5t-117 -19 q-79 6 -175.5 61t-96.5 97z" />
<glyph unicode="&#xb9;" horiz-adv-x="337" d="M289 698l147 519q66 51 119 51q11 0 29 -6q-34 -228 -158 -508l-45 -49q-37 -43 -68 -43q-18 0 -24 36z" />
<glyph unicode="&#xba;" horiz-adv-x="931" d="M262 600v8q0 36 33 92q140 0 252 33q29 8 83 24.5t77 23.5t58 16t58 12t43 2l82 -4q-23 -33 -26 -62q-11 -5 -75 -34.5t-82 -37.5t-69.5 -28.5t-79 -27t-67 -14t-74.5 -7.5q-110 0 -178 4h-35zM356 1071l273 416q83 57 149 57q33 0 69 -17.5t69 -49.5t54 -85.5t21 -117.5 q0 -110 -70.5 -191.5t-177.5 -120t-233 -38.5q-97 29 -122.5 54t-31.5 93zM479 1163q0 -36 60 -100q93 0 156 6.5t117 25t80 55t26 91.5q0 80 -48 100q-128 -79 -149 -79q-55 -99 -86 -99q-14 0 -24.5 14.5t-10.5 30.5q1 10 3.5 25.5t2.5 19.5q0 27 -39 27q-32 0 -56 -34.5 t-32 -82.5z" />
<glyph unicode="&#xbb;" horiz-adv-x="1159" d="M143 33q30 44 117 94q202 116 258 162q-23 78 -125 133q-56 25 -120 58.5t-64 45.5q0 10 14.5 23.5t30.5 19.5q129 -88 141 -92q26 -4 57.5 -14t66.5 -28t58 -47.5t23 -65.5v-19q-51 -90 -200 -186.5t-230 -96.5q-20 0 -27 13zM508 563q12 21 45 21l106 -33l195 -72 q60 -21 150.5 -78t115.5 -92q-12 -16 -37 -22.5t-41 -22.5l-436 -258l17 45q36 36 239 152q74 39 137 112q-85 16 -200.5 62.5t-203 100t-87.5 85.5z" />
<glyph unicode="&#xbc;" horiz-adv-x="1282" d="M68 -8q0 1 2 4t2 4l166 170q121 147 192 223.5t361 366.5l178 188q56 59 87.5 90.5t78 71.5t83.5 58t70 18q17 0 19 -4q-127 -139 -429 -443.5t-454 -476.5l25 -18q-98 -78 -137 -109t-99.5 -77.5t-89.5 -66t-45 -24.5q-10 13 -10 25zM469 698l145 519q70 51 119 51 q13 0 31 -6q-18 -122 -54.5 -237.5t-103.5 -272.5l-47 -47q-46 -46 -70 -46q-20 0 -20 39zM754 207q19 36 20 49l174 258l47 33q54 33 74 33q14 0 14 -19l-145 -244q0 -4 -1 -7t-1 -7q0 -31 41 -31q21 14 57 50q92 92 129.5 118.5t85.5 26.5q5 0 13 -2t12 -2q0 -1 -46 -64.5 t-46 -83.5q5 -4 12 -7.5t10.5 -6t3.5 -6.5q-17 -47 -80 -70q-42 -61 -51 -166q-5 -70 -19 -111t-28.5 -50.5t-31.5 -19t-23 -21.5q-39 8 -49.5 31.5t-10.5 72.5q0 70 33 252q-33 0 -86.5 -4t-64.5 -4q-39 0 -43 2z" />
<glyph unicode="&#xbd;" horiz-adv-x="1390" d="M47 -176q147 186 190 232.5t104 91.5q13 10 21 16q77 101 230 244q6 5 63 51t112.5 91.5t103 96.5t47.5 74q0 15 -9 24q-6 0 -61 -33.5t-62 -33.5q-6 0 -6 2q0 41 38 214.5t38 182.5q34 27 68.5 45.5t46.5 18.5q14 0 24 -13q0 -11 -28.5 -182.5t-28.5 -232.5 q89 96 324 325l96 92l41 13q12 4 74 14q30 0 30 -16l-323 -285l-324 -289q-39 -34 -84 -77t-76.5 -73.5t-83.5 -82t-77 -76.5l-15 -13q-14 -13 -33.5 -31.5t-45.5 -43.5t-51.5 -52.5t-48.5 -54.5t-40.5 -53t-24.5 -45q-5 -7 -14.5 -20t-12 -15.5t-8.5 -10.5t-11.5 -11 t-13.5 -9.5t-22 -14t-29 -17.5t-42 -26.5t-55 -33.5zM705 0l28 51q107 47 150 71t49 42q13 19 29 60.5t16 64.5q0 49 -57 49l-142 -23q125 65 169 80t110 15q36 0 71 -13q27 -73 27 -86q0 -6 -15 -25t-46 -54t-52 -62q-54 -54 -69 -71.5t-15 -26.5t1 -13.5t10 -9t26 -4.5 q33 0 103 11.5t71 11.5q63 0 80 -33q0 -52 -43 -76q-76 27 -145 27h-23l-209 -6q-8 -2 -24 -0.5t-21.5 1.5t-19.5 3t-19 4.5t-19.5 5.5t-20.5 6z" />
<glyph unicode="&#xbe;" horiz-adv-x="1406" d="M51 -203q54 161 189 287q8 12 19 30q17 29 33 44.5t119 104.5q73 64 124 108q38 54 121 144.5t159 165.5t144 140.5t71 69.5q30 32 89 101t106 120t104 106t110 85t97 30q4 0 11.5 -1t11.5 -1q-96 -103 -139 -149t-120 -123.5t-139 -132.5l-850 -918q-24 -32 -51.5 -80.5 t-44.5 -68t-39 -19.5q-48 6 -59 6q-4 -4 -15 -16.5t-15.5 -17t-13 -11t-16.5 -10.5q-6 0 -6 6zM365 780q16 16 138 76.5t144 91.5q-6 23 -39 41t-62.5 29t-29.5 18l-2 15l213 137q14 25 14 45q0 39 -47 39q-72 0 -141.5 -25.5t-69.5 -50.5q-18 6 -40.5 12.5t-35.5 11 t-24 9.5q42 34 98.5 55.5t99 29t114 17t102.5 15.5q73 0 114 -41q0 -32 -20 -63t-48 -52t-56 -38t-48 -26.5t-20 -11.5q8 -32 26 -47.5t35.5 -16t31 -4.5t13.5 -16q0 -9 -8 -20l-33 -52l-229 -98q-76 -45 -92 -106l-80 -17q-4 4 -7 12t-6.5 18.5t-4.5 12.5zM668 178 q0 16 44 54t103 87t82 82q29 41 53 70.5t41 45t26.5 23.5t20.5 13.5t13 7.5q52 35 71 35q15 0 15 -16v-7l-258 -348q22 0 49 4.5t43.5 9t47.5 14t38 11.5l172 213q67 55 123 55q8 -4 26 -6q-62 -84 -82 -112.5t-37.5 -64.5t-17.5 -64q0 -1 1 -4.5t2.5 -10t2.5 -12.5 q30 6 41 6q45 0 45 -26q-35 -25 -75.5 -42.5t-69.5 -17.5q-5 0 -10 1l-4 1q-100 -59 -163.5 -177t-111.5 -327q-19 0 -48 -6t-32 -6q-16 0 -22.5 1t-11.5 8.5t-5 23.5q0 71 41 169.5t117 199.5l8 16q8 17 16.5 38.5t8.5 33.5q0 23 -27 26q-32 0 -139.5 -23.5t-118.5 -25.5 q-18 24 -18 47z" />
<glyph unicode="&#xbf;" horiz-adv-x="1300" d="M166 219q0 97 64.5 169.5t252.5 170.5q95 65 367 156q44 16 68 24.5t58.5 23.5t52.5 27.5t37.5 29.5t27.5 36.5t8 42.5q0 34 -19.5 96.5t-19.5 65.5q0 39 49 60.5t90 21.5q22 0 37.5 -54t15.5 -114q0 -40 -17.5 -74.5t-52 -63.5t-67.5 -50t-82 -46l-377 -155l-198 -109 q-162 -104 -162 -186q0 -44 53.5 -77t135 -48.5t152.5 -22t132 -6.5q79 0 111.5 4.5t85.5 22.5l10 153l29 13q6 -6 24 -23t27 -29t10 -22l-6 -72q-17 -67 -113.5 -100t-212.5 -33q-114 0 -270 33l-248 59q-22 7 -35.5 29.5t-17.5 46.5zM1083 1460q47 38 111 58 q114 36 131 41q0 -55 -56 -87t-116 -32q-53 0 -70 20z" />
<glyph unicode="&#xc0;" horiz-adv-x="1181" d="M84 59l207 430q-55 20 -67 36q-7 10 -7 22q0 74 55 86l70 -12q15 0 23 8l208 313l35 27l189 311q30 51 118 127q0 22 168 190q6 0 11 3l4 2q6 0 7.5 -2.5t2.5 -2.5l27 -98l6 -86q0 -43 -27 -82l-47 -301q-35 -102 -57 -213q0 -13 20 -24l137 51l273 168h26v-4 q-6 -12 -6 -23l-178 -147l-311 -191q-10 -34 -31.5 -90.5t-31 -98t-9.5 -96.5q-17 -36 -38.5 -163t-48.5 -251t-58 -165q-6 0 -15 20q0 45 25 189l27 160q15 58 46.5 159.5t52 178.5t25.5 133q-27 10 -45 10q-36 0 -142 -53.5t-114 -53.5q-115 -43 -256 -43l-94 -213 q12 -20 21 -20l-19 -27q-6 -9 -30 -34.5t-44.5 -54.5t-31.5 -62q-17 -47 -49 -47q-21 9 -27 34zM467 633q2 -4 16 -4l162 24l297 92q109 311 109 709l-101 -90q-5 -11 -64.5 -86.5t-68.5 -103.5q-21 -21 -60 -81.5t-42 -62.5q-35 -50 -37 -78l-162 -221zM924 1952 q0 46 45 59q20 -6 20 -24q11 -38 38.5 -73t60 -62.5t65 -55.5t59 -64t35.5 -77q-35 -27 -43 -27q0 2 -4.5 19t-13 37t-15.5 24q-26 16 -74 43t-71 42t-51 39.5t-39.5 53.5t-11.5 66z" />
<glyph unicode="&#xc1;" horiz-adv-x="1181" d="M84 59l207 430q-55 20 -67 36q-7 10 -7 22q0 74 55 86l70 -12q15 0 23 8l208 313l35 27l189 311q30 51 118 127q0 22 168 190q6 0 11 3l4 2q6 0 7.5 -2.5t2.5 -2.5l27 -98l6 -86q0 -43 -27 -82l-47 -301q-35 -102 -57 -213q0 -13 20 -24l137 51l273 168h26v-4 q-6 -12 -6 -23l-178 -147l-311 -191q-10 -34 -31.5 -90.5t-31 -98t-9.5 -96.5q-17 -36 -38.5 -163t-48.5 -251t-58 -165q-6 0 -15 20q0 45 25 189l27 160q15 58 46.5 159.5t52 178.5t25.5 133q-27 10 -45 10q-36 0 -142 -53.5t-114 -53.5q-115 -43 -256 -43l-94 -213 q12 -20 21 -20l-19 -27q-6 -9 -30 -34.5t-44.5 -54.5t-31.5 -62q-17 -47 -49 -47q-21 9 -27 34zM467 633q2 -4 16 -4l162 24l297 92q109 311 109 709l-101 -90q-5 -11 -64.5 -86.5t-68.5 -103.5q-21 -21 -60 -81.5t-42 -62.5q-35 -50 -37 -78l-162 -221zM930 1634v6l137 160 q10 12 29.5 28t36.5 28.5t52 37t56 39.5l98 37q10 0 20.5 -5t10.5 -13q0 -17 -19.5 -39.5t-39.5 -32.5q-140 -69 -201 -121t-61 -98v-12q0 -19 -14 -32t-54 -28q-22 3 -36.5 17t-14.5 28z" />
<glyph unicode="&#xc2;" horiz-adv-x="1181" d="M84 59l207 430q-55 20 -67 36q-7 10 -7 22q0 74 55 86l70 -12q15 0 23 8l208 313l35 27l189 311q30 51 118 127q0 22 168 190q6 0 11 3l4 2q6 0 7.5 -2.5t2.5 -2.5l27 -98l6 -86q0 -43 -27 -82l-47 -301q-35 -102 -57 -213q0 -13 20 -24l137 51l273 168h26v-4 q-6 -12 -6 -23l-178 -147l-311 -191q-10 -34 -31.5 -90.5t-31 -98t-9.5 -96.5q-17 -36 -38.5 -163t-48.5 -251t-58 -165q-6 0 -15 20q0 45 25 189l27 160q15 58 46.5 159.5t52 178.5t25.5 133q-27 10 -45 10q-36 0 -142 -53.5t-114 -53.5q-115 -43 -256 -43l-94 -213 q12 -20 21 -20l-19 -27q-6 -9 -30 -34.5t-44.5 -54.5t-31.5 -62q-17 -47 -49 -47q-21 9 -27 34zM467 633q2 -4 16 -4l162 24l297 92q109 311 109 709l-101 -90q-5 -11 -64.5 -86.5t-68.5 -103.5q-21 -21 -60 -81.5t-42 -62.5q-35 -50 -37 -78l-162 -221zM594 1499l6 12 q4 7 9.5 25t13.5 30t26 21q174 94 297 217q24 24 63 76.5t67.5 90.5t35.5 38q13 0 42.5 -19.5t35.5 -19.5q11 -29 29.5 -61t45.5 -66.5t49 -62t57 -64t51 -53t49 -49t34 -33.5q-10 -27 -18 -27q-3 0 -22 16.5t-25 16.5q-4 0 -15 -8t-18 -8q-17 0 -27 10q2 0 2 4 q0 14 -48.5 67t-51.5 64q-16 3 -83 65t-95 62q-70 -48 -191 -147q-201 -167 -319 -197z" />
<glyph unicode="&#xc3;" horiz-adv-x="1181" d="M84 59l207 430q-55 20 -67 36q-7 10 -7 22q0 74 55 86l70 -12q15 0 23 8l208 313l35 27l189 311q30 51 118 127q0 22 168 190q6 0 11 3l4 2q6 0 7.5 -2.5t2.5 -2.5l27 -98l6 -86q0 -43 -27 -82l-47 -301q-35 -102 -57 -213q0 -13 20 -24l137 51l273 168h26v-4 q-6 -12 -6 -23l-178 -147l-311 -191q-10 -34 -31.5 -90.5t-31 -98t-9.5 -96.5q-17 -36 -38.5 -163t-48.5 -251t-58 -165q-6 0 -15 20q0 45 25 189l27 160q15 58 46.5 159.5t52 178.5t25.5 133q-27 10 -45 10q-36 0 -142 -53.5t-114 -53.5q-115 -43 -256 -43l-94 -213 q12 -20 21 -20l-19 -27q-6 -9 -30 -34.5t-44.5 -54.5t-31.5 -62q-17 -47 -49 -47q-21 9 -27 34zM467 633q2 -4 16 -4l162 24l297 92q109 311 109 709l-101 -90q-5 -11 -64.5 -86.5t-68.5 -103.5q-21 -21 -60 -81.5t-42 -62.5q-35 -50 -37 -78l-162 -221zM864 1794 q25 8 92 50t113 42q47 0 137.5 -43t132.5 -43q12 0 51.5 47t61.5 47q30 0 41.5 -10t11.5 -35q0 -37 -35 -55q-20 -5 -41.5 -25t-45 -36.5t-52.5 -16.5q-46 0 -124.5 42t-125.5 42q-39 0 -109.5 -14t-101.5 -17z" />
<glyph unicode="&#xc4;" horiz-adv-x="1181" d="M84 59l207 430q-55 20 -67 36q-7 10 -7 22q0 74 55 86l70 -12q15 0 23 8l208 313l35 27l189 311q30 51 118 127q0 22 168 190q6 0 11 3l4 2q6 0 7.5 -2.5t2.5 -2.5l27 -98l6 -86q0 -43 -27 -82l-47 -301q-35 -102 -57 -213q0 -13 20 -24l137 51l273 168h26v-4 q-6 -12 -6 -23l-178 -147l-311 -191q-10 -34 -31.5 -90.5t-31 -98t-9.5 -96.5q-17 -36 -38.5 -163t-48.5 -251t-58 -165q-6 0 -15 20q0 45 25 189l27 160q15 58 46.5 159.5t52 178.5t25.5 133q-27 10 -45 10q-36 0 -142 -53.5t-114 -53.5q-115 -43 -256 -43l-94 -213 q12 -20 21 -20l-19 -27q-6 -9 -30 -34.5t-44.5 -54.5t-31.5 -62q-17 -47 -49 -47q-21 9 -27 34zM467 633q2 -4 16 -4l162 24l297 92q109 311 109 709l-101 -90q-5 -11 -64.5 -86.5t-68.5 -103.5q-21 -21 -60 -81.5t-42 -62.5q-35 -50 -37 -78l-162 -221zM907 1774q0 12 2 14 l117 63q3 -8 14 -29t16 -36t5 -33l-57 -43l-11 -10l-71 47q-15 15 -15 27zM1247 1780v12l43 53l29 2l12 -32q66 -17 66 -66q0 -29 -18 -45t-42 -16z" />
<glyph unicode="&#xc5;" horiz-adv-x="1181" d="M84 59l207 430q-55 20 -67 36q-7 10 -7 22q0 74 55 86l70 -12q15 0 23 8l208 313l35 27l189 311q30 51 118 127q0 22 168 190q6 0 11 3l4 2q6 0 7.5 -2.5t2.5 -2.5l27 -98l6 -86q0 -43 -27 -82l-47 -301q-35 -102 -57 -213q0 -13 20 -24l137 51l273 168h26v-4 q-6 -12 -6 -23l-178 -147l-311 -191q-10 -34 -31.5 -90.5t-31 -98t-9.5 -96.5q-17 -36 -38.5 -163t-48.5 -251t-58 -165q-6 0 -15 20q0 45 25 189l27 160q15 58 46.5 159.5t52 178.5t25.5 133q-27 10 -45 10q-36 0 -142 -53.5t-114 -53.5q-115 -43 -256 -43l-94 -213 q12 -20 21 -20l-19 -27q-6 -9 -30 -34.5t-44.5 -54.5t-31.5 -62q-17 -47 -49 -47q-21 9 -27 34zM467 633q2 -4 16 -4l162 24l297 92q109 311 109 709l-101 -90q-5 -11 -64.5 -86.5t-68.5 -103.5q-21 -21 -60 -81.5t-42 -62.5q-35 -50 -37 -78l-162 -221zM975 1794 q0 73 73.5 141t170.5 68q139 0 139 -143q0 -95 -84 -150t-199 -55q-49 12 -74 51q-26 39 -26 88zM1028 1774q0 -21 41 -66q13 0 24.5 0.5t23 2t19 2t18.5 3t15.5 3.5t16.5 4.5t14 4t15 5t14 4.5q69 25 69 98q0 76 -26 92q-1 0 -18 -9.5t-39 -19.5t-35 -10h-66 q-40 -7 -63 -31t-23 -83z" />
<glyph unicode="&#xc6;" horiz-adv-x="1671" d="M63 68q0 10 3 16q190 384 496.5 706.5t629.5 475.5q7 -2 22.5 -28t20.5 -26q89 0 212 9t213 18.5t99 9.5q79 0 125 -4l96 -18q11 -26 11 -37q0 -16 -13.5 -25t-28 -10.5t-38.5 -1.5q-37 0 -106 8t-103 8q-76 0 -183.5 -9.5t-187.5 -19.5t-90 -10q-37 -12 -58 -25 t-30.5 -31.5t-13.5 -36.5t-11.5 -52t-19.5 -65q-82 -230 -82 -242q32 0 211 8t205 8l-10 -47q-1 -1 -11 -7t-18 -11t-23 -13.5t-29 -15t-32 -15t-36 -14.5t-37 -11t-39.5 -8t-39.5 -3l-118 6l-74 -6l-105 -430q0 -15 31 -15l426 107q236 60 387 55l80 -2v-65 q-109 0 -317.5 -43.5t-382 -87t-197.5 -43.5l-80 8q-20 -27 -35 -58.5t-32 -80t-19 -52.5q-23 35 -57 60l-23 20q2 26 115 215q-22 13 -76.5 94.5t-119 168.5t-109.5 114q-159 -182 -219 -264.5t-140 -216.5q-39 9 -39 35zM553 623q4 2 24.5 10.5t26.5 10.5t21 6.5t25.5 5 t21.5 -0.5l157 -8l86 6q14 21 33 73.5t33.5 99.5t40 131t35.5 118h-8q-17 0 -72 -24l-139 -80q-142 -142 -174 -207q-67 -39 -111 -141zM592 559q29 -25 110.5 -167t106.5 -167q35 255 94 324z" />
<glyph unicode="&#xc7;" horiz-adv-x="1116" d="M43 -303q0 23 31.5 38t62.5 15q12 0 18.5 -13t8.5 -28.5t8.5 -31t17.5 -19.5q22 -29 59.5 -43t119.5 -14q47 23 47 71q0 45 -12 72.5t-23.5 41t-11.5 24.5q0 18 12 59l121 119l57 -31l-100 -92l8 -37q2 -4 56.5 -56t54.5 -67q0 -49 -43 -88.5t-102.5 -58.5t-117.5 -19 q-79 6 -175.5 61t-96.5 97zM160 240q0 97 30 168q33 85 53.5 133t42.5 97.5t38 86.5l67 164q16 2 49 31l62 90q24 24 139.5 157.5t187.5 190.5q6 3 91.5 56.5t115.5 64.5l119 -2l51 -33q43 -55 43 -139q0 -98 -47 -185q-28 0 -28 8l-7 213l-90 52q-40 0 -148.5 -54.5 t-117.5 -56.5l-362 -426l-211 -412l-9 -75q0 -156 95.5 -229.5t263.5 -73.5q50 0 131 12l147 53q34 12 82 41.5t82.5 51t46.5 20.5l-39 -92q-92 -96 -230.5 -152.5t-287.5 -56.5l-59 4q-127 6 -214 87.5t-87 205.5z" />
<glyph unicode="&#xc8;" horiz-adv-x="892" d="M190 190q0 21 6.5 53.5t16.5 71.5t12 47l33 56l160 352q9 19 38 53t31 70q0 29 -39.5 130t-39.5 124q0 76 11.5 118t27.5 58.5t55 41.5q9 6 14 9q118 55 221 84t166 29q111 0 192 -12.5t81 -36.5q0 -22 -21 -31l-131 -8q-115 -8 -215 -24.5t-184 -42t-132.5 -64.5 t-48.5 -86q0 -35 10 -80t19.5 -76.5t9.5 -34.5l45 -35l127 152q4 -4 4 -12q0 -10 -12 -25v-37l-110 -162l-88 -153q14 -14 24 -14l275 32l-7 -75q-129 -76 -364 -76q-48 -81 -74.5 -145t-26.5 -126q0 -54 20.5 -95t49.5 -63.5t67.5 -36.5t67.5 -18t56 -4q82 0 254 41 q-50 -85 -103 -120.5t-141 -57.5q-60 0 -120.5 13t-114.5 39.5t-88 72t-34 104.5zM688 1976q0 47 45 60q21 -6 21 -25q11 -38 38.5 -73t60 -62.5t65 -55.5t59 -64t35.5 -77q-33 -26 -43 -26q0 2 -4.5 19t-13 37t-15.5 24q-25 16 -63 37t-60.5 34t-49 32.5t-41 37.5 t-24.5 44.5t-10 57.5z" />
<glyph unicode="&#xc9;" horiz-adv-x="892" d="M190 190q0 21 6.5 53.5t16.5 71.5t12 47l33 56l160 352q9 19 38 53t31 70q0 29 -39.5 130t-39.5 124q0 76 11.5 118t27.5 58.5t55 41.5q9 6 14 9q118 55 221 84t166 29q111 0 192 -12.5t81 -36.5q0 -22 -21 -31l-131 -8q-115 -8 -215 -24.5t-184 -42t-132.5 -64.5 t-48.5 -86q0 -35 10 -80t19.5 -76.5t9.5 -34.5l45 -35l127 152q4 -4 4 -12q0 -10 -12 -25v-37l-110 -162l-88 -153q14 -14 24 -14l275 32l-7 -75q-129 -76 -364 -76q-48 -81 -74.5 -145t-26.5 -126q0 -54 20.5 -95t49.5 -63.5t67.5 -36.5t67.5 -18t56 -4q82 0 254 41 q-50 -85 -103 -120.5t-141 -57.5q-60 0 -120.5 13t-114.5 39.5t-88 72t-34 104.5zM819 1657v6l137 160q10 12 29.5 28t36.5 28.5t52 37t56 39.5l99 37q9 0 20 -5.5t11 -13.5q0 -17 -20 -39t-40 -32q-140 -69 -201 -121t-61 -99v-12q0 -19 -14 -31.5t-54 -27.5 q-22 3 -36.5 17t-14.5 28z" />
<glyph unicode="&#xca;" horiz-adv-x="892" d="M190 190q0 21 6.5 53.5t16.5 71.5t12 47l33 56l160 352q9 19 38 53t31 70q0 29 -39.5 130t-39.5 124q0 76 11.5 118t27.5 58.5t55 41.5q9 6 14 9q118 55 221 84t166 29q111 0 192 -12.5t81 -36.5q0 -22 -21 -31l-131 -8q-115 -8 -215 -24.5t-184 -42t-132.5 -64.5 t-48.5 -86q0 -35 10 -80t19.5 -76.5t9.5 -34.5l45 -35l127 152q4 -4 4 -12q0 -10 -12 -25v-37l-110 -162l-88 -153q14 -14 24 -14l275 32l-7 -75q-129 -76 -364 -76q-48 -81 -74.5 -145t-26.5 -126q0 -54 20.5 -95t49.5 -63.5t67.5 -36.5t67.5 -18t56 -4q82 0 254 41 q-50 -85 -103 -120.5t-141 -57.5q-60 0 -120.5 13t-114.5 39.5t-88 72t-34 104.5zM473 1577l6 12q4 7 9.5 25t13.5 30t26 21q174 94 297 217q24 24 63 76.5t67.5 90.5t35.5 38q13 0 42.5 -19.5t35.5 -19.5q11 -29 29.5 -61t45.5 -66.5t49 -62t57 -64t51 -53t49 -49t34 -33.5 q-10 -27 -18 -27q-4 0 -22 16.5t-25 16.5q-3 0 -15 -8t-18 -8q-16 0 -26 10q2 0 2 4q0 14 -49 67t-52 64q-16 3 -83 65t-95 62q-63 -44 -190 -147q-200 -167 -320 -197z" />
<glyph unicode="&#xcb;" horiz-adv-x="892" d="M190 190q0 21 6.5 53.5t16.5 71.5t12 47l33 56l160 352q9 19 38 53t31 70q0 29 -39.5 130t-39.5 124q0 76 11.5 118t27.5 58.5t55 41.5q9 6 14 9q118 55 221 84t166 29q111 0 192 -12.5t81 -36.5q0 -22 -21 -31l-131 -8q-115 -8 -215 -24.5t-184 -42t-132.5 -64.5 t-48.5 -86q0 -35 10 -80t19.5 -76.5t9.5 -34.5l45 -35l127 152q4 -4 4 -12q0 -10 -12 -25v-37l-110 -162l-88 -153q14 -14 24 -14l275 32l-7 -75q-129 -76 -364 -76q-48 -81 -74.5 -145t-26.5 -126q0 -54 20.5 -95t49.5 -63.5t67.5 -36.5t67.5 -18t56 -4q82 0 254 41 q-50 -85 -103 -120.5t-141 -57.5q-60 0 -120.5 13t-114.5 39.5t-88 72t-34 104.5zM719 1759q0 13 2 15l117 63q3 -7 14 -28.5t15.5 -36.5t4.5 -33l-57 -43l-10 -10l-72 47q-14 14 -14 26zM1059 1765v13l43 53l28 2l13 -33q35 -9 50 -24.5t15 -40.5q0 -29 -17.5 -45.5 t-41.5 -16.5z" />
<glyph unicode="&#xcc;" horiz-adv-x="499" d="M190 45q0 136 76 317l137 318q25 25 62 119.5t45 103.5q31 52 63 184l66 140l86 98l61 21q-26 -85 -67 -134l-96 -116l-347 -830q-2 -28 -4.5 -81t-4.5 -75.5t-7 -56t-14 -56t-23 -42.5zM541 1716q0 47 45 60q20 -6 20 -25q11 -38 38.5 -73t60 -62.5t65 -55.5t59 -64 t35.5 -77q-33 -26 -43 -26q0 2 -4.5 19t-13 37t-15.5 24q-27 17 -74.5 43.5t-70.5 41.5t-51 39.5t-39.5 53t-11.5 65.5z" />
<glyph unicode="&#xcd;" horiz-adv-x="499" d="M190 45q0 136 76 317l137 318q25 25 62 119.5t45 103.5q31 52 63 184l66 140l86 98l61 21q-26 -85 -67 -134l-96 -116l-347 -830q-2 -28 -4.5 -81t-4.5 -75.5t-7 -56t-14 -56t-23 -42.5zM510 1405v6l137 160q10 12 29.5 28t36.5 28.5t52 37t56 39.5l99 37q9 0 19.5 -5.5 t10.5 -13.5q0 -17 -19.5 -39t-39.5 -32q-140 -69 -201 -121t-61 -98v-13q0 -19 -14 -31.5t-54 -27.5q-22 3 -36.5 17t-14.5 28z" />
<glyph unicode="&#xce;" horiz-adv-x="499" d="M190 45q0 136 76 317l137 318q25 25 62 119.5t45 103.5q31 52 63 184l66 140l86 98l61 21q-26 -85 -67 -134l-96 -116l-347 -830q-2 -28 -4.5 -81t-4.5 -75.5t-7 -56t-14 -56t-23 -42.5zM328 1352l6 12q4 7 9.5 25t13.5 30t26 21q174 94 297 217q24 24 63 76.5t67.5 90.5 t35.5 38q13 0 42.5 -19.5t35.5 -19.5q11 -29 29.5 -61t45.5 -66.5t49 -62t57 -64t51 -53t49 -49t34 -33.5q-10 -27 -18 -27q-3 0 -22 16.5t-25 16.5q-4 0 -15 -8.5t-18 -8.5q-16 0 -27 11q2 0 2 4q0 14 -48.5 67t-51.5 64q-16 3 -83 65t-95 62q-61 -42 -191 -148 q-199 -166 -319 -196z" />
<glyph unicode="&#xcf;" horiz-adv-x="499" d="M190 45q0 136 76 317l137 318q25 25 62 119.5t45 103.5q31 52 63 184l66 140l86 98l61 21q-26 -85 -67 -134l-96 -116l-347 -830q-2 -28 -4.5 -81t-4.5 -75.5t-7 -56t-14 -56t-23 -42.5zM571 1563q0 12 2 14l117 63q3 -8 14 -29t16 -36t5 -33l-57 -43l-11 -10l-71 47 q-15 15 -15 27zM911 1569v12l43 53l29 2l12 -32q66 -17 66 -66q0 -29 -18 -45t-42 -16z" />
<glyph unicode="&#xd0;" horiz-adv-x="950" d="M88 104q0 29 6 46t31 55l33 24l39 9l-58 -105q34 -56 185 -74q141 21 256 104t239 259q5 0 21 66.5t30.5 158t14.5 146.5q0 46 -4.5 100t-13 122t-11.5 105l-55 135q-38 98 -60 129q-15 -52 -33.5 -127.5t-32 -123.5t-28.5 -82l-119 -254h220l-21 -43q-31 -13 -120 -27.5 t-105 -19.5l-21 -56l-37 -69q-5 -9 -14 -26.5t-14 -27t-13 -24.5t-13 -23t-12 -19t-12.5 -17t-12 -12t-12 -8.5t-11.5 -2.5l86 278l-121 -12q-25 -2 -141 -2l-56 21v6q0 21 23 65q157 29 328 29l88 237l24 7l146 381q-13 12 -15 20q-5 14 -74 107t-83 137q-3 3 -26.5 25 t-29 27.5t-25.5 25t-27 28t-21.5 26t-21 29.5t-14.5 27.5t-12 30.5l-43 98q9 51 29 51l217 -297q33 -17 53 -45l45 -71q3 -13 46 -67t43 -79l131 -245l-7 -13l33 -84q31 -146 31 -233q0 -72 -12 -107q2 -4 2 -43q-1 -6 -1.5 -39t-1.5 -61.5t-3 -28.5l-82 -241 q-21 -104 -99 -187l-84 -92l-32 -12q-24 -47 -72 -80.5t-99 -47.5t-82 -19t-46 -5q-89 0 -162.5 36.5t-73.5 100.5z" />
<glyph unicode="&#xd1;" horiz-adv-x="1083" d="M-74 -377l88 266l33 39l328 758q45 0 79.5 208.5t34.5 307.5q13 6 23.5 37.5t24.5 62.5t36 37l66 -100q0 -4 6 -4q15 0 21 4q-19 -49 -19 -78q0 -3 7.5 -44.5t15.5 -98.5t8 -98l127 -650q13 -30 25.5 -48t22.5 -27t13 -15l113 217l156 523q34 99 65 266 q62 158 90.5 208.5t75.5 69.5q-8 -50 -53 -133q-45 -82 -70.5 -141.5t-33.5 -87t-20 -88t-22 -99.5l-59 -217q-30 -53 -51 -118.5t-32 -109.5t-21 -54l-62 -250l-24 -33l-62 -147l-49 -11l-86 183v26l-62 232l7 28q-12 34 -23.5 101t-20 133.5t-19.5 129.5t-27.5 102.5 t-38.5 39.5q0 -1 -15 -51t-31 -101.5t-46 -135t-62 -160.5q-10 -13 -23 -51t-38 -103t-58 -129l-125 -299l-26 -6l-60 -133l-94 -176l-18 -2zM700 1464q25 8 92 50t113 42q47 0 138 -43t133 -43q12 0 51 47.5t61 47.5q30 0 41.5 -10t11.5 -35q0 -38 -34 -56q-17 -4 -34 -17 t-29.5 -26.5t-33 -24t-43.5 -10.5q-46 0 -124 42t-125 42q-40 0 -110 -13.5t-101 -16.5z" />
<glyph unicode="&#xd2;" horiz-adv-x="870" d="M217 250q0 130 92 421l23 66l117 160q15 22 32 68q-5 0 28 59.5t82.5 125t82.5 77.5l-29 -219q-8 1 -23.5 17.5t-21.5 16.5l-158 -272q-2 -4 -16.5 -23.5t-25.5 -39t-11 -33.5l-39 -60v-26l-39 -51l-2 -371l125 -88q104 0 174 53q3 3 28.5 41.5t77 110t105.5 139.5 q39 50 70 160.5t31 195.5q0 229 -140 471l-65 156l22 59l129 -192q57 -162 75.5 -218t33 -124t14.5 -133q0 -87 -27.5 -180.5t-46.5 -127.5l-81 -139q-62 -99 -113 -125l-66 -119q-16 -11 -61 -43.5t-69.5 -48.5t-62 -31.5t-67.5 -15.5q-98 41 -138 110.5t-40 172.5z M391 1577q0 46 45 59q21 -6 21 -24q11 -38 38.5 -73t60 -62.5t65 -55.5t59 -64t35.5 -77q-35 -27 -43 -27q0 2 -4.5 19t-13 37t-15.5 24q-25 16 -63 37.5t-60 34t-49 32.5t-41.5 38t-24.5 44.5t-10 57.5z" />
<glyph unicode="&#xd3;" horiz-adv-x="870" d="M217 250q0 130 92 421l23 66l117 160q15 22 32 68q-5 0 28 59.5t82.5 125t82.5 77.5l-29 -219q-8 1 -23.5 17.5t-21.5 16.5l-158 -272q-2 -4 -16.5 -23.5t-25.5 -39t-11 -33.5l-39 -60v-26l-39 -51l-2 -371l125 -88q104 0 174 53q3 3 28.5 41.5t77 110t105.5 139.5 q39 50 70 160.5t31 195.5q0 229 -140 471l-65 156l22 59l129 -192q57 -162 75.5 -218t33 -124t14.5 -133q0 -87 -27.5 -180.5t-46.5 -127.5l-81 -139q-62 -99 -113 -125l-66 -119q-16 -11 -61 -43.5t-69.5 -48.5t-62 -31.5t-67.5 -15.5q-98 41 -138 110.5t-40 172.5z M483 1425v7l138 159q10 12 29.5 28t36.5 28.5t52 37t56 39.5l98 37q9 0 20 -5t11 -13q0 -17 -20 -39.5t-40 -32.5q-140 -69 -201 -121t-61 -98v-12q0 -20 -13.5 -33t-53.5 -27q-22 3 -37 17t-15 28z" />
<glyph unicode="&#xd4;" horiz-adv-x="870" d="M217 250q0 130 92 421l23 66l117 160q15 22 32 68q-5 0 28 59.5t82.5 125t82.5 77.5l-29 -219q-8 1 -23.5 17.5t-21.5 16.5l-158 -272q-2 -4 -16.5 -23.5t-25.5 -39t-11 -33.5l-39 -60v-26l-39 -51l-2 -371l125 -88q104 0 174 53q3 3 28.5 41.5t77 110t105.5 139.5 q39 50 70 160.5t31 195.5q0 229 -140 471l-65 156l22 59l129 -192q57 -162 75.5 -218t33 -124t14.5 -133q0 -87 -27.5 -180.5t-46.5 -127.5l-81 -139q-62 -99 -113 -125l-66 -119q-16 -11 -61 -43.5t-69.5 -48.5t-62 -31.5t-67.5 -15.5q-98 41 -138 110.5t-40 172.5z M256 1133l6 12q4 7 9.5 25t13.5 30t26 21q174 94 297 217q24 24 63 76l67.5 90t35.5 38q13 0 42.5 -19t35.5 -19q10 -25 27 -54.5t35 -55t44.5 -58t45.5 -54.5t49 -53t44 -45l40.5 -40.5l29.5 -29.5q-10 -26 -18 -26q-3 0 -22 16.5t-25 16.5q-4 0 -15 -8.5t-18 -8.5 q-17 0 -27 10q2 0 2 5q0 14 -48.5 67t-51.5 64q-16 3 -83 65t-95 62q-61 -42 -191 -148q-199 -166 -319 -196z" />
<glyph unicode="&#xd5;" horiz-adv-x="870" d="M217 250q0 130 92 421l23 66l117 160q15 22 32 68q-5 0 28 59.5t82.5 125t82.5 77.5l-29 -219q-8 1 -23.5 17.5t-21.5 16.5l-158 -272q-2 -4 -16.5 -23.5t-25.5 -39t-11 -33.5l-39 -60v-26l-39 -51l-2 -371l125 -88q104 0 174 53q3 3 28.5 41.5t77 110t105.5 139.5 q39 50 70 160.5t31 195.5q0 229 -140 471l-65 156l22 59l129 -192q57 -162 75.5 -218t33 -124t14.5 -133q0 -87 -27.5 -180.5t-46.5 -127.5l-81 -139q-62 -99 -113 -125l-66 -119q-16 -11 -61 -43.5t-69.5 -48.5t-62 -31.5t-67.5 -15.5q-98 41 -138 110.5t-40 172.5z M475 1473q25 8 92 50t113 42q47 0 137.5 -43t132.5 -43q12 0 51.5 47t61.5 47q30 0 41.5 -10t11.5 -35q0 -37 -35 -55q-20 -5 -41.5 -25t-45 -36.5t-52.5 -16.5q-46 0 -124.5 42t-125.5 42q-39 0 -109.5 -14t-101.5 -17z" />
<glyph unicode="&#xd6;" horiz-adv-x="870" d="M217 250q0 130 92 421l23 66l117 160q15 22 32 68q-5 0 28 59.5t82.5 125t82.5 77.5l-29 -219q-8 1 -23.5 17.5t-21.5 16.5l-158 -272q-2 -4 -16.5 -23.5t-25.5 -39t-11 -33.5l-39 -60v-26l-39 -51l-2 -371l125 -88q104 0 174 53q3 3 28.5 41.5t77 110t105.5 139.5 q39 50 70 160.5t31 195.5q0 229 -140 471l-65 156l22 59l129 -192q57 -162 75.5 -218t33 -124t14.5 -133q0 -87 -27.5 -180.5t-46.5 -127.5l-81 -139q-62 -99 -113 -125l-66 -119q-16 -11 -61 -43.5t-69.5 -48.5t-62 -31.5t-67.5 -15.5q-98 41 -138 110.5t-40 172.5z M545 1423q0 13 2 15l117 63q3 -7 14 -28.5t15.5 -36.5t4.5 -33l-57 -43l-10 -10l-72 47q-14 14 -14 26zM885 1430v12l43 53l28 2l13 -33q35 -9 50 -24.5t15 -40.5q0 -29 -17.5 -45.5t-41.5 -16.5z" />
<glyph unicode="&#xd7;" horiz-adv-x="1177" d="M176 752l107 32l82 -65q94 -76 98 -84q106 -169 184 -193q4 3 22 27t31 31l205 155q15 4 64 51.5t75 47.5q17 0 19 -2l41 -47l-180 -109l-133 -109l-109 -106q69 -65 188 -111l191 -71l-19 -119q-69 17 -309 119l-160 67q-91 -77 -153 -138t-83.5 -88t-38.5 -46.5 t-32 -28.5l-49 -12l-4 86q28 58 96.5 121.5t225.5 183.5q-15 15 -22.5 23.5t-23.5 32t-45 69.5q-13 32 -58 61t-85 48t-43 28z" />
<glyph unicode="&#xd8;" horiz-adv-x="870" d="M20 -80q149 227 275 346l242 262q13 11 39.5 44t63 81.5t66 89t67.5 92.5t48 66l49 68q18 31 65 94.5t66 93.5l99 152q42 6 65 6h13q-30 -109 -85.5 -196t-191.5 -236l-348 -447q-129 -133 -199 -225l-55 -66l-160 -217q-62 -32 -94 -32q-25 0 -25 18v6zM217 250 q0 130 92 421l23 66l117 160q15 22 32 68q-5 0 28 59.5t82.5 125t82.5 77.5l-29 -219q-8 1 -23.5 17.5t-21.5 16.5l-158 -272q-2 -4 -16.5 -23.5t-25.5 -39t-11 -33.5l-39 -60v-26l-39 -51l-2 -371l125 -88q104 0 174 53q3 3 28.5 41.5t77 110t105.5 139.5q39 50 70 160.5 t31 195.5q0 229 -140 471l-65 156l22 59l129 -192q57 -162 75.5 -218t33 -124t14.5 -133q0 -87 -27.5 -180.5t-46.5 -127.5l-81 -139q-62 -99 -113 -125l-66 -119q-16 -11 -61 -43.5t-69.5 -48.5t-62 -31.5t-67.5 -15.5q-98 41 -138 110.5t-40 172.5z" />
<glyph unicode="&#xd9;" horiz-adv-x="839" d="M158 180q0 53 24 169t62 188l125 237l80 103l94 98q19 24 28.5 35.5t29 25.5t40.5 19l6 -11l-203 -274l-96 -156v-20l-69 -213q-11 -7 -13.5 -36.5t-7.5 -39.5q12 -102 14 -112q27 -107 162 -107q90 0 174.5 83t143.5 206q9 39 63.5 177.5t54.5 186.5q23 36 38.5 83.5 t21.5 79t21 54.5t40 23q10 0 10 -4l-30 -174l-62 -213q-27 -50 -75 -140q-54 -103 -80 -149.5t-70 -113.5t-77 -94.5t-83.5 -59t-109 -41.5t-135.5 -10l-35 14l-54 59q-14 19 -23 56t-9 71zM653 1473q0 46 45 59q21 -6 21 -25q11 -38 38.5 -73t60 -62t65 -55t59 -64 t35.5 -77q-34 -27 -43 -27q0 2 -4.5 19t-13 37t-15.5 24q-25 16 -63 37.5t-60 34t-49 32.5t-41.5 38t-24.5 44.5t-10 57.5z" />
<glyph unicode="&#xda;" horiz-adv-x="839" d="M158 180q0 53 24 169t62 188l125 237l80 103l94 98q19 24 28.5 35.5t29 25.5t40.5 19l6 -11l-203 -274l-96 -156v-20l-69 -213q-11 -7 -13.5 -36.5t-7.5 -39.5q12 -102 14 -112q27 -107 162 -107q90 0 174.5 83t143.5 206q9 39 63.5 177.5t54.5 186.5q23 36 38.5 83.5 t21.5 79t21 54.5t40 23q10 0 10 -4l-30 -174l-62 -213q-27 -50 -75 -140q-54 -103 -80 -149.5t-70 -113.5t-77 -94.5t-83.5 -59t-109 -41.5t-135.5 -10l-35 14l-54 59q-14 19 -23 56t-9 71zM748 1149v6l137 160q10 12 29.5 28t36.5 28.5t52 37t56 39.5l98 37q9 0 20 -5.5 t11 -13.5q0 -17 -20 -39t-40 -32q-140 -69 -201 -121t-61 -98v-13q0 -19 -13.5 -31.5t-53.5 -27.5q-22 3 -36.5 17t-14.5 28z" />
<glyph unicode="&#xdb;" horiz-adv-x="839" d="M158 180q0 53 24 169t62 188l125 237l80 103l94 98q19 24 28.5 35.5t29 25.5t40.5 19l6 -11l-203 -274l-96 -156v-20l-69 -213q-11 -7 -13.5 -36.5t-7.5 -39.5q12 -102 14 -112q27 -107 162 -107q90 0 174.5 83t143.5 206q9 39 63.5 177.5t54.5 186.5q23 36 38.5 83.5 t21.5 79t21 54.5t40 23q10 0 10 -4l-30 -174l-62 -213q-27 -50 -75 -140q-54 -103 -80 -149.5t-70 -113.5t-77 -94.5t-83.5 -59t-109 -41.5t-135.5 -10l-35 14l-54 59q-14 19 -23 56t-9 71zM373 1104l6 12q4 7 9.5 25t13.5 30t26 21q174 94 297 217q24 24 63 76.5t67.5 90.5 t35.5 38q13 0 42.5 -19.5t35.5 -19.5q11 -29 29.5 -61t45.5 -66.5t49 -62t57 -64t51 -53t49 -49t34 -33.5q-10 -27 -18 -27q-4 0 -22 16.5t-25 16.5q-3 0 -15 -8t-18 -8q-17 0 -27 10q2 0 2 4q0 14 -48.5 67t-51.5 64q-16 3 -83 65t-95 62q-61 -42 -191 -148 q-199 -166 -319 -196z" />
<glyph unicode="&#xdc;" horiz-adv-x="839" d="M158 180q0 53 24 169t62 188l125 237l80 103l94 98q19 24 28.5 35.5t29 25.5t40.5 19l6 -11l-203 -274l-96 -156v-20l-69 -213q-11 -7 -13.5 -36.5t-7.5 -39.5q12 -102 14 -112q27 -107 162 -107q90 0 174.5 83t143.5 206q9 39 63.5 177.5t54.5 186.5q23 36 38.5 83.5 t21.5 79t21 54.5t40 23q10 0 10 -4l-30 -174l-62 -213q-27 -50 -75 -140q-54 -103 -80 -149.5t-70 -113.5t-77 -94.5t-83.5 -59t-109 -41.5t-135.5 -10l-35 14l-54 59q-14 19 -23 56t-9 71zM614 1313q0 12 2 14l117 64q3 -8 14 -29t16 -36.5t5 -33.5l-57 -43l-11 -10l-71 47 q-15 15 -15 27zM954 1319v12l43 53l29 2l12 -32q66 -17 66 -66q0 -29 -18 -45t-42 -16z" />
<glyph unicode="&#xdd;" d="M154 -477q0 40 45 141q0 11 30 59.5t85.5 142.5t99.5 185l118 246l95 225l-68 -12q-25 17 -49 57l-49 121l-33 156q-24 104 -20 145q0 121 15.5 165.5t63.5 72.5q0 -1 9.5 -130t33.5 -267t64 -195l35 -29q20 4 39.5 25t36.5 57t30 69.5t30 80t28 71.5q49 116 225 320 l63 71q59 41 80 41q6 0 13 -14l-93 -115q-2 -7 -10 -17.5t-24 -30t-29 -36.5l-43 -61q-35 -57 -59 -92.5t-36.5 -51t-39.5 -46.5l-160 -367q-37 -142 -65.5 -219t-67.5 -137q-10 -13 -31 -35t-35 -38t-14 -20q-11 -17 -42 -99t-48 -112l-53 -114q-32 -72 -45.5 -114 t-12.5 -77q0 -15 7.5 -22t22.5 -11.5t21 -7.5q-4 -11 -18.5 -21.5t-34 -20.5t-26.5 -15q-9 9 -32 13.5t-37.5 16.5t-14.5 46zM653 1274v6l138 160q10 12 29.5 28t36.5 28.5t52 37t56 39.5l98 37q9 0 20 -5.5t11 -13.5q0 -17 -20 -39t-40 -32q-140 -69 -201 -121t-61 -99v-12 q0 -19 -13.5 -31.5t-53.5 -27.5q-22 3 -37 17t-15 28z" />
<glyph unicode="&#xde;" horiz-adv-x="796" d="M168 -121l76 244l61 162q3 13 0 17t0.5 33t9 65t26.5 112.5t54 175.5l94 291q8 23 44 140.5t66.5 210.5t35.5 93q18 0 32.5 -4.5t14.5 -9.5q0 2 -34.5 -110.5t-72 -240t-43.5 -157.5q-18 -59 -70 -246t-52 -204v-5l92 177l250 415l100 111l156 53q34 -9 54.5 -61 t20.5 -115q0 -92 -19 -162.5t-74 -169.5t-173 -270l-172 -164l-84 -53q-64 -13 -143 -19l49 64q143 65 285 172q25 35 48.5 67t36.5 49t23.5 30.5t14.5 20.5t4 11q29 19 75 124.5t54 113.5q-2 26 -4.5 80.5t-5 76t-14 49.5t-32.5 44h-10q-54 -15 -101.5 -51t-83.5 -80.5 t-78.5 -116.5t-76.5 -139t-88.5 -168.5t-103.5 -184.5l-27 -53q-27 -58 -49 -158q-9 -12 -20.5 -22t-30.5 -41l-25 -144q-10 -63 -57 -125q-17 0 -33 13v59z" />
<glyph unicode="&#xdf;" horiz-adv-x="942" d="M-106 -240q4 59 79 129l80 76q0 24 113.5 271.5t249.5 504.5t184 287l94 59q28 17 55 28.5t51.5 17t39.5 8.5t35.5 4.5t23.5 1.5q35 0 54.5 -8.5t24 -19t12 -24t20.5 -20.5q-1 -57 -10.5 -90t-37.5 -73.5t-98 -120.5l-100 -117l141 -111q25 -36 25 -80l-4 -75 q-30 -37 -73.5 -122t-51.5 -116q-147 -179 -418 -209l-113 57l-59 43l-205 -266q-19 -49 -34 -67.5t-31 -18.5q-23 0 -35 15.5t-12 35.5zM279 180q84 -2 110.5 -8.5t32.5 -34.5l-14 -49q22 -16 67 -16q57 0 115.5 20t110.5 58t85 101t33 140q0 80 -40.5 115t-125.5 35h-47 q-4 2 -4 28v33q24 50 117 113q160 113 160 256q0 73 -140 73q-120 0 -143 -92q-28 -116 -84.5 -237.5t-161.5 -290.5z" />
<glyph unicode="&#xe0;" horiz-adv-x="899" d="M98 88q0 114 56 260l65 125q9 15 20.5 31t18 23.5t25 27.5t22.5 25q6 19 25 47t53 60.5t74.5 60.5t94 46.5t107.5 18.5q76 0 124 -51.5t48 -122.5q0 -73 -38 -119l-33 -12q-45 -53 -105 -205l-4 -65q0 -34 6.5 -55t20.5 -30t26 -11.5t33 -2.5q19 0 47 7.5t65.5 20.5 t49.5 17q-6 -6 -25 -19.5t-43 -30t-34 -23.5q-2 0 -17 -12.5t-48 -25t-79 -12.5q-3 0 -18.5 3t-28.5 4l-18 24q-25 36 -25 78q4 33 4 61q-4 8 -6 31q-27 -25 -58 -52.5t-46 -41t-33 -33.5t-35 -43l-106 -80q-56 -41 -129 -45l-33 19q-23 58 -23 102zM176 125q0 -64 10 -84 l99 12q-1 0 7 7t22.5 20t34 30t42.5 37.5t46 42.5t46.5 45.5t43.5 46t36 44.5t25 39l35 71q9 17 39.5 52t54 63t22.5 35q0 15 -7.5 38t-23 49.5t-45.5 45t-69 18.5q-55 0 -105.5 -25t-88 -66t-65 -85t-46.5 -92q-8 -10 -27 -54t-26 -50q0 -23 -23 -74t-23 -68 q-14 -46 -14 -98zM420 1217q0 25 9 39t34 20q20 -2 20 -23q11 -38 38.5 -73t60.5 -62t66 -55t59.5 -65t35.5 -78q-42 -27 -45 -27q0 9 -10.5 42.5t-21.5 39.5q-26 16 -74 43t-71 42t-50.5 39.5t-39 52.5t-11.5 65z" />
<glyph unicode="&#xe1;" horiz-adv-x="899" d="M98 88q0 114 56 260l65 125q9 15 20.5 31t18 23.5t25 27.5t22.5 25q6 19 25 47t53 60.5t74.5 60.5t94 46.5t107.5 18.5q76 0 124 -51.5t48 -122.5q0 -73 -38 -119l-33 -12q-45 -53 -105 -205l-4 -65q0 -34 6.5 -55t20.5 -30t26 -11.5t33 -2.5q19 0 47 7.5t65.5 20.5 t49.5 17q-6 -6 -25 -19.5t-43 -30t-34 -23.5q-2 0 -17 -12.5t-48 -25t-79 -12.5q-3 0 -18.5 3t-28.5 4l-18 24q-25 36 -25 78q4 33 4 61q-4 8 -6 31q-27 -25 -58 -52.5t-46 -41t-33 -33.5t-35 -43l-106 -80q-56 -41 -129 -45l-33 19q-23 58 -23 102zM176 125q0 -64 10 -84 l99 12q-1 0 7 7t22.5 20t34 30t42.5 37.5t46 42.5t46.5 45.5t43.5 46t36 44.5t25 39l35 71q9 17 39.5 52t54 63t22.5 35q0 15 -7.5 38t-23 49.5t-45.5 45t-69 18.5q-55 0 -105.5 -25t-88 -66t-65 -85t-46.5 -92q-8 -10 -27 -54t-26 -50q0 -23 -23 -74t-23 -68 q-14 -46 -14 -98zM666 911v7l137 159q10 13 29.5 29.5t35.5 28.5t53 37.5t56 39.5l98 35q9 0 20 -5t11 -13q0 -16 -20 -39t-39 -33q-142 -70 -202.5 -121t-60.5 -98v-12q0 -18 -13.5 -30.5t-53.5 -29.5q-22 3 -36.5 17t-14.5 28z" />
<glyph unicode="&#xe2;" horiz-adv-x="899" d="M98 88q0 114 56 260l65 125q9 15 20.5 31t18 23.5t25 27.5t22.5 25q6 19 25 47t53 60.5t74.5 60.5t94 46.5t107.5 18.5q76 0 124 -51.5t48 -122.5q0 -73 -38 -119l-33 -12q-45 -53 -105 -205l-4 -65q0 -34 6.5 -55t20.5 -30t26 -11.5t33 -2.5q19 0 47 7.5t65.5 20.5 t49.5 17q-6 -6 -25 -19.5t-43 -30t-34 -23.5q-2 0 -17 -12.5t-48 -25t-79 -12.5q-3 0 -18.5 3t-28.5 4l-18 24q-25 36 -25 78q4 33 4 61q-4 8 -6 31q-27 -25 -58 -52.5t-46 -41t-33 -33.5t-35 -43l-106 -80q-56 -41 -129 -45l-33 19q-23 58 -23 102zM176 125q0 -64 10 -84 l99 12q-1 0 7 7t22.5 20t34 30t42.5 37.5t46 42.5t46.5 45.5t43.5 46t36 44.5t25 39l35 71q9 17 39.5 52t54 63t22.5 35q0 15 -7.5 38t-23 49.5t-45.5 45t-69 18.5q-55 0 -105.5 -25t-88 -66t-65 -85t-46.5 -92q-8 -10 -27 -54t-26 -50q0 -23 -23 -74t-23 -68 q-14 -46 -14 -98zM360 895l7 10q3 6 9.5 26t15 31.5t26.5 20.5q60 32 79.5 43.5t26 16.5t16 19t29.5 34q22 23 61 75.5t68 90.5t37 38q11 0 41.5 -19t36.5 -19q15 -39 39 -79t56 -78t55 -63t58 -60l44 -44q-7 -27 -16 -27q-5 0 -24 16.5t-24 16.5t-16 -9t-16 -9 q-15 0 -27 12q2 0 2 4q0 12 -48 66t-52 65q-16 3 -53 32.5t-64 29.5q-22 -15 -68.5 -58.5t-64.5 -58.5q-39 -32 -109 -70.5t-125 -52.5z" />
<glyph unicode="&#xe3;" horiz-adv-x="899" d="M98 88q0 114 56 260l65 125q9 15 20.5 31t18 23.5t25 27.5t22.5 25q6 19 25 47t53 60.5t74.5 60.5t94 46.5t107.5 18.5q76 0 124 -51.5t48 -122.5q0 -73 -38 -119l-33 -12q-45 -53 -105 -205l-4 -65q0 -34 6.5 -55t20.5 -30t26 -11.5t33 -2.5q19 0 47 7.5t65.5 20.5 t49.5 17q-6 -6 -25 -19.5t-43 -30t-34 -23.5q-2 0 -17 -12.5t-48 -25t-79 -12.5q-3 0 -18.5 3t-28.5 4l-18 24q-25 36 -25 78q4 33 4 61q-4 8 -6 31q-27 -25 -58 -52.5t-46 -41t-33 -33.5t-35 -43l-106 -80q-56 -41 -129 -45l-33 19q-23 58 -23 102zM176 125q0 -64 10 -84 l99 12q-1 0 7 7t22.5 20t34 30t42.5 37.5t46 42.5t46.5 45.5t43.5 46t36 44.5t25 39l35 71q9 17 39.5 52t54 63t22.5 35q0 15 -7.5 38t-23 49.5t-45.5 45t-69 18.5q-55 0 -105.5 -25t-88 -66t-65 -85t-46.5 -92q-8 -10 -27 -54t-26 -50q0 -23 -23 -74t-23 -68 q-14 -46 -14 -98zM371 1030q27 9 64 33.5t71 41.5t69 17q47 0 138 -43t133 -43q12 0 51 47t61 47q31 0 42.5 -9t11.5 -34q0 -39 -35 -57q-20 -5 -41.5 -25t-45.5 -36.5t-54 -16.5q-46 0 -123.5 42t-124.5 42q-38 0 -107.5 -13t-103.5 -15z" />
<glyph unicode="&#xe4;" horiz-adv-x="899" d="M98 88q0 114 56 260l65 125q9 15 20.5 31t18 23.5t25 27.5t22.5 25q6 19 25 47t53 60.5t74.5 60.5t94 46.5t107.5 18.5q76 0 124 -51.5t48 -122.5q0 -73 -38 -119l-33 -12q-45 -53 -105 -205l-4 -65q0 -34 6.5 -55t20.5 -30t26 -11.5t33 -2.5q19 0 47 7.5t65.5 20.5 t49.5 17q-6 -6 -25 -19.5t-43 -30t-34 -23.5q-2 0 -17 -12.5t-48 -25t-79 -12.5q-3 0 -18.5 3t-28.5 4l-18 24q-25 36 -25 78q4 33 4 61q-4 8 -6 31q-27 -25 -58 -52.5t-46 -41t-33 -33.5t-35 -43l-106 -80q-56 -41 -129 -45l-33 19q-23 58 -23 102zM176 125q0 -64 10 -84 l99 12q-1 0 7 7t22.5 20t34 30t42.5 37.5t46 42.5t46.5 45.5t43.5 46t36 44.5t25 39l35 71q9 17 39.5 52t54 63t22.5 35q0 15 -7.5 38t-23 49.5t-45.5 45t-69 18.5q-55 0 -105.5 -25t-88 -66t-65 -85t-46.5 -92q-8 -10 -27 -54t-26 -50q0 -23 -23 -74t-23 -68 q-14 -46 -14 -98zM438 1061q0 10 4 14l115 62q3 -8 14 -29t16 -36.5t5 -33.5l-55 -41l-13 -12l-71 49q-15 15 -15 27zM780 1067v10l41 53l31 5l10 -33q66 -16 66 -66q0 -29 -17.5 -45t-42.5 -16z" />
<glyph unicode="&#xe5;" horiz-adv-x="899" d="M98 88q0 114 56 260l65 125q9 15 20.5 31t18 23.5t25 27.5t22.5 25q6 19 25 47t53 60.5t74.5 60.5t94 46.5t107.5 18.5q76 0 124 -51.5t48 -122.5q0 -73 -38 -119l-33 -12q-45 -53 -105 -205l-4 -65q0 -34 6.5 -55t20.5 -30t26 -11.5t33 -2.5q19 0 47 7.5t65.5 20.5 t49.5 17q-6 -6 -25 -19.5t-43 -30t-34 -23.5q-2 0 -17 -12.5t-48 -25t-79 -12.5q-3 0 -18.5 3t-28.5 4l-18 24q-25 36 -25 78q4 33 4 61q-4 8 -6 31q-27 -25 -58 -52.5t-46 -41t-33 -33.5t-35 -43l-106 -80q-56 -41 -129 -45l-33 19q-23 58 -23 102zM176 125q0 -64 10 -84 l99 12q-1 0 7 7t22.5 20t34 30t42.5 37.5t46 42.5t46.5 45.5t43.5 46t36 44.5t25 39l35 71q9 17 39.5 52t54 63t22.5 35q0 15 -7.5 38t-23 49.5t-45.5 45t-69 18.5q-55 0 -105.5 -25t-88 -66t-65 -85t-46.5 -92q-8 -10 -27 -54t-26 -50q0 -23 -23 -74t-23 -68 q-14 -46 -14 -98zM543 1018q0 73 73.5 141t169.5 68q140 0 140 -144q0 -95 -84 -149.5t-199 -54.5q-48 14 -74 51q-26 39 -26 88zM596 997q0 -20 41 -65q22 0 41 1.5t38.5 6t27.5 6.5t30 9t25 8q67 22 67 98t-26 92l-17 -9q-17 -10 -39 -20t-36 -10h-66q-41 -9 -63.5 -33.5 t-22.5 -83.5z" />
<glyph unicode="&#xe6;" horiz-adv-x="1392" d="M98 88q0 114 56 260l65 125q9 15 20.5 31t18 23.5t25 27.5t22.5 25q6 19 25 47t53 60.5t74.5 60.5t94 46.5t107.5 18.5q76 0 124 -51.5t48 -122.5q0 -73 -38 -119l-33 -12q-45 -53 -105 -205l-4 -65q0 -34 6.5 -55t20.5 -30t26 -11.5t33 -2.5q12 0 62 8v31q0 6 -1 16.5 t-1 16.5q0 47 12 89t39 109.5t43 116.5q95 125 176 189t180 92l35 -8q43 -62 43 -133l-4 -91q-5 -10 -12.5 -18t-20.5 -18t-14 -11l-27 -71q-56 -69 -157 -121l-175 -92q0 -2 -2 -4.5t-2 -3.5q0 -16 16.5 -45.5t16.5 -38.5l51 -54q60 -24 103 -24q17 0 41 2.5t47.5 5.5 t30.5 4l7 -2l11 -5.5t9.5 -7t4.5 -10.5q0 -4 -1 -11t-1 -11l-217 -72l-80 2q-110 22 -149 129v15q-2 0 -6.5 -5.5t-13.5 -13t-23.5 -15t-42 -13t-62.5 -5.5q-3 0 -18.5 3t-28.5 4l-18 24q-25 36 -25 78q4 33 4 61q-4 8 -6 31q-27 -25 -58 -52.5t-46 -41t-33 -33.5t-35 -43 l-106 -80q-56 -41 -129 -45l-33 19q-23 58 -23 102zM176 125q0 -64 10 -84l99 12q-1 0 7 7t22.5 20t34 30t42.5 37.5t46 42.5t46.5 45.5t43.5 46t36 44.5t25 39l35 71q9 17 39 51.5t53.5 62.5t23.5 36q0 14 -7.5 36.5t-23 49.5t-45.5 46t-69 19q-55 0 -105.5 -25t-88 -66 t-65 -85t-46.5 -92q-8 -10 -27 -54t-26 -50q0 -23 -23 -74t-23 -68q-14 -46 -14 -98zM930 358q0 -4 6 -4t8 2l262 133l41 54l-30 137q-11 8 -29 8q-29 0 -51.5 -14.5t-33 -32.5t-23.5 -34t-25 -19q-20 -19 -38 -43.5t-32 -54t-22 -47.5t-20 -49.5t-13 -35.5z" />
<glyph unicode="&#xe7;" horiz-adv-x="956" d="M113 262q0 78 44 150t113 102l25 8l182 176q66 60 135 60q64 43 127 43q33 0 76 -38.5t43 -74.5q0 -133 -88 -133q-16 0 -16 6q0 9 8 33t8 51q0 16 -29 29q13 8 13 14q0 16 -17.5 20.5t-56.5 4.5q-94 0 -133 -39q-59 0 -92 -74q-21 -42 -45.5 -68.5t-41 -34t-30 -23 t-16.5 -40.5l-46 -72q-20 -62 -20 -79q0 -34 20 -64v-16q0 -35 21 -62.5t53 -27.5h8q66 -78 156 -78q122 0 326 102q13 3 20 -12l10 -14l-112 -64q-10 -6 -26 -14q-39 -22 -69 -28q-12 -3 -48 -10h-1h-1h-1h-1l-1 -1h-2q-68 -25 -127 -25q-41 0 -104 17l-125 41 q-43 15 -61.5 28.5t-18.5 36.5q0 8 4 12q-63 57 -63 158zM195 -252q0 23 31.5 38t62.5 15q12 0 18.5 -13t8.5 -28.5t8.5 -31t17.5 -19.5q22 -29 59 -43t119 -14q47 23 47 72q0 35 -7.5 60.5t-16 35.5t-16 20.5t-7.5 20.5q0 19 12 59l121 119l58 -31l-101 -92l8 -37 q2 -4 56.5 -56t54.5 -67q0 -49 -43 -88.5t-102 -58.5t-117 -19q-79 6 -175.5 61t-96.5 97z" />
<glyph unicode="&#xe8;" horiz-adv-x="634" d="M94 211q0 47 12.5 89.5t40 109t43.5 116.5q95 125 176.5 189t180.5 92l35 -8q41 -44 41 -133l-2 -91q-5 -10 -13 -18.5t-20.5 -17.5t-14.5 -11l-26 -71q-61 -71 -158 -121l-176 -92q0 -2 -1 -4.5t-1 -3.5q0 -16 16.5 -45.5t16.5 -38.5l51 -54q60 -24 102 -24q17 0 41 2.5 t47.5 5.5t30.5 4l6 -2q7 -3 12 -5.5t10 -7t5 -10.5q0 -4 -1 -11t-1 -11l-217 -72l-80 2q-116 23 -150 129l-2 80q0 6 -2 16.5t-2 16.5zM229 358q0 -4 7 -4q4 0 8 2l260 133l43 54l-31 137q-11 8 -29 8q-29 0 -51.5 -14.5t-33.5 -32.5t-23.5 -34t-24.5 -19q-20 -19 -38 -43.5 t-32 -54t-22 -47.5t-20 -49.5t-13 -35.5zM346 1217q0 25 9 39t34 20q21 -3 21 -23q11 -38 38.5 -73t60.5 -62t66 -55t59.5 -65t35.5 -78q-42 -27 -45 -27q0 8 -11 42t-22 40q-26 16 -74 43t-71 42t-50.5 39.5t-39 52.5t-11.5 65z" />
<glyph unicode="&#xe9;" horiz-adv-x="634" d="M94 211q0 47 12.5 89.5t40 109t43.5 116.5q95 125 176.5 189t180.5 92l35 -8q41 -44 41 -133l-2 -91q-5 -10 -13 -18.5t-20.5 -17.5t-14.5 -11l-26 -71q-61 -71 -158 -121l-176 -92q0 -2 -1 -4.5t-1 -3.5q0 -16 16.5 -45.5t16.5 -38.5l51 -54q60 -24 102 -24q17 0 41 2.5 t47.5 5.5t30.5 4l6 -2q7 -3 12 -5.5t10 -7t5 -10.5q0 -4 -1 -11t-1 -11l-217 -72l-80 2q-116 23 -150 129l-2 80q0 6 -2 16.5t-2 16.5zM229 358q0 -4 7 -4q4 0 8 2l260 133l43 54l-31 137q-11 8 -29 8q-29 0 -51.5 -14.5t-33.5 -32.5t-23.5 -34t-24.5 -19q-20 -19 -38 -43.5 t-32 -54t-22 -47.5t-20 -49.5t-13 -35.5zM385 911v7l137 159q10 13 29.5 29.5t35.5 28.5t53 37.5t56 39.5l99 35q9 0 19.5 -5t10.5 -13q0 -16 -20 -39t-39 -33q-141 -70 -201.5 -120.5t-60.5 -98.5v-12q0 -18 -14 -30.5t-54 -29.5q-22 3 -36.5 17t-14.5 28z" />
<glyph unicode="&#xea;" horiz-adv-x="634" d="M94 211q0 47 12.5 89.5t40 109t43.5 116.5q95 125 176.5 189t180.5 92l35 -8q41 -44 41 -133l-2 -91q-5 -10 -13 -18.5t-20.5 -17.5t-14.5 -11l-26 -71q-61 -71 -158 -121l-176 -92q0 -2 -1 -4.5t-1 -3.5q0 -16 16.5 -45.5t16.5 -38.5l51 -54q60 -24 102 -24q17 0 41 2.5 t47.5 5.5t30.5 4l6 -2q7 -3 12 -5.5t10 -7t5 -10.5q0 -4 -1 -11t-1 -11l-217 -72l-80 2q-116 23 -150 129l-2 80q0 6 -2 16.5t-2 16.5zM188 895l7 10q3 6 9.5 26t15 31.5t26.5 20.5q60 32 79.5 43.5t26 16.5t16 19t29.5 34q22 23 61 75.5t68 90.5t37 38q11 0 41.5 -19 t36.5 -19q15 -39 39 -79t56 -78t55 -63t58 -60l44 -44q-7 -27 -16 -27q-5 0 -24 16.5t-24 16.5t-16 -9t-16 -9q-15 0 -27 12q2 0 2 4q0 12 -48 66t-52 65q-16 3 -53 32.5t-64 29.5q-22 -15 -68.5 -58.5t-64.5 -58.5q-39 -32 -109 -70.5t-125 -52.5zM229 358q0 -4 7 -4 q4 0 8 2l260 133l43 54l-31 137q-11 8 -29 8q-29 0 -51.5 -14.5t-33.5 -32.5t-23.5 -34t-24.5 -19q-20 -19 -38 -43.5t-32 -54t-22 -47.5t-20 -49.5t-13 -35.5z" />
<glyph unicode="&#xeb;" horiz-adv-x="634" d="M94 211q0 47 12.5 89.5t40 109t43.5 116.5q95 125 176.5 189t180.5 92l35 -8q41 -44 41 -133l-2 -91q-5 -10 -13 -18.5t-20.5 -17.5t-14.5 -11l-26 -71q-61 -71 -158 -121l-176 -92q0 -2 -1 -4.5t-1 -3.5q0 -16 16.5 -45.5t16.5 -38.5l51 -54q60 -24 102 -24q17 0 41 2.5 t47.5 5.5t30.5 4l6 -2q7 -3 12 -5.5t10 -7t5 -10.5q0 -4 -1 -11t-1 -11l-217 -72l-80 2q-116 23 -150 129l-2 80q0 6 -2 16.5t-2 16.5zM229 358q0 -4 7 -4q4 0 8 2l260 133l43 54l-31 137q-11 8 -29 8q-29 0 -51.5 -14.5t-33.5 -32.5t-23.5 -34t-24.5 -19q-20 -19 -38 -43.5 t-32 -54t-22 -47.5t-20 -49.5t-13 -35.5zM291 1061q0 10 4 14l115 62q3 -6 14 -28.5t15.5 -37.5t4.5 -33l-55 -41l-12 -12l-72 49q-14 14 -14 27zM633 1067v10l41 53l31 5l10 -33q36 -9 50.5 -24.5t14.5 -41.5q0 -29 -17 -45t-42 -16z" />
<glyph unicode="&#xec;" horiz-adv-x="436" d="M111 133q7 125 69 236l119 206q16 6 40.5 26t27.5 22l14 -54l-86 -133q-13 -13 -37.5 -97t-24.5 -134q0 -68 27 -114t74 -46q41 0 74 13t64 35t40 26l14 -21q-40 -43 -101.5 -75.5t-170.5 -63.5q-7 2 -22.5 5t-20.5 4t-16.5 4.5t-16.5 6.5t-13.5 9.5t-14 14t-13 18.5 t-14.5 26q-12 41 -12 86zM211 1217q0 25 9 39t34 20q20 -2 20 -23q11 -38 38.5 -73t61 -62t66.5 -55t59.5 -65t35.5 -78q-42 -27 -46 -27q0 9 -10.5 42.5t-21.5 39.5q-26 16 -74 43t-71 42t-50.5 39.5t-39 52.5t-11.5 65z" />
<glyph unicode="&#xed;" horiz-adv-x="436" d="M111 133q7 125 69 236l119 206q16 6 40.5 26t27.5 22l14 -54l-86 -133q-13 -13 -37.5 -97t-24.5 -134q0 -68 27 -114t74 -46q41 0 74 13t64 35t40 26l14 -21q-40 -43 -101.5 -75.5t-170.5 -63.5q-7 2 -22.5 5t-20.5 4t-16.5 4.5t-16.5 6.5t-13.5 9.5t-14 14t-13 18.5 t-14.5 26q-12 41 -12 86zM231 911v7l138 159q10 13 29.5 29.5t35.5 28.5t53 37.5t56 39.5l98 35q9 0 20 -5t11 -13q0 -16 -20.5 -39t-39.5 -33q-141 -70 -201.5 -120.5t-60.5 -98.5v-12q0 -18 -13.5 -30.5t-53.5 -29.5q-22 3 -37 17t-15 28z" />
<glyph unicode="&#xee;" horiz-adv-x="436" d="M29 895l6 10q3 6 9.5 26t15 31.5t26.5 20.5q50 27 68 36t31.5 18.5t14 12.5t11 16t27.5 30q22 23 61 75.5t67.5 90.5t36.5 38q11 0 41.5 -19t36.5 -19q15 -39 39 -79t56 -78t55 -63t58 -60l44 -44q-7 -27 -16 -27q-5 0 -23.5 16.5t-23.5 16.5t-16.5 -9t-16.5 -9 q-15 0 -27 12q2 0 2 4q0 12 -48 66t-52 65q-16 3 -53 32.5t-64 29.5q-22 -15 -68.5 -58.5t-64.5 -58.5q-39 -32 -108.5 -70.5t-124.5 -52.5zM111 133q7 125 69 236l119 206q16 6 40.5 26t27.5 22l14 -54l-86 -133q-13 -13 -37.5 -97t-24.5 -134q0 -68 27 -114t74 -46 q41 0 74 13t64 35t40 26l14 -21q-40 -43 -101.5 -75.5t-170.5 -63.5q-7 2 -22.5 5t-20.5 4t-16.5 4.5t-16.5 6.5t-13.5 9.5t-14 14t-13 18.5t-14.5 26q-12 41 -12 86z" />
<glyph unicode="&#xef;" horiz-adv-x="436" d="M111 133q7 125 69 236l119 206q16 6 40.5 26t27.5 22l14 -54l-86 -133q-13 -13 -37.5 -97t-24.5 -134q0 -68 27 -114t74 -46q41 0 74 13t64 35t40 26l14 -21q-40 -43 -101.5 -75.5t-170.5 -63.5q-7 2 -22.5 5t-20.5 4t-16.5 4.5t-16.5 6.5t-13.5 9.5t-14 14t-13 18.5 t-14.5 26q-12 41 -12 86zM127 1061q0 10 4 14l115 62q3 -8 14 -29t16 -36.5t5 -33.5l-56 -41l-12 -12l-72 49q-14 14 -14 27zM469 1067v10l41 53l31 5l10 -33q36 -9 50.5 -24.5t14.5 -41.5q0 -29 -17 -45t-42 -16z" />
<glyph unicode="&#xf0;" horiz-adv-x="681" d="M80 1333l20 31q17 20 31 20q6 0 8 -4l183 -319l61 -84q55 17 139.5 31t116.5 14q0 -5 1 -14t1 -13q0 -17 -17 -34.5t-45 -32t-60 -27.5t-65 -26q-9 -3 -14 -5l119 -249q10 -43 22.5 -95.5t18 -73.5t12 -50.5t8.5 -41t4 -30.5t2.5 -32t0.5 -34q0 -48 -0.5 -65.5t-3.5 -50 t-10.5 -49.5t-21.5 -40t-36 -45l-6 -8l-86 -39q-133 0 -206 64.5t-73 179.5q0 46 11.5 77.5t27.5 48.5t45.5 25.5t52.5 10.5t62 2q73 0 106 -39q27 34 27 86q0 35 -6 66l-6 32l-68 131q0 64 -18.5 108.5t-59.5 90.5l-139 -27q-31 -27 -59.5 -47.5t-42.5 -28.5t-17 -8 q-1 6 -3.5 14.5t-2.5 10.5q0 55 70 139l139 49l-127 283q-10 16 -49 46.5t-47 51.5zM244 197q4 -52 55 -103l43 -37l139 76q47 36 47 72q0 32 -30 56t-82 24q-172 0 -172 -88z" />
<glyph unicode="&#xf1;" horiz-adv-x="882" d="M4 106l80 134l113 268q1 18 22 40t39 25q25 -66 25 -98q0 -38 -7.5 -90t-15.5 -89.5t-8 -39.5q141 104 199 188l92 64l37 35l243 202q15 15 43 15q22 0 33 -8v-15q0 -16 -5 -34t-10.5 -30.5t-16 -34t-15.5 -32.5q-5 -5 -32 -74.5t-42 -87.5l-57 -106q-76 -146 -76 -240 q0 -39 21 -63l22 -37l103 -16v-7q0 -7 -21 -16l-90 -10q-133 0 -193 76l2 145q19 19 31 43q37 81 79.5 157t72.5 146q0 9 -10 16l-175 -143l-215 -186q-81 -75 -133 -97l45 216h-20q-15 -41 -59 -123t-80 -121zM295 1030q27 9 64 33.5t71.5 41.5t69.5 17q47 0 137.5 -43 t132.5 -43q12 0 51.5 47t61.5 47q31 0 42 -9t11 -34q0 -39 -35 -57q-20 -5 -41.5 -25t-45.5 -36.5t-54 -16.5q-46 0 -123.5 42t-124.5 42q-38 0 -107.5 -13t-103.5 -15z" />
<glyph unicode="&#xf2;" horiz-adv-x="741" d="M72 86q0 2 5 23.5t10 53.5t5 60l84 160q94 187 238 305v51q22 47 60 77t87 30l66 -86q0 -21 23.5 -94t23.5 -103l8 -129q0 -210 -94 -323l-33 2q-75 -58 -193 -103t-182 -45q-20 0 -47.5 30t-38.5 30h-6q-16 32 -16 61zM199 111q0 -24 16.5 -37t42.5 -13l104 -2l127 60 q72 141 72 317q0 119 -41 256q-30 -30 -63.5 -72.5t-59.5 -80t-77.5 -111.5t-90.5 -129zM379 1217q0 25 9 39t34 20q20 -2 20 -23q11 -38 38.5 -73t60.5 -62t66 -55t59.5 -65t35.5 -78q-42 -27 -45 -27q0 9 -10.5 42.5t-21.5 39.5q-26 16 -74 43t-71 42t-50.5 39.5t-39 52.5 t-11.5 65z" />
<glyph unicode="&#xf3;" horiz-adv-x="741" d="M72 86q0 2 5 23.5t10 53.5t5 60l84 160q94 187 238 305v51q22 47 60 77t87 30l66 -86q0 -21 23.5 -94t23.5 -103l8 -129q0 -210 -94 -323l-33 2q-75 -58 -193 -103t-182 -45q-20 0 -47.5 30t-38.5 30h-6q-16 32 -16 61zM199 111q0 -24 16.5 -37t42.5 -13l104 -2l127 60 q72 141 72 317q0 119 -41 256q-30 -30 -63.5 -72.5t-59.5 -80t-77.5 -111.5t-90.5 -129zM418 911v7l137 159q10 13 29.5 29.5t35.5 28.5t53 37.5t56 39.5l98 35q9 0 20 -5t11 -13q0 -16 -20 -39t-39 -33q-141 -70 -201.5 -120.5t-60.5 -98.5v-12q0 -18 -14 -30.5t-54 -29.5 q-22 3 -36.5 17t-14.5 28z" />
<glyph unicode="&#xf4;" horiz-adv-x="741" d="M72 86q0 2 5 23.5t10 53.5t5 60l84 160q94 187 238 305v51q22 47 60 77t87 30l66 -86q0 -21 23.5 -94t23.5 -103l8 -129q0 -210 -94 -323l-33 2q-75 -58 -193 -103t-182 -45q-20 0 -47.5 30t-38.5 30h-6q-16 32 -16 61zM199 111q0 -24 16.5 -37t42.5 -13l104 -2l127 60 q72 141 72 317q0 119 -41 256q-30 -30 -63.5 -72.5t-59.5 -80t-77.5 -111.5t-90.5 -129zM264 895l6 10q3 6 10 26.5t15.5 31.5t26.5 20q60 32 79.5 43.5t26 16.5t16 19t29.5 34q22 23 61 75.5t68 90.5t37 38q11 0 41.5 -19t36.5 -19q15 -39 39 -79t56 -78t55 -63t58 -60 l44 -44q-7 -27 -17 -27q-5 0 -23.5 16.5t-23.5 16.5t-16.5 -9t-16.5 -9q-14 0 -26 12q2 0 2 4q0 12 -48 66t-52 65q-16 3 -53 32.5t-64 29.5q-22 -15 -68.5 -58.5t-64.5 -58.5q-39 -32 -109 -70.5t-125 -52.5z" />
<glyph unicode="&#xf5;" horiz-adv-x="741" d="M72 86q0 2 5 23.5t10 53.5t5 60l84 160q94 187 238 305v51q22 47 60 77t87 30l66 -86q0 -21 23.5 -94t23.5 -103l8 -129q0 -210 -94 -323l-33 2q-75 -58 -193 -103t-182 -45q-20 0 -47.5 30t-38.5 30h-6q-16 32 -16 61zM199 111q0 -24 16.5 -37t42.5 -13l104 -2l127 60 q72 141 72 317q0 119 -41 256q-30 -30 -63.5 -72.5t-59.5 -80t-77.5 -111.5t-90.5 -129zM274 1030q27 9 64 33.5t71.5 41.5t69.5 17q47 0 138 -43t133 -43q12 0 51 47t61 47q31 0 42 -9t11 -34q0 -39 -34 -57q-16 -4 -33.5 -17t-30.5 -26.5t-33.5 -24t-44.5 -10.5 q-46 0 -123 42t-124 42q-38 0 -107.5 -13t-103.5 -15z" />
<glyph unicode="&#xf6;" horiz-adv-x="741" d="M72 86q0 2 5 23.5t10 53.5t5 60l84 160q94 187 238 305v51q22 47 60 77t87 30l66 -86q0 -21 23.5 -94t23.5 -103l8 -129q0 -210 -94 -323l-33 2q-75 -58 -193 -103t-182 -45q-20 0 -47.5 30t-38.5 30h-6q-16 32 -16 61zM199 111q0 -24 16.5 -37t42.5 -13l104 -2l127 60 q72 141 72 317q0 119 -41 256q-30 -30 -63.5 -72.5t-59.5 -80t-77.5 -111.5t-90.5 -129zM369 1061q0 10 4 14l114 62q3 -8 14 -29t16 -36.5t5 -33.5l-55 -41l-12 -12l-72 49q-14 14 -14 27zM711 1067v10l41 53l30 5l11 -33q36 -9 50.5 -24.5t14.5 -41.5q0 -29 -17 -45 t-42 -16z" />
<glyph unicode="&#xf7;" horiz-adv-x="1576" d="M238 350q101 74 282 74l191 -2q68 -1 154.5 5t138.5 12t172.5 22.5t158.5 21.5q25 -22 25 -55q-21 -21 -21 -74v-45q0 -31 -9 -58.5t-23 -27.5q-25 0 -61.5 8t-43.5 15q4 27 4 59q0 57 -49 57q-23 -4 -55 -4q-25 -6 -152 -20.5t-153 -22.5l-86 2l-277 -6q-88 0 -194 13z M553 -25q69 54 154 54q37 0 52 -11t15 -43q0 -23 -49.5 -44t-62.5 -21q-13 2 -36 6.5t-32 5.5q-27 8 -41 53zM807 748q0 28 34.5 43.5t78.5 13.5l88 -4v-8q0 -12 -17 -39q-43 -43 -54 -64t-11 -49q-16 0 -33.5 4t-38.5 14.5t-34 33.5t-13 55z" />
<glyph unicode="&#xf8;" horiz-adv-x="741" d="M-8 -152l59 86q25 41 70 86q11 14 34 45t36 46t44 50.5t78.5 85.5t120.5 124q62 51 143.5 158t239.5 343q7 7 17 7h10h39q-38 -142 -183 -310l-256 -274q-11 -13 -43 -49l-44 -49.5t-40.5 -46t-47.5 -57t-49 -62t-62 -80t-70 -94.5q-60 -29 -80 -29q-16 0 -16 14v6z M72 86q0 2 5 23.5t10 53.5t5 60l84 160q94 187 238 305v51q22 47 60 77t87 30l66 -86q0 -21 23.5 -94t23.5 -103l8 -129q0 -210 -94 -323l-33 2q-75 -58 -193 -103t-182 -45q-20 0 -47.5 30t-38.5 30h-6q-16 32 -16 61zM199 111q0 -24 16.5 -37t42.5 -13l104 -2l127 60 q72 141 72 317q0 119 -41 256q-30 -30 -63.5 -72.5t-59.5 -80t-77.5 -111.5t-90.5 -129z" />
<glyph unicode="&#xf9;" horiz-adv-x="952" d="M0 94l106 53l166 398q20 35 24.5 49t4.5 39q59 96 137 131l23 -2q0 -22 -41 -97.5t-41 -99.5l-156 -352q-8 -55 -8 -94v-5v-5.5t0.5 -5.5t1.5 -6l2.5 -5t4 -5t6 -3.5t9 -2.5t11.5 -1q74 0 155.5 52t135.5 106l61 61q16 38 73.5 158t82.5 161l116 70q0 -5 1.5 -9.5 t1.5 -8.5q-1 -29 -38.5 -122t-77.5 -195.5t-44 -153.5l-10 -88l36 -64q12 -12 43 -12q82 16 152 76l43 6q-7 -16 -15 -28.5t-22.5 -23t-21.5 -15.5t-29.5 -16t-28.5 -14l-121 -51q-20 -10 -53 -10q-70 0 -115 66l-28 165l-199 -131q-101 -42 -136 -48q-19 -3 -40 -3 q-24 0 -66 17l-34 34l-47 -8zM481 1198q0 25 9 39t34 20q21 -3 21 -22q11 -38 38.5 -73t60.5 -62.5t66 -55.5t59.5 -65t35.5 -78q-42 -27 -45 -27q0 8 -11 42t-22 40q-26 16 -74 43t-71 42t-50.5 39.5t-39 52.5t-11.5 65z" />
<glyph unicode="&#xfa;" horiz-adv-x="952" d="M0 94l106 53l166 398q20 35 24.5 49t4.5 39q59 96 137 131l23 -2q0 -22 -41 -97.5t-41 -99.5l-156 -352q-8 -55 -8 -94v-5v-5.5t0.5 -5.5t1.5 -6l2.5 -5t4 -5t6 -3.5t9 -2.5t11.5 -1q74 0 155.5 52t135.5 106l61 61q16 38 73.5 158t82.5 161l116 70q0 -5 1.5 -9.5 t1.5 -8.5q-1 -29 -38.5 -122t-77.5 -195.5t-44 -153.5l-10 -88l36 -64q12 -12 43 -12q82 16 152 76l43 6q-7 -16 -15 -28.5t-22.5 -23t-21.5 -15.5t-29.5 -16t-28.5 -14l-121 -51q-20 -10 -53 -10q-70 0 -115 66l-28 165l-199 -131q-101 -42 -136 -48q-19 -3 -40 -3 q-24 0 -66 17l-34 34l-47 -8zM569 793v6l138 159q8 11 20 22t31 25.5t34 25t43.5 31t45.5 32.5l98 34q10 0 20.5 -5t10.5 -13q0 -16 -20.5 -39t-39.5 -33q-141 -70 -201.5 -120.5t-60.5 -98.5v-12q0 -18 -13.5 -30t-53.5 -29q-22 3 -37 17t-15 28z" />
<glyph unicode="&#xfb;" horiz-adv-x="952" d="M0 94l106 53l166 398q20 35 24.5 49t4.5 39q59 96 137 131l23 -2q0 -22 -41 -97.5t-41 -99.5l-156 -352q-8 -55 -8 -94v-5v-5.5t0.5 -5.5t1.5 -6l2.5 -5t4 -5t6 -3.5t9 -2.5t11.5 -1q74 0 155.5 52t135.5 106l61 61q16 38 73.5 158t82.5 161l116 70q0 -5 1.5 -9.5 t1.5 -8.5q-1 -29 -38.5 -122t-77.5 -195.5t-44 -153.5l-10 -88l36 -64q12 -12 43 -12q82 16 152 76l43 6q-7 -16 -15 -28.5t-22.5 -23t-21.5 -15.5t-29.5 -16t-28.5 -14l-121 -51q-20 -10 -53 -10q-70 0 -115 66l-28 165l-199 -131q-101 -42 -136 -48q-19 -3 -40 -3 q-24 0 -66 17l-34 34l-47 -8zM344 815l6 10q3 6 9.5 26t15 31.5t26.5 20.5q50 27 68 36t31.5 18.5t14 12.5t11 16t27.5 30q22 23 61 76t68 91t37 38q11 0 41.5 -19.5t36.5 -19.5q15 -39 39 -79t56 -78t55 -63t58 -60l44 -44q-7 -27 -17 -27q-5 0 -23.5 16.5t-23.5 16.5 t-16.5 -9t-16.5 -9q-14 0 -26 12q2 0 2 4q0 12 -48.5 66t-52.5 65q-16 3 -52.5 32.5t-63.5 29.5q-22 -15 -68.5 -58.5t-64.5 -58.5q-39 -32 -109 -70.5t-125 -52.5z" />
<glyph unicode="&#xfc;" horiz-adv-x="952" d="M0 94l106 53l166 398q20 35 24.5 49t4.5 39q59 96 137 131l23 -2q0 -22 -41 -97.5t-41 -99.5l-156 -352q-8 -55 -8 -94v-5v-5.5t0.5 -5.5t1.5 -6l2.5 -5t4 -5t6 -3.5t9 -2.5t11.5 -1q74 0 155.5 52t135.5 106l61 61q16 38 73.5 158t82.5 161l116 70q0 -5 1.5 -9.5 t1.5 -8.5q-1 -29 -38.5 -122t-77.5 -195.5t-44 -153.5l-10 -88l36 -64q12 -12 43 -12q82 16 152 76l43 6q-7 -16 -15 -28.5t-22.5 -23t-21.5 -15.5t-29.5 -16t-28.5 -14l-121 -51q-20 -10 -53 -10q-70 0 -115 66l-28 165l-199 -131q-101 -42 -136 -48q-19 -3 -40 -3 q-24 0 -66 17l-34 34l-47 -8zM418 944q0 10 4 14l115 62q3 -7 14 -28.5t15.5 -36.5t4.5 -33l-55 -41l-12 -13l-72 50q-14 14 -14 26zM760 950v11l41 53l30 4l11 -33q36 -9 50.5 -24t14.5 -41q0 -29 -17 -45.5t-42 -16.5z" />
<glyph unicode="&#xfd;" d="M-260 -967q0 189 22.5 280.5t104.5 229.5q1 14 31 42.5t34 39.5l103 107q22 -1 102 55.5t101 62.5l237 66l113 307l-6 13l-181 -148q-89 -71 -211 -119q-32 0 -44.5 0.5t-31.5 5t-30 13.5q0 53 15.5 100t60.5 125l24 23q8 17 36 80.5t47.5 106.5t52.5 107t60 106.5t60 79 t62 48.5q32 -16 35 -27l-103 -151q-31 -41 -33 -45q0 -1 -37 -98t-74.5 -204.5t-37.5 -134.5q0 -24 10 -47q77 44 150 118.5t113 132t97.5 149.5t75.5 118l47 39q19 19 39 19q1 0 3.5 -1t7.5 -2.5t10 -2.5q0 -157 -57 -295l-154 -367l231 49q80 0 80 -57q0 -33 -18 -33 l-53 -12l-27 16q-115 0 -163.5 -7t-82.5 -32q0 -28 -37 -43l-106 -274q-9 -9 -17 -23l-69 -135l-113 -143q0 -31 -6 -37l-104 -211l-148 -215l-156 -49q-65 32 -65 274zM-207 -791q0 -19 2 -71.5t2 -91.5v-50q2 -10 7.5 -34t7.5 -32t7 -25.5t8.5 -25.5t9 -19.5t12 -19 t14.5 -14.5l53 9l86 161l21 23l65 123q32 59 74 115q7 25 15.5 59t13.5 52.5t13.5 40.5t20.5 38l21 51l108 154l78 190l-260 -59l-121 -92h-16l-115 -148q-36 -29 -47 -75q-43 -79 -61.5 -134t-18.5 -125zM567 758v6l138 160q10 13 29.5 29.5t35.5 28.5t53 37.5t56 39.5 l98 35q9 0 20 -5.5t11 -13.5q0 -16 -20.5 -38.5t-39.5 -32.5q-141 -70 -201.5 -121t-60.5 -99v-12q0 -18 -14 -30t-54 -29q-22 3 -36.5 17t-14.5 28z" />
<glyph unicode="&#xfe;" horiz-adv-x="890" d="M-422 -1071q2 0 3 5.5t1.5 13t1.5 10.5l125 475l80 196l217 459q96 147 146 205t120 104q6 10 51.5 48.5t53.5 56.5q59 152 114.5 308t90.5 242.5t98 213.5l180 358q-41 0 -88.5 -25t-73.5 -28q7 7 7 8q0 5 -11 23l-8 22l174 57q118 62 162 99q12 -15 12 -37l-381 -686 l-133 -502l127 45q83 29 139 29q28 0 49 -15.5t31 -39t14.5 -44t4.5 -36.5q0 -72 -31 -150.5t-78 -147t-110 -136t-120.5 -118t-115.5 -92.5l-317 -141l-207 -461l-86 -104q-35 -42 -67 -86.5t-48 -68.5t-34.5 -45t-36.5 -29.5t-42 -8.5q-14 0 -14 23zM-317 -872 q0 -14 8 -25q20 0 52.5 49t111.5 187q25 44 39 69l114 254q43 109 125 312t119 296q8 11 28 49.5t23 42.5q-78 -63 -126.5 -113t-100.5 -134t-98.5 -186.5t-122.5 -286.5q-25 -88 -93 -260l-65 -156q-14 -89 -14 -98zM170 -193l266 109q316 234 316 545v41q-29 26 -90 26 q-33 0 -103 -28l-82 -37l-76 -137q-38 -64 -65.5 -115.5t-74.5 -161t-91 -242.5z" />
<glyph unicode="&#xff;" d="M-260 -967q0 189 22.5 280.5t104.5 229.5q1 14 31 42.5t34 39.5l103 107q22 -1 102 55.5t101 62.5l237 66l113 307l-6 13l-181 -148q-89 -71 -211 -119q-32 0 -44.5 0.5t-31.5 5t-30 13.5q0 53 15.5 100t60.5 125l24 23q8 17 36 80.5t47.5 106.5t52.5 107t60 106.5t60 79 t62 48.5q32 -16 35 -27l-103 -151q-31 -41 -33 -45q0 -1 -37 -98t-74.5 -204.5t-37.5 -134.5q0 -24 10 -47q77 44 150 118.5t113 132t97.5 149.5t75.5 118l47 39q19 19 39 19q1 0 3.5 -1t7.5 -2.5t10 -2.5q0 -157 -57 -295l-154 -367l231 49q80 0 80 -57q0 -33 -18 -33 l-53 -12l-27 16q-115 0 -163.5 -7t-82.5 -32q0 -28 -37 -43l-106 -274q-9 -9 -17 -23l-69 -135l-113 -143q0 -31 -6 -37l-104 -211l-148 -215l-156 -49q-65 32 -65 274zM-207 -791q0 -19 2 -71.5t2 -91.5v-50q2 -10 7.5 -34t7.5 -32t7 -25.5t8.5 -25.5t9 -19.5t12 -19 t14.5 -14.5l53 9l86 161l21 23l65 123q32 59 74 115q7 25 15.5 59t13.5 52.5t13.5 40.5t20.5 38l21 51l108 154l78 190l-260 -59l-121 -92h-16l-115 -148q-36 -29 -47 -75q-43 -79 -61.5 -134t-18.5 -125zM494 950q0 11 4 15l114 61q3 -8 14 -29t16 -36t5 -33l-55 -41 l-12 -13l-72 50q-14 14 -14 26zM836 956v11l41 53l30 4l11 -33q36 -9 50.5 -24t14.5 -41q0 -29 -17 -45.5t-42 -16.5z" />
<glyph unicode="&#x152;" horiz-adv-x="1847" d="M170 104q41 284 211.5 531t456.5 434q21 12 39 12q6 0 15 -3t26.5 -10.5t31.5 -12.5l51 -19q51 31 86 31q25 0 85 -28.5t77 -28.5q25 0 56 8h2q10 0 60.5 20.5t96.5 44.5h2q312 138 693 138q173 0 284 -21l-69 -72q-91 25 -189 25q-82 0 -180 -23q-216 -47 -301 -47 l-207 -55q-121 -47 -188 -123v-323q73 -15 125 -15q25 0 84.5 3.5t109.5 7.5t53 4q72 0 113 -14t74 -54l8 -14q-24 -4 -86 -23q-77 25 -211 25q-77 0 -127 -6l-170 -19q-7 -9 -32 -44t-51 -67.5t-58 -66.5l-164 -174q29 -74 158 -74q185 0 522 146l-33 -76q-71 -53 -196 -88 t-248 -35q-212 0 -271 94q-191 -111 -310.5 -153.5t-233.5 -42.5q-163 60 -195 208zM240 147q0 -44 19 -75t43 -46t63 -23.5t61 -9.5t55 -1q70 0 150 26.5t229 100.5q0 184 174 489l160 285q-50 90 -104 90q-26 0 -132 -25l-10 -20q-15 -18 -24 -20q-53 9 -99 73 q-78 -50 -190 -147l-158 -146q-140 -241 -188.5 -354.5t-48.5 -196.5zM938 197q0 -27 4 -31q12 20 35 47l59 66q138 147 144 178q-26 16 -58 16q-27 -4 -59 -4q-48 -83 -68 -118.5t-38.5 -80.5t-18.5 -73zM1081 553h127q0 61 -12 135q-15 -5 -33.5 -23.5t-30.5 -35.5 t-30 -44.5t-21 -31.5z" />
<glyph unicode="&#x153;" horiz-adv-x="1241" d="M158 111q0 277 317 485q29 33 66 33q10 0 89 -40t109 -40q22 28 74 158q26 65 77 88.5t132 23.5q36 0 72 -26l82 -78q36 -48 36 -76q0 -59 -233 -96q-135 -22 -174 -49q-2 -10 -31 -118t-29 -132q0 -45 21 -74t65 -43t91.5 -18.5t121.5 -4.5q258 0 390 82 q-51 -91 -161.5 -125t-262.5 -34q-131 0 -221 36.5t-142 120.5q-243 -209 -383 -209q-106 0 -106 136zM279 158q0 -37 11 -47.5t46 -10.5q94 0 250 93q37 61 61 129q25 66 25 108q0 58 -37 91.5t-113 33.5q-96 -70 -169.5 -184.5t-73.5 -212.5zM905 635q0 -12 158 -12 q21 0 34 13t13 26q0 19 -45.5 38t-81.5 19q-11 -17 -14 -19q-20 -8 -42 -27.5t-22 -37.5z" />
<glyph unicode="&#x178;" d="M154 -477q0 40 45 141q0 11 30 59.5t85.5 142.5t99.5 185l118 246l95 225l-68 -12q-25 17 -49 57l-49 121l-33 156q-24 104 -20 145q0 121 15.5 165.5t63.5 72.5q0 -1 9.5 -130t33.5 -267t64 -195l35 -29q20 4 39.5 25t36.5 57t30 69.5t30 80t28 71.5q49 116 225 320 l63 71q59 41 80 41q6 0 13 -14l-93 -115q-2 -7 -10 -17.5t-24 -30t-29 -36.5l-43 -61q-35 -57 -59 -92.5t-36.5 -51t-39.5 -46.5l-160 -367q-37 -142 -65.5 -219t-67.5 -137q-10 -13 -31 -35t-35 -38t-14 -20q-11 -17 -42 -99t-48 -112l-53 -114q-32 -72 -45.5 -114 t-12.5 -77q0 -15 7.5 -22t22.5 -11.5t21 -7.5q-4 -11 -18.5 -21.5t-34 -20.5t-26.5 -15q-9 9 -32 13.5t-37.5 16.5t-14.5 46zM508 1470q0 13 2 15l117 63q3 -8 14 -29t16 -36t5 -33l-58 -43l-10 -10l-72 47q-14 14 -14 26zM848 1477v12l43 53l29 2l12 -33q35 -9 50 -24.5 t15 -40.5q0 -29 -17.5 -45.5t-41.5 -16.5z" />
<glyph unicode="&#x2c6;" horiz-adv-x="1083" d="M332 895l6 10q3 6 9.5 26t15 31.5t26.5 20.5q50 27 68 36t31.5 18.5t14 12.5t11 16t27.5 30q22 23 61 75.5t68 90.5t37 38q11 0 41 -19t36 -19q15 -39 39 -79t56 -78t55 -63t58 -60l44 -44q-7 -27 -16 -27q-5 0 -23.5 16.5t-23.5 16.5t-16.5 -9t-16.5 -9q-15 0 -27 12 q2 0 2 4q0 12 -48 66t-52 65q-16 3 -53 32.5t-64 29.5q-22 -15 -68.5 -58.5t-64.5 -58.5q-39 -32 -108.5 -70.5t-124.5 -52.5z" />
<glyph unicode="&#x2dc;" horiz-adv-x="1069" d="M342 1030q27 9 64 33.5t71.5 41.5t69.5 17q47 0 137.5 -43t132.5 -43q12 0 51.5 47t61.5 47q31 0 42 -9t11 -34q0 -39 -35 -57q-20 -5 -41.5 -25t-45.5 -36.5t-54 -16.5q-46 0 -123.5 42t-124.5 42q-38 0 -107.5 -13t-103.5 -15z" />
<glyph unicode="&#x2000;" horiz-adv-x="1043" />
<glyph unicode="&#x2001;" horiz-adv-x="2087" />
<glyph unicode="&#x2002;" horiz-adv-x="1043" />
<glyph unicode="&#x2003;" horiz-adv-x="2087" />
<glyph unicode="&#x2004;" horiz-adv-x="695" />
<glyph unicode="&#x2005;" horiz-adv-x="521" />
<glyph unicode="&#x2006;" horiz-adv-x="347" />
<glyph unicode="&#x2007;" horiz-adv-x="347" />
<glyph unicode="&#x2008;" horiz-adv-x="260" />
<glyph unicode="&#x2009;" horiz-adv-x="417" />
<glyph unicode="&#x200a;" horiz-adv-x="115" />
<glyph unicode="&#x2010;" d="M131 348q0 43 13 72.5t32.5 46t55 25t67 10.5t82.5 2q102 0 127 -2l217 -27q0 -28 -28.5 -47.5t-74.5 -29t-90 -13.5t-90 -4q-112 0 -219 10q-63 -49 -86 -49q-6 0 -6 6z" />
<glyph unicode="&#x2011;" d="M131 348q0 43 13 72.5t32.5 46t55 25t67 10.5t82.5 2q102 0 127 -2l217 -27q0 -28 -28.5 -47.5t-74.5 -29t-90 -13.5t-90 -4q-112 0 -219 10q-63 -49 -86 -49q-6 0 -6 6z" />
<glyph unicode="&#x2012;" d="M131 348q0 43 13 72.5t32.5 46t55 25t67 10.5t82.5 2q102 0 127 -2l217 -27q0 -28 -28.5 -47.5t-74.5 -29t-90 -13.5t-90 -4q-112 0 -219 10q-63 -49 -86 -49q-6 0 -6 6z" />
<glyph unicode="&#x2013;" horiz-adv-x="1472" d="M238 326q0 33 32 92q236 35 373 53t320 33.5t342 15.5l153 -4q-24 -39 -26 -61q-90 -32 -185 -46t-219 -25.5t-223 -29.5q-401 -75 -479 -75q-1 1 -44.5 15t-43.5 32z" />
<glyph unicode="&#x2014;" horiz-adv-x="1914" d="M238 326q0 33 32 92q245 38 671 70t730 32l178 -4q-20 -32 -26 -61q-75 -24 -226 -33q-365 -21 -409 -37q-118 0 -324 -31q-443 -75 -538 -75q-1 1 -44.5 15t-43.5 32z" />
<glyph unicode="&#x2018;" horiz-adv-x="210" d="M225 889q0 94 47 208t117 195q13 6 34 22.5t28 16.5q2 0 3.5 -2t2.5 -2q-13 -96 -41 -164q-99 -228 -99 -270q0 -16 24 -41.5t24 -28.5h-68h-14q-21 0 -28.5 8t-22.5 42q-4 10 -7 16z" />
<glyph unicode="&#x2019;" horiz-adv-x="428" d="M358 983q0 19 25 55.5t49.5 79.5t24.5 76q0 10 -6.5 41t-6.5 51q0 33 30.5 52.5t57 23.5t50.5 4q25 -29 33 -47.5t8 -46.5q0 -33 -2 -37q-69 -145 -95.5 -185t-83.5 -73l-65 -12q-19 0 -19 18z" />
<glyph unicode="&#x201a;" horiz-adv-x="448" d="M57 -383q5 19 49 49.5t48 36.5q32 63 32 164q0 70 -15.5 125.5t-53.5 134.5q41 34 69 48.5t66 14.5q52 -33 81 -94.5t29 -134.5q0 -122 -59 -201q-34 -45 -67.5 -65.5t-174.5 -83.5z" />
<glyph unicode="&#x201c;" horiz-adv-x="677" d="M225 889q0 94 47 208t117 195q13 6 34 22.5t28 16.5q2 0 3.5 -2t2.5 -2q-13 -96 -41 -164q-99 -228 -99 -270q0 -16 24 -41.5t24 -28.5h-68h-14q-21 0 -28.5 8t-22.5 42q-4 10 -7 16zM553 891q-7 79 33 153l65 136q56 59 109 59q4 -4 4 -33q0 -2 -1 -6t-2.5 -11t-2.5 -13 q-89 -99 -137 -324q-8 -2 -29 -2q-26 0 -32.5 9t-6.5 32z" />
<glyph unicode="&#x201d;" horiz-adv-x="774" d="M348 891q0 9 20.5 44.5t41 82.5t20.5 84q0 9 -6 55t-6 60q0 30 34.5 43t106.5 22q27 -19 38 -35.5t11 -44.5q0 -59 -30 -122t-76 -109q-48 -17 -92 -53q-38 -35 -52 -35q-7 0 -10 8zM668 977q0 30 49 103.5t49 107.5q0 14 -6 51t-6 43q0 33 30.5 53.5t58 25.5t48.5 5 q45 -59 45 -100q0 -27 -4 -31q-44 -95 -70.5 -141t-48.5 -68.5t-61 -48.5l-66 -12q-18 0 -18 12z" />
<glyph unicode="&#x201e;" horiz-adv-x="774" d="M57 -272q0 12 21.5 48.5t43 84t21.5 86.5q0 20 -6 67.5t-6 51.5q0 14 18.5 25.5t40 16.5t48.5 10t32 7l45 -51q2 -2 2 -39q0 -105 -98 -225q-29 -14 -64.5 -36.5t-57.5 -37.5t-25 -15q-12 0 -15 7zM381 -180q0 19 22 61l39 58q33 51 33 88q0 14 -6 51t-6 43q0 32 28 52 t57 25t58 5q17 -23 23 -32.5t11 -26t5 -38.5q0 -28 -4 -32q-103 -271 -246 -271q-14 0 -14 17z" />
<glyph unicode="&#x2022;" d="M219 573q0 37 53.5 84t116.5 84q1 1 19 11.5t25 15t28 16t33.5 18t34.5 17.5t38 17t38.5 14t41 12t39 7t39.5 3q27 0 46.5 -11t19.5 -23q0 -6 -24 -34.5t-26 -39.5l60 -82q24 -40 24 -74v-16q-3 -33 -67 -49q-193 -172 -361 -172q-25 0 -41.5 16t-23.5 62 q-68 44 -90.5 67t-22.5 57z" />
<glyph unicode="&#x2026;" horiz-adv-x="1404" d="M137 -78q0 81 61.5 128t145.5 61h18l-18 -52l-10 -13q-10 -13 -23.5 -29.5t-34 -36.5t-41.5 -36t-47.5 -27t-50.5 -11v16zM567 -66q0 40 18.5 71t52 51t66 32.5t74.5 22.5h19l-19 -52l-10 -13q-10 -13 -23.5 -29.5t-34 -36.5t-41.5 -36t-46.5 -27t-49.5 -11zM1036 -94 q0 64 21 114l-2 -2q0 -1 33 21.5t81 47t78 24.5h19l-21 -52q-110 -153 -209 -153z" />
<glyph unicode="&#x202f;" horiz-adv-x="417" />
<glyph unicode="&#x2039;" horiz-adv-x="866" d="M117 240q1 4 17.5 16.5t45 35.5t49.5 44q41 64 112.5 155t157 175t128.5 88q-12 -53 -176 -217q-17 -30 -57 -80t-67 -80t-36 -39q8 -31 40 -47.5t65.5 -20.5t60 -19.5t26.5 -45.5q0 -15 -34.5 -50.5t-71.5 -35.5q-17 31 -88 57q-168 53 -170 55z" />
<glyph unicode="&#x203a;" horiz-adv-x="985" d="M414 33q29 42 112 78l222 86q11 7 23.5 31.5t12.5 47.5q0 48 -48.5 90t-106 66t-106 49.5t-48.5 44.5l47 41q55 41 92 41q41 0 80 -20q26 -13 61 -31l52.5 -27t42 -22.5t36 -22t26.5 -22t21 -25t12.5 -28t8.5 -35.5t2 -43q-59 -104 -216 -189t-326 -110z" />
<glyph unicode="&#x205f;" horiz-adv-x="521" />
<glyph unicode="&#x20ac;" horiz-adv-x="1335" d="M178 602q0 30 27 76q40 5 140.5 19.5t154.5 21.5q0 1 1 2.5t1 3.5l35 86q-184 -31 -234 -31q-1 1 -45.5 15t-44.5 34q0 30 33 91l409 57l25 33q23 23 139.5 157t188.5 191q6 3 91 56.5t115 64.5l119 -2l51 -33q43 -55 43 -139q0 -98 -47 -185q-28 0 -28 8l-6 213l-91 52 q-40 0 -148.5 -54.5t-117.5 -56.5l-252 -297q293 37 543 37l154 -4q-21 -34 -27 -62q-90 -32 -185 -46t-219 -25t-223 -29l-168 -31l-51 -98q274 33 488 33l125 -2q-21 -32 -21 -51q-97 -32 -270.5 -51.5t-241.5 -32.5q-20 -4 -50.5 -10t-54 -10t-42.5 -7l-78 -152l-8 -75 q0 -156 95 -229.5t263 -73.5q50 0 131 12l147 53q34 12 82 41.5t82.5 51t46.5 20.5q-36 -85 -38 -92q-92 -96 -230.5 -152.5t-288.5 -56.5l-59 4q-127 6 -214 87.5t-87 205.5q0 95 31 168l71 180q-133 -25 -190 -25q-2 2 -20.5 6.5t-35 12.5t-16.5 20z" />
<glyph unicode="&#x2122;" horiz-adv-x="1413" d="M29 1589q7 35 24 59t33 27q76 0 167 8t180.5 19.5t115.5 13.5q49 4 281.5 55t271.5 56v-6q0 -21 -31 -44t-59.5 -36t-73.5 -31l-315 -78l-5 -47q-34 -57 -55 -82q-15 -21 -30.5 -41.5t-23 -29.5t-17 -23.5t-13 -18t-11 -18t-9 -18.5t-10 -25t-12 -32t-15.5 -45t-21 -58 q-39 -62 -68.5 -138t-29.5 -132q0 -34 19 -80l-78 -66q-28 16 -39 27l-8 61q0 25 7 59.5t14.5 57.5t23 69t20.5 62l92 178q26 51 52 101.5t35.5 69t9.5 20.5l131 145l-115 -16q-209 -39 -420 -39q-8 0 -13 6t-5 10zM500 786l20 123l12 9q1 -1 10 51t18 124.5t9 114.5l-8 90 q45 27 74 27h6q80 248 248 307q31 -72 31 -123l-2 -86l-35 -176q64 40 166 148q111 123 169.5 178t165.5 141l2 -86q3 -70 -10.5 -140t-33 -135t-23.5 -91l-57 -185q-22 -72 -37.5 -126t-25.5 -96t-14 -58.5t-10.5 -52.5t-7.5 -39l-30 -33l-60 -39q-14 86 -14 98 q0 58 27 195l143 368q11 38 41 211l-105 -104l-159 -178q-49 -55 -101.5 -91t-91.5 -36q-56 0 -72 30l48 193q16 64 20 125v29l-27 -33l-8 -45h-26l-93 -238q-1 -4 -4.5 -36t-9.5 -54q-23 -75 -37 -135.5t-17.5 -83.5t-11 -44.5t-24.5 -43.5z" />
<glyph unicode="&#x25fc;" horiz-adv-x="757" d="M0 0v758h758v-758h-758z" />
</font>
</defs>
</svg>
